<?xml version="1.0" standalone="no"?><!-- Generator: Gravit.io --><svg xmlns="http://www.w3.org/2000/svg" xmlns:xlink="http://www.w3.org/1999/xlink" style="isolation:isolate" viewBox="0 0 1024 512" width="1024" height="512"><rect x="0" y="0" width="1024" height="512" transform="matrix(1,0,0,1,0,0)" fill="rgb(51,153,51)"/><g id="null"><path d=" M 357.463 211.301 L 216.107 352.657 Q 185.164 383.6 155.978 381.843 Q 126.793 380.084 101.475 354.767 Q 76.158 329.449 74.399 300.264 Q 72.641 271.078 103.585 240.134 L 244.941 98.779 L 217.162 71 L 75.806 212.356 Q 34.313 253.848 36.072 297.803 Q 37.829 341.757 76.333 380.26 Q 114.837 418.764 158.615 420.346 Q 202.394 421.929 243.886 380.436 L 385.242 239.08 L 357.463 211.301 Z " fill="rgb(255,255,255)"/><path d=" M 293.731 417.222 L 435.087 275.866 Q 466.03 244.922 464.273 215.736 Q 462.514 186.551 437.197 161.234 Q 411.879 135.916 382.694 134.158 Q 353.508 132.4 322.565 163.343 L 181.209 304.7 L 153.43 276.92 L 294.786 135.564 Q 336.278 94.072 380.232 95.83 Q 424.187 97.588 462.69 136.092 Q 501.194 174.595 502.776 218.374 Q 504.358 262.152 462.865 303.645 L 321.51 445 L 293.731 417.222 Z " fill="rgb(255,255,255)"/><rect x="306.999" y="185.749" width="35.187" height="35.187" transform="matrix(0.707,0.707,-0.707,0.707,238.856,-169.964)" fill="rgb(255,255,255)"/><rect x="235.317" y="115.258" width="35.187" height="35.187" transform="matrix(0.707,0.707,-0.707,0.707,168.016,-139.923)" fill="rgb(255,255,255)"/><rect x="196.562" y="296.209" width="35.187" height="35.187" transform="matrix(0.707,0.707,-0.707,0.707,284.617,-59.52)" fill="rgb(255,255,255)"/><rect x="267.068" y="365.527" width="35.187" height="35.187" transform="matrix(0.707,0.707,-0.707,0.707,354.282,-89.073)" fill="rgb(255,255,255)"/></g><path d=" M 566.602 92.039 L 570.586 92.039 L 570.586 114.211 L 570.586 114.211 Q 570.586 120.07 567.047 123.422 L 567.047 123.422 L 567.047 123.422 Q 563.508 126.773 557.32 126.773 L 557.32 126.773 L 557.32 126.773 Q 551.133 126.773 547.746 123.398 L 547.746 123.398 L 547.746 123.398 Q 544.359 120.023 544.359 114.117 L 544.359 114.117 L 544.359 92.039 L 548.344 92.039 L 548.344 114.398 L 548.344 114.398 Q 548.344 118.688 550.688 120.984 L 550.688 120.984 L 550.688 120.984 Q 553.031 123.281 557.578 123.281 L 557.578 123.281 L 557.578 123.281 Q 561.914 123.281 564.258 120.973 L 564.258 120.973 L 564.258 120.973 Q 566.602 118.664 566.602 114.352 L 566.602 114.352 L 566.602 92.039 Z  M 600.539 126.305 L 596.648 126.305 L 596.648 109.688 L 596.648 109.688 Q 596.648 106.547 595.219 105 L 595.219 105 L 595.219 105 Q 593.789 103.453 590.742 103.453 L 590.742 103.453 L 590.742 103.453 Q 586.711 103.453 584.836 105.633 L 584.836 105.633 L 584.836 105.633 Q 582.961 107.813 582.961 112.828 L 582.961 112.828 L 582.961 126.305 L 579.07 126.305 L 579.07 100.617 L 582.234 100.617 L 582.867 104.133 L 583.055 104.133 L 583.055 104.133 Q 584.25 102.234 586.406 101.191 L 586.406 101.191 L 586.406 101.191 Q 588.563 100.148 591.211 100.148 L 591.211 100.148 L 591.211 100.148 Q 595.852 100.148 598.195 102.387 L 598.195 102.387 L 598.195 102.387 Q 600.539 104.625 600.539 109.547 L 600.539 109.547 L 600.539 126.305 Z  M 612.422 100.617 L 612.422 126.305 L 608.531 126.305 L 608.531 100.617 L 612.422 100.617 Z  M 608.203 93.656 L 608.203 93.656 L 608.203 93.656 Q 608.203 92.32 608.859 91.699 L 608.859 91.699 L 608.859 91.699 Q 609.516 91.078 610.5 91.078 L 610.5 91.078 L 610.5 91.078 Q 611.438 91.078 612.117 91.711 L 612.117 91.711 L 612.117 91.711 Q 612.797 92.344 612.797 93.656 L 612.797 93.656 L 612.797 93.656 Q 612.797 94.969 612.117 95.613 L 612.117 95.613 L 612.117 95.613 Q 611.438 96.258 610.5 96.258 L 610.5 96.258 L 610.5 96.258 Q 609.516 96.258 608.859 95.613 L 608.859 95.613 L 608.859 95.613 Q 608.203 94.969 608.203 93.656 Z  M 628.969 123.563 L 628.969 123.563 L 628.969 123.563 Q 630 123.563 630.961 123.41 L 630.961 123.41 L 630.961 123.41 Q 631.922 123.258 632.484 123.094 L 632.484 123.094 L 632.484 126.07 L 632.484 126.07 Q 631.852 126.375 630.621 126.574 L 630.621 126.574 L 630.621 126.574 Q 629.391 126.773 628.406 126.773 L 628.406 126.773 L 628.406 126.773 Q 620.953 126.773 620.953 118.922 L 620.953 118.922 L 620.953 103.641 L 617.273 103.641 L 617.273 101.766 L 620.953 100.148 L 622.594 94.664 L 624.844 94.664 L 624.844 100.617 L 632.297 100.617 L 632.297 103.641 L 624.844 103.641 L 624.844 118.758 L 624.844 118.758 Q 624.844 121.078 625.945 122.32 L 625.945 122.32 L 625.945 122.32 Q 627.047 123.563 628.969 123.563 Z  M 648.469 126.773 L 648.469 126.773 L 648.469 126.773 Q 642.773 126.773 639.48 123.305 L 639.48 123.305 L 639.48 123.305 Q 636.188 119.836 636.188 113.672 L 636.188 113.672 L 636.188 113.672 Q 636.188 107.461 639.246 103.805 L 639.246 103.805 L 639.246 103.805 Q 642.305 100.148 647.461 100.148 L 647.461 100.148 L 647.461 100.148 Q 652.289 100.148 655.102 103.324 L 655.102 103.324 L 655.102 103.324 Q 657.914 106.5 657.914 111.703 L 657.914 111.703 L 657.914 114.164 L 640.219 114.164 L 640.219 114.164 Q 640.336 118.688 642.504 121.031 L 642.504 121.031 L 642.504 121.031 Q 644.672 123.375 648.609 123.375 L 648.609 123.375 L 648.609 123.375 Q 652.758 123.375 656.813 121.641 L 656.813 121.641 L 656.813 125.109 L 656.813 125.109 Q 654.75 126 652.91 126.387 L 652.91 126.387 L 652.91 126.387 Q 651.07 126.773 648.469 126.773 Z  M 647.414 103.406 L 647.414 103.406 L 647.414 103.406 Q 644.32 103.406 642.48 105.422 L 642.48 105.422 L 642.48 105.422 Q 640.641 107.438 640.313 111 L 640.313 111 L 653.742 111 L 653.742 111 Q 653.742 107.32 652.102 105.363 L 652.102 105.363 L 652.102 105.363 Q 650.461 103.406 647.414 103.406 Z  M 660.141 135.328 L 660.141 135.328 L 660.141 135.328 Q 657.938 135.328 656.672 134.695 L 656.672 134.695 L 656.672 131.297 L 656.672 131.297 Q 658.336 131.766 660.141 131.766 L 660.141 131.766 L 660.141 131.766 Q 662.461 131.766 663.668 130.359 L 663.668 130.359 L 663.668 130.359 Q 664.875 128.953 664.875 126.305 L 664.875 126.305 L 664.875 92.039 L 668.859 92.039 L 668.859 125.977 L 668.859 125.977 Q 668.859 130.43 666.609 132.879 L 666.609 132.879 L 666.609 132.879 Q 664.359 135.328 660.141 135.328 Z  M 697.289 117.188 L 697.289 117.188 L 697.289 117.188 Q 697.289 121.711 694.008 124.242 L 694.008 124.242 L 694.008 124.242 Q 690.727 126.773 685.102 126.773 L 685.102 126.773 L 685.102 126.773 Q 679.008 126.773 675.727 125.203 L 675.727 125.203 L 675.727 121.359 L 675.727 121.359 Q 677.836 122.25 680.32 122.766 L 680.32 122.766 L 680.32 122.766 Q 682.805 123.281 685.242 123.281 L 685.242 123.281 L 685.242 123.281 Q 689.227 123.281 691.242 121.77 L 691.242 121.77 L 691.242 121.77 Q 693.258 120.258 693.258 117.563 L 693.258 117.563 L 693.258 117.563 Q 693.258 115.781 692.543 114.645 L 692.543 114.645 L 692.543 114.645 Q 691.828 113.508 690.152 112.547 L 690.152 112.547 L 690.152 112.547 Q 688.477 111.586 685.055 110.367 L 685.055 110.367 L 685.055 110.367 Q 680.273 108.656 678.223 106.313 L 678.223 106.313 L 678.223 106.313 Q 676.172 103.969 676.172 100.195 L 676.172 100.195 L 676.172 100.195 Q 676.172 96.234 679.148 93.891 L 679.148 93.891 L 679.148 93.891 Q 682.125 91.547 687.023 91.547 L 687.023 91.547 L 687.023 91.547 Q 692.133 91.547 696.422 93.422 L 696.422 93.422 L 695.18 96.891 L 695.18 96.891 Q 690.938 95.109 686.93 95.109 L 686.93 95.109 L 686.93 95.109 Q 683.766 95.109 681.984 96.469 L 681.984 96.469 L 681.984 96.469 Q 680.203 97.828 680.203 100.242 L 680.203 100.242 L 680.203 100.242 Q 680.203 102.023 680.859 103.16 L 680.859 103.16 L 680.859 103.16 Q 681.516 104.297 683.074 105.246 L 683.074 105.246 L 683.074 105.246 Q 684.633 106.195 687.844 107.344 L 687.844 107.344 L 687.844 107.344 Q 693.234 109.266 695.262 111.469 L 695.262 111.469 L 695.262 111.469 Q 697.289 113.672 697.289 117.188 Z " fill-rule="evenodd" fill="rgb(255,255,255)"/><path d=" M 560.156 400.109 L 560.156 400.109 L 560.156 400.109 Q 560.156 401.773 559.641 403.156 L 559.641 403.156 L 559.641 403.156 Q 559.125 404.539 558.188 405.301 L 558.188 405.301 L 558.188 405.301 Q 557.25 406.063 556.031 406.063 L 556.031 406.063 L 556.031 406.063 Q 555.023 406.063 554.332 405.453 L 554.332 405.453 L 554.332 405.453 Q 553.641 404.844 553.512 403.895 L 553.512 403.895 L 553.418 403.895 L 553.418 403.895 Q 552.949 404.914 552.076 405.488 L 552.076 405.488 L 552.076 405.488 Q 551.203 406.063 550.008 406.063 L 550.008 406.063 L 550.008 406.063 Q 548.25 406.063 547.26 404.861 L 547.26 404.861 L 547.26 404.861 Q 546.27 403.66 546.27 401.598 L 546.27 401.598 L 546.27 401.598 Q 546.27 399.207 547.652 397.713 L 547.652 397.713 L 547.652 397.713 Q 549.035 396.219 551.285 396.219 L 551.285 396.219 L 551.285 396.219 Q 552.082 396.219 553.09 396.365 L 553.09 396.365 L 553.09 396.365 Q 554.098 396.512 554.906 396.77 L 554.906 396.77 L 554.613 402.277 L 554.613 402.535 L 554.613 402.535 Q 554.613 404.621 556.172 404.621 L 556.172 404.621 L 556.172 404.621 Q 557.238 404.621 557.906 403.361 L 557.906 403.361 L 557.906 403.361 Q 558.574 402.102 558.574 400.086 L 558.574 400.086 L 558.574 400.086 Q 558.574 397.965 557.707 396.371 L 557.707 396.371 L 557.707 396.371 Q 556.84 394.777 555.24 393.916 L 555.24 393.916 L 555.24 393.916 Q 553.641 393.055 551.566 393.055 L 551.566 393.055 L 551.566 393.055 Q 548.953 393.055 547.02 394.139 L 547.02 394.139 L 547.02 394.139 Q 545.086 395.223 544.066 397.232 L 544.066 397.232 L 544.066 397.232 Q 543.047 399.242 543.047 401.879 L 543.047 401.879 L 543.047 401.879 Q 543.047 405.453 544.934 407.375 L 544.934 407.375 L 544.934 407.375 Q 546.82 409.297 550.371 409.297 L 550.371 409.297 L 550.371 409.297 Q 552.832 409.297 555.48 408.289 L 555.48 408.289 L 555.48 409.848 L 555.48 409.848 Q 553.23 410.832 550.371 410.832 L 550.371 410.832 L 550.371 410.832 Q 546.117 410.832 543.768 408.494 L 543.768 408.494 L 543.768 408.494 Q 541.418 406.156 541.418 401.961 L 541.418 401.961 L 541.418 401.961 Q 541.418 398.914 542.672 396.535 L 542.672 396.535 L 542.672 396.535 Q 543.926 394.156 546.246 392.85 L 546.246 392.85 L 546.246 392.85 Q 548.566 391.543 551.566 391.543 L 551.566 391.543 L 551.566 391.543 Q 554.086 391.543 556.049 392.604 L 556.049 392.604 L 556.049 392.604 Q 558.012 393.664 559.084 395.615 L 559.084 395.615 L 559.084 395.615 Q 560.156 397.566 560.156 400.109 Z  M 548.039 401.645 L 548.039 401.645 L 548.039 401.645 Q 548.039 404.621 550.324 404.621 L 550.324 404.621 L 550.324 404.621 Q 552.75 404.621 552.961 400.953 L 552.961 400.953 L 553.125 397.895 L 553.125 397.895 Q 552.281 397.66 551.285 397.66 L 551.285 397.66 L 551.285 397.66 Q 549.762 397.66 548.9 398.715 L 548.9 398.715 L 548.9 398.715 Q 548.039 399.77 548.039 401.645 Z  M 563.496 395.809 L 565.465 395.809 L 565.465 404.141 L 565.465 404.141 Q 565.465 405.711 566.18 406.484 L 566.18 406.484 L 566.18 406.484 Q 566.895 407.258 568.418 407.258 L 568.418 407.258 L 568.418 407.258 Q 570.434 407.258 571.365 406.156 L 571.365 406.156 L 571.365 406.156 Q 572.297 405.055 572.297 402.559 L 572.297 402.559 L 572.297 395.809 L 574.242 395.809 L 574.242 408.652 L 572.637 408.652 L 572.355 406.93 L 572.25 406.93 L 572.25 406.93 Q 571.652 407.879 570.592 408.383 L 570.592 408.383 L 570.592 408.383 Q 569.531 408.887 568.172 408.887 L 568.172 408.887 L 568.172 408.887 Q 565.828 408.887 564.662 407.773 L 564.662 407.773 L 564.662 407.773 Q 563.496 406.66 563.496 404.211 L 563.496 404.211 L 563.496 395.809 Z  M 589.102 408.652 L 587.156 408.652 L 587.156 400.344 L 587.156 400.344 Q 587.156 398.773 586.441 398 L 586.441 398 L 586.441 398 Q 585.727 397.227 584.203 397.227 L 584.203 397.227 L 584.203 397.227 Q 582.188 397.227 581.25 398.316 L 581.25 398.316 L 581.25 398.316 Q 580.313 399.406 580.313 401.914 L 580.313 401.914 L 580.313 408.652 L 578.367 408.652 L 578.367 395.809 L 579.949 395.809 L 580.266 397.566 L 580.359 397.566 L 580.359 397.566 Q 580.957 396.617 582.035 396.096 L 582.035 396.096 L 582.035 396.096 Q 583.113 395.574 584.438 395.574 L 584.438 395.574 L 584.438 395.574 Q 586.758 395.574 587.93 396.693 L 587.93 396.693 L 587.93 396.693 Q 589.102 397.813 589.102 400.273 L 589.102 400.273 L 589.102 408.652 Z  M 595.043 395.809 L 595.043 408.652 L 593.098 408.652 L 593.098 395.809 L 595.043 395.809 Z  M 592.934 392.328 L 592.934 392.328 L 592.934 392.328 Q 592.934 391.66 593.262 391.35 L 593.262 391.35 L 593.262 391.35 Q 593.59 391.039 594.082 391.039 L 594.082 391.039 L 594.082 391.039 Q 594.551 391.039 594.891 391.355 L 594.891 391.355 L 594.891 391.355 Q 595.23 391.672 595.23 392.328 L 595.23 392.328 L 595.23 392.328 Q 595.23 392.984 594.891 393.307 L 594.891 393.307 L 594.891 393.307 Q 594.551 393.629 594.082 393.629 L 594.082 393.629 L 594.082 393.629 Q 593.59 393.629 593.262 393.307 L 593.262 393.307 L 593.262 393.307 Q 592.934 392.984 592.934 392.328 Z  M 603.316 407.281 L 603.316 407.281 L 603.316 407.281 Q 603.832 407.281 604.313 407.205 L 604.313 407.205 L 604.313 407.205 Q 604.793 407.129 605.074 407.047 L 605.074 407.047 L 605.074 408.535 L 605.074 408.535 Q 604.758 408.688 604.143 408.787 L 604.143 408.787 L 604.143 408.787 Q 603.527 408.887 603.035 408.887 L 603.035 408.887 L 603.035 408.887 Q 599.309 408.887 599.309 404.961 L 599.309 404.961 L 599.309 397.32 L 597.469 397.32 L 597.469 396.383 L 599.309 395.574 L 600.129 392.832 L 601.254 392.832 L 601.254 395.809 L 604.98 395.809 L 604.98 397.32 L 601.254 397.32 L 601.254 404.879 L 601.254 404.879 Q 601.254 406.039 601.805 406.66 L 601.805 406.66 L 601.805 406.66 Q 602.355 407.281 603.316 407.281 Z  M 613.066 408.887 L 613.066 408.887 L 613.066 408.887 Q 610.219 408.887 608.572 407.152 L 608.572 407.152 L 608.572 407.152 Q 606.926 405.418 606.926 402.336 L 606.926 402.336 L 606.926 402.336 Q 606.926 399.23 608.455 397.402 L 608.455 397.402 L 608.455 397.402 Q 609.984 395.574 612.563 395.574 L 612.563 395.574 L 612.563 395.574 Q 614.977 395.574 616.383 397.162 L 616.383 397.162 L 616.383 397.162 Q 617.789 398.75 617.789 401.352 L 617.789 401.352 L 617.789 402.582 L 608.941 402.582 L 608.941 402.582 Q 609 404.844 610.084 406.016 L 610.084 406.016 L 610.084 406.016 Q 611.168 407.188 613.137 407.188 L 613.137 407.188 L 613.137 407.188 Q 615.211 407.188 617.238 406.32 L 617.238 406.32 L 617.238 408.055 L 617.238 408.055 Q 616.207 408.5 615.287 408.693 L 615.287 408.693 L 615.287 408.693 Q 614.367 408.887 613.066 408.887 Z  M 612.539 397.203 L 612.539 397.203 L 612.539 397.203 Q 610.992 397.203 610.072 398.211 L 610.072 398.211 L 610.072 398.211 Q 609.152 399.219 608.988 401 L 608.988 401 L 615.703 401 L 615.703 401 Q 615.703 399.16 614.883 398.182 L 614.883 398.182 L 614.883 398.182 Q 614.063 397.203 612.539 397.203 Z  M 619.547 414.418 L 619.547 414.418 L 619.547 414.418 Q 618.434 414.418 617.742 414.125 L 617.742 414.125 L 617.742 412.543 L 617.742 412.543 Q 618.551 412.777 619.336 412.777 L 619.336 412.777 L 619.336 412.777 Q 620.25 412.777 620.678 412.279 L 620.678 412.279 L 620.678 412.279 Q 621.105 411.781 621.105 410.762 L 621.105 410.762 L 621.105 395.809 L 623.051 395.809 L 623.051 410.621 L 623.051 410.621 Q 623.051 414.418 619.547 414.418 Z  M 620.941 392.328 L 620.941 392.328 L 620.941 392.328 Q 620.941 391.66 621.27 391.35 L 621.27 391.35 L 621.27 391.35 Q 621.598 391.039 622.09 391.039 L 622.09 391.039 L 622.09 391.039 Q 622.559 391.039 622.898 391.355 L 622.898 391.355 L 622.898 391.355 Q 623.238 391.672 623.238 392.328 L 623.238 392.328 L 623.238 392.328 Q 623.238 392.984 622.898 393.307 L 622.898 393.307 L 622.898 393.307 Q 622.559 393.629 622.09 393.629 L 622.09 393.629 L 622.09 393.629 Q 621.598 393.629 621.27 393.307 L 621.27 393.307 L 621.27 393.307 Q 620.941 392.984 620.941 392.328 Z  M 635.461 405.148 L 635.461 405.148 L 635.461 405.148 Q 635.461 406.941 634.125 407.914 L 634.125 407.914 L 634.125 407.914 Q 632.789 408.887 630.375 408.887 L 630.375 408.887 L 630.375 408.887 Q 627.82 408.887 626.391 408.078 L 626.391 408.078 L 626.391 406.273 L 626.391 406.273 Q 627.316 406.742 628.377 407.012 L 628.377 407.012 L 628.377 407.012 Q 629.438 407.281 630.422 407.281 L 630.422 407.281 L 630.422 407.281 Q 631.945 407.281 632.766 406.795 L 632.766 406.795 L 632.766 406.795 Q 633.586 406.309 633.586 405.313 L 633.586 405.313 L 633.586 405.313 Q 633.586 404.563 632.936 404.029 L 632.936 404.029 L 632.936 404.029 Q 632.285 403.496 630.398 402.77 L 630.398 402.77 L 630.398 402.77 Q 628.605 402.102 627.85 401.604 L 627.85 401.604 L 627.85 401.604 Q 627.094 401.105 626.725 400.473 L 626.725 400.473 L 626.725 400.473 Q 626.355 399.84 626.355 398.961 L 626.355 398.961 L 626.355 398.961 Q 626.355 397.391 627.633 396.482 L 627.633 396.482 L 627.633 396.482 Q 628.91 395.574 631.137 395.574 L 631.137 395.574 L 631.137 395.574 Q 633.211 395.574 635.191 396.418 L 635.191 396.418 L 634.5 398 L 634.5 398 Q 632.566 397.203 630.996 397.203 L 630.996 397.203 L 630.996 397.203 Q 629.613 397.203 628.91 397.637 L 628.91 397.637 L 628.91 397.637 Q 628.207 398.07 628.207 398.832 L 628.207 398.832 L 628.207 398.832 Q 628.207 399.348 628.471 399.711 L 628.471 399.711 L 628.471 399.711 Q 628.734 400.074 629.32 400.402 L 629.32 400.402 L 629.32 400.402 Q 629.906 400.73 631.57 401.352 L 631.57 401.352 L 631.57 401.352 Q 633.855 402.184 634.658 403.027 L 634.658 403.027 L 634.658 403.027 Q 635.461 403.871 635.461 405.148 Z " fill-rule="evenodd" fill="rgb(255,255,255)"/><path d=" M 552.797 454.311 L 550.852 454.311 L 550.852 446.002 L 550.852 446.002 Q 550.852 444.432 550.137 443.658 L 550.137 443.658 L 550.137 443.658 Q 549.422 442.885 547.898 442.885 L 547.898 442.885 L 547.898 442.885 Q 545.871 442.885 544.939 443.986 L 544.939 443.986 L 544.939 443.986 Q 544.008 445.088 544.008 447.596 L 544.008 447.596 L 544.008 454.311 L 542.063 454.311 L 542.063 436.076 L 544.008 436.076 L 544.008 441.596 L 544.008 441.596 Q 544.008 442.592 543.914 443.248 L 543.914 443.248 L 544.031 443.248 L 544.031 443.248 Q 544.605 442.322 545.666 441.789 L 545.666 441.789 L 545.666 441.789 Q 546.727 441.256 548.086 441.256 L 548.086 441.256 L 548.086 441.256 Q 550.441 441.256 551.619 442.375 L 551.619 442.375 L 551.619 442.375 Q 552.797 443.494 552.797 445.932 L 552.797 445.932 L 552.797 454.311 Z  M 560.941 452.939 L 560.941 452.939 L 560.941 452.939 Q 561.457 452.939 561.938 452.863 L 561.938 452.863 L 561.938 452.863 Q 562.418 452.787 562.699 452.705 L 562.699 452.705 L 562.699 454.193 L 562.699 454.193 Q 562.383 454.346 561.768 454.445 L 561.768 454.445 L 561.768 454.445 Q 561.152 454.545 560.66 454.545 L 560.66 454.545 L 560.66 454.545 Q 556.934 454.545 556.934 450.619 L 556.934 450.619 L 556.934 442.979 L 555.094 442.979 L 555.094 442.041 L 556.934 441.232 L 557.754 438.49 L 558.879 438.49 L 558.879 441.467 L 562.605 441.467 L 562.605 442.979 L 558.879 442.979 L 558.879 450.537 L 558.879 450.537 Q 558.879 451.697 559.43 452.318 L 559.43 452.318 L 559.43 452.318 Q 559.98 452.939 560.941 452.939 Z  M 569.414 452.939 L 569.414 452.939 L 569.414 452.939 Q 569.93 452.939 570.41 452.863 L 570.41 452.863 L 570.41 452.863 Q 570.891 452.787 571.172 452.705 L 571.172 452.705 L 571.172 454.193 L 571.172 454.193 Q 570.855 454.346 570.24 454.445 L 570.24 454.445 L 570.24 454.445 Q 569.625 454.545 569.133 454.545 L 569.133 454.545 L 569.133 454.545 Q 565.406 454.545 565.406 450.619 L 565.406 450.619 L 565.406 442.979 L 563.566 442.979 L 563.566 442.041 L 565.406 441.232 L 566.227 438.49 L 567.352 438.49 L 567.352 441.467 L 571.078 441.467 L 571.078 442.979 L 567.352 442.979 L 567.352 450.537 L 567.352 450.537 Q 567.352 451.697 567.902 452.318 L 567.902 452.318 L 567.902 452.318 Q 568.453 452.939 569.414 452.939 Z  M 579.715 454.545 L 579.715 454.545 L 579.715 454.545 Q 578.461 454.545 577.424 454.082 L 577.424 454.082 L 577.424 454.082 Q 576.387 453.619 575.684 452.658 L 575.684 452.658 L 575.543 452.658 L 575.543 452.658 Q 575.684 453.783 575.684 454.791 L 575.684 454.791 L 575.684 460.076 L 573.738 460.076 L 573.738 441.467 L 575.32 441.467 L 575.59 443.225 L 575.684 443.225 L 575.684 443.225 Q 576.434 442.17 577.43 441.701 L 577.43 441.701 L 577.43 441.701 Q 578.426 441.232 579.715 441.232 L 579.715 441.232 L 579.715 441.232 Q 582.27 441.232 583.658 442.979 L 583.658 442.979 L 583.658 442.979 Q 585.047 444.725 585.047 447.877 L 585.047 447.877 L 585.047 447.877 Q 585.047 451.041 583.635 452.793 L 583.635 452.793 L 583.635 452.793 Q 582.223 454.545 579.715 454.545 Z  M 579.434 442.885 L 579.434 442.885 L 579.434 442.885 Q 577.465 442.885 576.586 443.975 L 576.586 443.975 L 576.586 443.975 Q 575.707 445.064 575.684 447.443 L 575.684 447.443 L 575.684 447.877 L 575.684 447.877 Q 575.684 450.584 576.586 451.75 L 576.586 451.75 L 576.586 451.75 Q 577.488 452.916 579.48 452.916 L 579.48 452.916 L 579.48 452.916 Q 581.145 452.916 582.088 451.568 L 582.088 451.568 L 582.088 451.568 Q 583.031 450.221 583.031 447.854 L 583.031 447.854 L 583.031 447.854 Q 583.031 445.451 582.088 444.168 L 582.088 444.168 L 582.088 444.168 Q 581.145 442.885 579.434 442.885 Z  M 588.164 453.068 L 588.164 453.068 L 588.164 453.068 Q 588.164 452.283 588.521 451.879 L 588.521 451.879 L 588.521 451.879 Q 588.879 451.475 589.547 451.475 L 589.547 451.475 L 589.547 451.475 Q 590.227 451.475 590.607 451.879 L 590.607 451.879 L 590.607 451.879 Q 590.988 452.283 590.988 453.068 L 590.988 453.068 L 590.988 453.068 Q 590.988 453.83 590.602 454.24 L 590.602 454.24 L 590.602 454.24 Q 590.215 454.65 589.547 454.65 L 589.547 454.65 L 589.547 454.65 Q 588.949 454.65 588.557 454.281 L 588.557 454.281 L 588.557 454.281 Q 588.164 453.912 588.164 453.068 Z  M 588.164 442.721 L 588.164 442.721 L 588.164 442.721 Q 588.164 441.139 589.547 441.139 L 589.547 441.139 L 589.547 441.139 Q 590.988 441.139 590.988 442.721 L 590.988 442.721 L 590.988 442.721 Q 590.988 443.482 590.602 443.893 L 590.602 443.893 L 590.602 443.893 Q 590.215 444.303 589.547 444.303 L 589.547 444.303 L 589.547 444.303 Q 588.949 444.303 588.557 443.934 L 588.557 443.934 L 588.557 443.934 Q 588.164 443.564 588.164 442.721 Z  M 599.391 437.178 L 601.336 437.178 L 594.949 454.311 L 593.004 454.311 L 599.391 437.178 Z  M 608.203 437.178 L 610.148 437.178 L 603.762 454.311 L 601.816 454.311 L 608.203 437.178 Z  M 612.316 441.467 L 614.285 441.467 L 614.285 449.799 L 614.285 449.799 Q 614.285 451.369 615 452.143 L 615 452.143 L 615 452.143 Q 615.715 452.916 617.238 452.916 L 617.238 452.916 L 617.238 452.916 Q 619.254 452.916 620.186 451.814 L 620.186 451.814 L 620.186 451.814 Q 621.117 450.713 621.117 448.217 L 621.117 448.217 L 621.117 441.467 L 623.063 441.467 L 623.063 454.311 L 621.457 454.311 L 621.176 452.588 L 621.07 452.588 L 621.07 452.588 Q 620.473 453.537 619.412 454.041 L 619.412 454.041 L 619.412 454.041 Q 618.352 454.545 616.992 454.545 L 616.992 454.545 L 616.992 454.545 Q 614.648 454.545 613.482 453.432 L 613.482 453.432 L 613.482 453.432 Q 612.316 452.318 612.316 449.869 L 612.316 449.869 L 612.316 441.467 Z  M 637.922 454.311 L 635.977 454.311 L 635.977 446.002 L 635.977 446.002 Q 635.977 444.432 635.262 443.658 L 635.262 443.658 L 635.262 443.658 Q 634.547 442.885 633.023 442.885 L 633.023 442.885 L 633.023 442.885 Q 631.008 442.885 630.07 443.975 L 630.07 443.975 L 630.07 443.975 Q 629.133 445.064 629.133 447.572 L 629.133 447.572 L 629.133 454.311 L 627.188 454.311 L 627.188 441.467 L 628.77 441.467 L 629.086 443.225 L 629.18 443.225 L 629.18 443.225 Q 629.777 442.275 630.855 441.754 L 630.855 441.754 L 630.855 441.754 Q 631.934 441.232 633.258 441.232 L 633.258 441.232 L 633.258 441.232 Q 635.578 441.232 636.75 442.352 L 636.75 442.352 L 636.75 442.352 Q 637.922 443.471 637.922 445.932 L 637.922 445.932 L 637.922 454.311 Z  M 643.863 441.467 L 643.863 454.311 L 641.918 454.311 L 641.918 441.467 L 643.863 441.467 Z  M 641.754 437.986 L 641.754 437.986 L 641.754 437.986 Q 641.754 437.318 642.082 437.008 L 642.082 437.008 L 642.082 437.008 Q 642.41 436.697 642.902 436.697 L 642.902 436.697 L 642.902 436.697 Q 643.371 436.697 643.711 437.014 L 643.711 437.014 L 643.711 437.014 Q 644.051 437.33 644.051 437.986 L 644.051 437.986 L 644.051 437.986 Q 644.051 438.643 643.711 438.965 L 643.711 438.965 L 643.711 438.965 Q 643.371 439.287 642.902 439.287 L 642.902 439.287 L 642.902 439.287 Q 642.41 439.287 642.082 438.965 L 642.082 438.965 L 642.082 438.965 Q 641.754 438.643 641.754 437.986 Z  M 652.137 452.939 L 652.137 452.939 L 652.137 452.939 Q 652.652 452.939 653.133 452.863 L 653.133 452.863 L 653.133 452.863 Q 653.613 452.787 653.895 452.705 L 653.895 452.705 L 653.895 454.193 L 653.895 454.193 Q 653.578 454.346 652.963 454.445 L 652.963 454.445 L 652.963 454.445 Q 652.348 454.545 651.855 454.545 L 651.855 454.545 L 651.855 454.545 Q 648.129 454.545 648.129 450.619 L 648.129 450.619 L 648.129 442.979 L 646.289 442.979 L 646.289 442.041 L 648.129 441.232 L 648.949 438.49 L 650.074 438.49 L 650.074 441.467 L 653.801 441.467 L 653.801 442.979 L 650.074 442.979 L 650.074 450.537 L 650.074 450.537 Q 650.074 451.697 650.625 452.318 L 650.625 452.318 L 650.625 452.318 Q 651.176 452.939 652.137 452.939 Z  M 661.887 454.545 L 661.887 454.545 L 661.887 454.545 Q 659.039 454.545 657.393 452.811 L 657.393 452.811 L 657.393 452.811 Q 655.746 451.076 655.746 447.994 L 655.746 447.994 L 655.746 447.994 Q 655.746 444.889 657.275 443.061 L 657.275 443.061 L 657.275 443.061 Q 658.805 441.232 661.383 441.232 L 661.383 441.232 L 661.383 441.232 Q 663.797 441.232 665.203 442.82 L 665.203 442.82 L 665.203 442.82 Q 666.609 444.408 666.609 447.01 L 666.609 447.01 L 666.609 448.24 L 657.762 448.24 L 657.762 448.24 Q 657.82 450.502 658.904 451.674 L 658.904 451.674 L 658.904 451.674 Q 659.988 452.846 661.957 452.846 L 661.957 452.846 L 661.957 452.846 Q 664.031 452.846 666.059 451.979 L 666.059 451.979 L 666.059 453.713 L 666.059 453.713 Q 665.027 454.158 664.107 454.352 L 664.107 454.352 L 664.107 454.352 Q 663.188 454.545 661.887 454.545 Z  M 661.359 442.861 L 661.359 442.861 L 661.359 442.861 Q 659.813 442.861 658.893 443.869 L 658.893 443.869 L 658.893 443.869 Q 657.973 444.877 657.809 446.658 L 657.809 446.658 L 664.523 446.658 L 664.523 446.658 Q 664.523 444.818 663.703 443.84 L 663.703 443.84 L 663.703 443.84 Q 662.883 442.861 661.359 442.861 Z  M 668.367 460.076 L 668.367 460.076 L 668.367 460.076 Q 667.254 460.076 666.563 459.783 L 666.563 459.783 L 666.563 458.201 L 666.563 458.201 Q 667.371 458.436 668.156 458.436 L 668.156 458.436 L 668.156 458.436 Q 669.07 458.436 669.498 457.938 L 669.498 457.938 L 669.498 457.938 Q 669.926 457.439 669.926 456.42 L 669.926 456.42 L 669.926 441.467 L 671.871 441.467 L 671.871 456.279 L 671.871 456.279 Q 671.871 460.076 668.367 460.076 Z  M 669.762 437.986 L 669.762 437.986 L 669.762 437.986 Q 669.762 437.318 670.09 437.008 L 670.09 437.008 L 670.09 437.008 Q 670.418 436.697 670.91 436.697 L 670.91 436.697 L 670.91 436.697 Q 671.379 436.697 671.719 437.014 L 671.719 437.014 L 671.719 437.014 Q 672.059 437.33 672.059 437.986 L 672.059 437.986 L 672.059 437.986 Q 672.059 438.643 671.719 438.965 L 671.719 438.965 L 671.719 438.965 Q 671.379 439.287 670.91 439.287 L 670.91 439.287 L 670.91 439.287 Q 670.418 439.287 670.09 438.965 L 670.09 438.965 L 670.09 438.965 Q 669.762 438.643 669.762 437.986 Z  M 684.281 450.807 L 684.281 450.807 L 684.281 450.807 Q 684.281 452.6 682.945 453.572 L 682.945 453.572 L 682.945 453.572 Q 681.609 454.545 679.195 454.545 L 679.195 454.545 L 679.195 454.545 Q 676.641 454.545 675.211 453.736 L 675.211 453.736 L 675.211 451.932 L 675.211 451.932 Q 676.137 452.4 677.197 452.67 L 677.197 452.67 L 677.197 452.67 Q 678.258 452.939 679.242 452.939 L 679.242 452.939 L 679.242 452.939 Q 680.766 452.939 681.586 452.453 L 681.586 452.453 L 681.586 452.453 Q 682.406 451.967 682.406 450.971 L 682.406 450.971 L 682.406 450.971 Q 682.406 450.221 681.756 449.688 L 681.756 449.688 L 681.756 449.688 Q 681.105 449.154 679.219 448.428 L 679.219 448.428 L 679.219 448.428 Q 677.426 447.76 676.67 447.262 L 676.67 447.262 L 676.67 447.262 Q 675.914 446.764 675.545 446.131 L 675.545 446.131 L 675.545 446.131 Q 675.176 445.498 675.176 444.619 L 675.176 444.619 L 675.176 444.619 Q 675.176 443.049 676.453 442.141 L 676.453 442.141 L 676.453 442.141 Q 677.73 441.232 679.957 441.232 L 679.957 441.232 L 679.957 441.232 Q 682.031 441.232 684.012 442.076 L 684.012 442.076 L 683.32 443.658 L 683.32 443.658 Q 681.387 442.861 679.816 442.861 L 679.816 442.861 L 679.816 442.861 Q 678.434 442.861 677.73 443.295 L 677.73 443.295 L 677.73 443.295 Q 677.027 443.729 677.027 444.49 L 677.027 444.49 L 677.027 444.49 Q 677.027 445.006 677.291 445.369 L 677.291 445.369 L 677.291 445.369 Q 677.555 445.732 678.141 446.061 L 678.141 446.061 L 678.141 446.061 Q 678.727 446.389 680.391 447.01 L 680.391 447.01 L 680.391 447.01 Q 682.676 447.842 683.479 448.686 L 683.479 448.686 L 683.479 448.686 Q 684.281 449.529 684.281 450.807 Z  M 687.164 453.068 L 687.164 453.068 L 687.164 453.068 Q 687.164 452.283 687.521 451.879 L 687.521 451.879 L 687.521 451.879 Q 687.879 451.475 688.547 451.475 L 688.547 451.475 L 688.547 451.475 Q 689.227 451.475 689.607 451.879 L 689.607 451.879 L 689.607 451.879 Q 689.988 452.283 689.988 453.068 L 689.988 453.068 L 689.988 453.068 Q 689.988 453.83 689.602 454.24 L 689.602 454.24 L 689.602 454.24 Q 689.215 454.65 688.547 454.65 L 688.547 454.65 L 688.547 454.65 Q 687.949 454.65 687.557 454.281 L 687.557 454.281 L 687.557 454.281 Q 687.164 453.912 687.164 453.068 Z  M 698.965 454.545 L 698.965 454.545 L 698.965 454.545 Q 696.176 454.545 694.646 452.828 L 694.646 452.828 L 694.646 452.828 Q 693.117 451.111 693.117 447.971 L 693.117 447.971 L 693.117 447.971 Q 693.117 444.748 694.67 442.99 L 694.67 442.99 L 694.67 442.99 Q 696.223 441.232 699.094 441.232 L 699.094 441.232 L 699.094 441.232 Q 700.02 441.232 700.945 441.432 L 700.945 441.432 L 700.945 441.432 Q 701.871 441.631 702.398 441.9 L 702.398 441.9 L 701.801 443.553 L 701.801 443.553 Q 701.156 443.295 700.395 443.125 L 700.395 443.125 L 700.395 443.125 Q 699.633 442.955 699.047 442.955 L 699.047 442.955 L 699.047 442.955 Q 695.133 442.955 695.133 447.947 L 695.133 447.947 L 695.133 447.947 Q 695.133 450.314 696.088 451.58 L 696.088 451.58 L 696.088 451.58 Q 697.043 452.846 698.918 452.846 L 698.918 452.846 L 698.918 452.846 Q 700.523 452.846 702.211 452.154 L 702.211 452.154 L 702.211 453.877 L 702.211 453.877 Q 700.922 454.545 698.965 454.545 Z  M 716.344 447.877 L 716.344 447.877 L 716.344 447.877 Q 716.344 451.018 714.762 452.781 L 714.762 452.781 L 714.762 452.781 Q 713.18 454.545 710.391 454.545 L 710.391 454.545 L 710.391 454.545 Q 708.668 454.545 707.332 453.736 L 707.332 453.736 L 707.332 453.736 Q 705.996 452.928 705.27 451.416 L 705.27 451.416 L 705.27 451.416 Q 704.543 449.904 704.543 447.877 L 704.543 447.877 L 704.543 447.877 Q 704.543 444.736 706.113 442.984 L 706.113 442.984 L 706.113 442.984 Q 707.684 441.232 710.473 441.232 L 710.473 441.232 L 710.473 441.232 Q 713.168 441.232 714.756 443.025 L 714.756 443.025 L 714.756 443.025 Q 716.344 444.818 716.344 447.877 Z  M 706.559 447.877 L 706.559 447.877 L 706.559 447.877 Q 706.559 450.338 707.543 451.627 L 707.543 451.627 L 707.543 451.627 Q 708.527 452.916 710.438 452.916 L 710.438 452.916 L 710.438 452.916 Q 712.348 452.916 713.338 451.633 L 713.338 451.633 L 713.338 451.633 Q 714.328 450.35 714.328 447.877 L 714.328 447.877 L 714.328 447.877 Q 714.328 445.428 713.338 444.156 L 713.338 444.156 L 713.338 444.156 Q 712.348 442.885 710.414 442.885 L 710.414 442.885 L 710.414 442.885 Q 708.504 442.885 707.531 444.139 L 707.531 444.139 L 707.531 444.139 Q 706.559 445.393 706.559 447.877 Z  M 738.07 454.311 L 736.125 454.311 L 736.125 445.955 L 736.125 445.955 Q 736.125 444.42 735.469 443.652 L 735.469 443.652 L 735.469 443.652 Q 734.813 442.885 733.43 442.885 L 733.43 442.885 L 733.43 442.885 Q 731.613 442.885 730.746 443.928 L 730.746 443.928 L 730.746 443.928 Q 729.879 444.971 729.879 447.139 L 729.879 447.139 L 729.879 454.311 L 727.934 454.311 L 727.934 445.955 L 727.934 445.955 Q 727.934 444.42 727.277 443.652 L 727.277 443.652 L 727.277 443.652 Q 726.621 442.885 725.227 442.885 L 725.227 442.885 L 725.227 442.885 Q 723.398 442.885 722.549 443.98 L 722.549 443.98 L 722.549 443.98 Q 721.699 445.076 721.699 447.572 L 721.699 447.572 L 721.699 454.311 L 719.754 454.311 L 719.754 441.467 L 721.336 441.467 L 721.652 443.225 L 721.746 443.225 L 721.746 443.225 Q 722.297 442.287 723.299 441.76 L 723.299 441.76 L 723.299 441.76 Q 724.301 441.232 725.543 441.232 L 725.543 441.232 L 725.543 441.232 Q 728.555 441.232 729.48 443.412 L 729.48 443.412 L 729.574 443.412 L 729.574 443.412 Q 730.148 442.404 731.238 441.818 L 731.238 441.818 L 731.238 441.818 Q 732.328 441.232 733.723 441.232 L 733.723 441.232 L 733.723 441.232 Q 735.902 441.232 736.986 442.352 L 736.986 442.352 L 736.986 442.352 Q 738.07 443.471 738.07 445.932 L 738.07 445.932 L 738.07 454.311 Z " fill-rule="evenodd" fill="rgb(255,255,255)"/><path d=" M 550.336 170.467 L 550.336 194.479 L 548.525 194.479 L 548.525 170.467 L 540.176 170.467 L 540.176 168.779 L 558.686 168.779 L 558.686 170.467 L 550.336 170.467 Z  M 577.107 194.479 L 575.385 194.479 L 575.385 182.086 L 575.385 182.086 Q 575.385 179.203 574.172 177.894 L 574.172 177.894 L 574.172 177.894 Q 572.959 176.584 570.41 176.584 L 570.41 176.584 L 570.41 176.584 Q 566.982 176.584 565.392 178.315 L 565.392 178.315 L 565.392 178.315 Q 563.801 180.047 563.801 183.932 L 563.801 183.932 L 563.801 194.479 L 562.061 194.479 L 562.061 167.127 L 563.801 167.127 L 563.801 175.828 L 563.713 178.271 L 563.836 178.271 L 563.836 178.271 Q 564.908 176.549 566.543 175.775 L 566.543 175.775 L 566.543 175.775 Q 568.178 175.002 570.604 175.002 L 570.604 175.002 L 570.604 175.002 Q 577.107 175.002 577.107 181.98 L 577.107 181.98 L 577.107 194.479 Z  M 591.012 194.83 L 591.012 194.83 L 591.012 194.83 Q 586.846 194.83 584.517 192.264 L 584.517 192.264 L 584.517 192.264 Q 582.188 189.697 582.188 185.074 L 582.188 185.074 L 582.188 185.074 Q 582.188 180.504 584.438 177.753 L 584.438 177.753 L 584.438 177.753 Q 586.688 175.002 590.502 175.002 L 590.502 175.002 L 590.502 175.002 Q 593.877 175.002 595.828 177.357 L 595.828 177.357 L 595.828 177.357 Q 597.779 179.713 597.779 183.756 L 597.779 183.756 L 597.779 185.162 L 584.016 185.162 L 584.016 185.162 Q 584.051 189.1 585.853 191.174 L 585.853 191.174 L 585.853 191.174 Q 587.654 193.248 591.012 193.248 L 591.012 193.248 L 591.012 193.248 Q 592.646 193.248 593.886 193.02 L 593.886 193.02 L 593.886 193.02 Q 595.125 192.791 597.023 192.035 L 597.023 192.035 L 597.023 193.617 L 597.023 193.617 Q 595.406 194.32 594.035 194.575 L 594.035 194.575 L 594.035 194.575 Q 592.664 194.83 591.012 194.83 Z  M 590.502 176.549 L 590.502 176.549 L 590.502 176.549 Q 587.742 176.549 586.072 178.368 L 586.072 178.368 L 586.072 178.368 Q 584.402 180.188 584.121 183.615 L 584.121 183.615 L 595.934 183.615 L 595.934 183.615 Q 595.934 180.293 594.492 178.421 L 594.492 178.421 L 594.492 178.421 Q 593.051 176.549 590.502 176.549 Z  M 624.287 192.932 L 624.287 194.479 L 610.646 194.479 L 610.646 193.371 L 621.984 176.918 L 611.473 176.918 L 611.473 175.371 L 624.252 175.371 L 624.252 176.479 L 612.844 192.932 L 624.287 192.932 Z  M 636.715 194.83 L 636.715 194.83 L 636.715 194.83 Q 632.549 194.83 630.22 192.264 L 630.22 192.264 L 630.22 192.264 Q 627.891 189.697 627.891 185.074 L 627.891 185.074 L 627.891 185.074 Q 627.891 180.504 630.141 177.753 L 630.141 177.753 L 630.141 177.753 Q 632.391 175.002 636.205 175.002 L 636.205 175.002 L 636.205 175.002 Q 639.58 175.002 641.531 177.357 L 641.531 177.357 L 641.531 177.357 Q 643.482 179.713 643.482 183.756 L 643.482 183.756 L 643.482 185.162 L 629.719 185.162 L 629.719 185.162 Q 629.754 189.1 631.556 191.174 L 631.556 191.174 L 631.556 191.174 Q 633.357 193.248 636.715 193.248 L 636.715 193.248 L 636.715 193.248 Q 638.35 193.248 639.589 193.02 L 639.589 193.02 L 639.589 193.02 Q 640.828 192.791 642.727 192.035 L 642.727 192.035 L 642.727 193.617 L 642.727 193.617 Q 641.109 194.32 639.738 194.575 L 639.738 194.575 L 639.738 194.575 Q 638.367 194.83 636.715 194.83 Z  M 636.205 176.549 L 636.205 176.549 L 636.205 176.549 Q 633.445 176.549 631.775 178.368 L 631.775 178.368 L 631.775 178.368 Q 630.105 180.188 629.824 183.615 L 629.824 183.615 L 641.637 183.615 L 641.637 183.615 Q 641.637 180.293 640.195 178.421 L 640.195 178.421 L 640.195 178.421 Q 638.754 176.549 636.205 176.549 Z  M 656.279 175.002 L 656.279 175.002 L 656.279 175.002 Q 657.492 175.002 658.881 175.248 L 658.881 175.248 L 658.547 176.918 L 658.547 176.918 Q 657.352 176.619 656.068 176.619 L 656.068 176.619 L 656.068 176.619 Q 653.625 176.619 652.061 178.693 L 652.061 178.693 L 652.061 178.693 Q 650.496 180.768 650.496 183.932 L 650.496 183.932 L 650.496 194.479 L 648.756 194.479 L 648.756 175.371 L 650.232 175.371 L 650.408 178.816 L 650.531 178.816 L 650.531 178.816 Q 651.709 176.707 653.045 175.854 L 653.045 175.854 L 653.045 175.854 Q 654.381 175.002 656.279 175.002 Z  M 678.568 184.898 L 678.568 184.898 L 678.568 184.898 Q 678.568 189.574 676.301 192.202 L 676.301 192.202 L 676.301 192.202 Q 674.033 194.83 670.043 194.83 L 670.043 194.83 L 670.043 194.83 Q 667.529 194.83 665.613 193.617 L 665.613 193.617 L 665.613 193.617 Q 663.697 192.404 662.678 190.137 L 662.678 190.137 L 662.678 190.137 Q 661.658 187.869 661.658 184.898 L 661.658 184.898 L 661.658 184.898 Q 661.658 180.223 663.926 177.612 L 663.926 177.612 L 663.926 177.612 Q 666.193 175.002 670.148 175.002 L 670.148 175.002 L 670.148 175.002 Q 674.086 175.002 676.327 177.647 L 676.327 177.647 L 676.327 177.647 Q 678.568 180.293 678.568 184.898 Z  M 663.486 184.898 L 663.486 184.898 L 663.486 184.898 Q 663.486 188.836 665.218 191.042 L 665.218 191.042 L 665.218 191.042 Q 666.949 193.248 670.113 193.248 L 670.113 193.248 L 670.113 193.248 Q 673.277 193.248 675.009 191.042 L 675.009 191.042 L 675.009 191.042 Q 676.74 188.836 676.74 184.898 L 676.74 184.898 L 676.74 184.898 Q 676.74 180.943 674.991 178.764 L 674.991 178.764 L 674.991 178.764 Q 673.242 176.584 670.078 176.584 L 670.078 176.584 L 670.078 176.584 Q 666.914 176.584 665.2 178.755 L 665.2 178.755 L 665.2 178.755 Q 663.486 180.926 663.486 184.898 Z  M 700.84 194.83 L 700.84 194.83 L 700.84 194.83 Q 696.744 194.83 694.424 192.246 L 694.424 192.246 L 694.424 192.246 Q 692.104 189.662 692.104 185.039 L 692.104 185.039 L 692.104 185.039 Q 692.104 180.293 694.512 177.647 L 694.512 177.647 L 694.512 177.647 Q 696.92 175.002 701.104 175.002 L 701.104 175.002 L 701.104 175.002 Q 703.582 175.002 705.85 175.863 L 705.85 175.863 L 705.375 177.41 L 705.375 177.41 Q 702.896 176.584 701.068 176.584 L 701.068 176.584 L 701.068 176.584 Q 697.553 176.584 695.742 178.755 L 695.742 178.755 L 695.742 178.755 Q 693.932 180.926 693.932 185.004 L 693.932 185.004 L 693.932 185.004 Q 693.932 188.871 695.742 191.06 L 695.742 191.06 L 695.742 191.06 Q 697.553 193.248 700.805 193.248 L 700.805 193.248 L 700.805 193.248 Q 703.406 193.248 705.639 192.316 L 705.639 192.316 L 705.639 193.934 L 705.639 193.934 Q 703.811 194.83 700.84 194.83 Z  M 726.117 184.898 L 726.117 184.898 L 726.117 184.898 Q 726.117 189.574 723.85 192.202 L 723.85 192.202 L 723.85 192.202 Q 721.582 194.83 717.592 194.83 L 717.592 194.83 L 717.592 194.83 Q 715.078 194.83 713.162 193.617 L 713.162 193.617 L 713.162 193.617 Q 711.246 192.404 710.227 190.137 L 710.227 190.137 L 710.227 190.137 Q 709.207 187.869 709.207 184.898 L 709.207 184.898 L 709.207 184.898 Q 709.207 180.223 711.475 177.612 L 711.475 177.612 L 711.475 177.612 Q 713.742 175.002 717.697 175.002 L 717.697 175.002 L 717.697 175.002 Q 721.635 175.002 723.876 177.647 L 723.876 177.647 L 723.876 177.647 Q 726.117 180.293 726.117 184.898 Z  M 711.035 184.898 L 711.035 184.898 L 711.035 184.898 Q 711.035 188.836 712.767 191.042 L 712.767 191.042 L 712.767 191.042 Q 714.498 193.248 717.662 193.248 L 717.662 193.248 L 717.662 193.248 Q 720.826 193.248 722.558 191.042 L 722.558 191.042 L 722.558 191.042 Q 724.289 188.836 724.289 184.898 L 724.289 184.898 L 724.289 184.898 Q 724.289 180.943 722.54 178.764 L 722.54 178.764 L 722.54 178.764 Q 720.791 176.584 717.627 176.584 L 717.627 176.584 L 717.627 176.584 Q 714.463 176.584 712.749 178.755 L 712.749 178.755 L 712.749 178.755 Q 711.035 180.926 711.035 184.898 Z  M 746.455 194.479 L 744.732 194.479 L 744.732 182.086 L 744.732 182.086 Q 744.732 179.203 743.52 177.894 L 743.52 177.894 L 743.52 177.894 Q 742.307 176.584 739.758 176.584 L 739.758 176.584 L 739.758 176.584 Q 736.33 176.584 734.739 178.315 L 734.739 178.315 L 734.739 178.315 Q 733.148 180.047 733.148 183.932 L 733.148 183.932 L 733.148 194.479 L 731.408 194.479 L 731.408 175.371 L 732.885 175.371 L 733.219 177.99 L 733.324 177.99 L 733.324 177.99 Q 735.188 175.002 739.951 175.002 L 739.951 175.002 L 739.951 175.002 Q 746.455 175.002 746.455 181.98 L 746.455 181.98 L 746.455 194.479 Z  M 759.744 175.371 L 759.744 176.883 L 755.244 176.883 L 755.244 194.479 L 753.504 194.479 L 753.504 176.883 L 749.953 176.883 L 749.953 175.863 L 753.504 175.213 L 753.504 173.736 L 753.504 173.736 Q 753.504 170.221 754.796 168.577 L 754.796 168.577 L 754.796 168.577 Q 756.088 166.934 759.023 166.934 L 759.023 166.934 L 759.023 166.934 Q 760.605 166.934 762.188 167.408 L 762.188 167.408 L 761.783 168.92 L 761.783 168.92 Q 760.377 168.48 758.988 168.48 L 758.988 168.48 L 758.988 168.48 Q 756.949 168.48 756.097 169.685 L 756.097 169.685 L 756.097 169.685 Q 755.244 170.889 755.244 173.596 L 755.244 173.596 L 755.244 175.371 L 759.744 175.371 Z  M 765.176 175.371 L 765.176 194.479 L 763.436 194.479 L 763.436 175.371 L 765.176 175.371 Z  M 763.189 170.063 L 763.189 170.063 L 763.189 170.063 Q 763.189 168.375 764.297 168.375 L 764.297 168.375 L 764.297 168.375 Q 764.842 168.375 765.149 168.814 L 765.149 168.814 L 765.149 168.814 Q 765.457 169.254 765.457 170.063 L 765.457 170.063 L 765.457 170.063 Q 765.457 170.854 765.149 171.311 L 765.149 171.311 L 765.149 171.311 Q 764.842 171.768 764.297 171.768 L 764.297 171.768 L 764.297 171.768 Q 763.189 171.768 763.189 170.063 Z  M 780.363 175.371 L 786.48 175.371 L 786.48 176.584 L 782.525 176.83 L 782.525 176.83 Q 784.107 178.799 784.107 181.154 L 784.107 181.154 L 784.107 181.154 Q 784.107 183.914 782.271 185.628 L 782.271 185.628 L 782.271 185.628 Q 780.434 187.342 777.34 187.342 L 777.34 187.342 L 777.34 187.342 Q 776.039 187.342 775.512 187.236 L 775.512 187.236 L 775.512 187.236 Q 774.475 187.781 773.93 188.52 L 773.93 188.52 L 773.93 188.52 Q 773.385 189.258 773.385 190.084 L 773.385 190.084 L 773.385 190.084 Q 773.385 190.998 774.079 191.42 L 774.079 191.42 L 774.079 191.42 Q 774.773 191.842 776.408 191.842 L 776.408 191.842 L 779.748 191.842 L 779.748 191.842 Q 782.859 191.842 784.512 193.099 L 784.512 193.099 L 784.512 193.099 Q 786.164 194.355 786.164 196.816 L 786.164 196.816 L 786.164 196.816 Q 786.164 199.84 783.712 201.483 L 783.712 201.483 L 783.712 201.483 Q 781.26 203.127 776.725 203.127 L 776.725 203.127 L 776.725 203.127 Q 773.121 203.127 771.144 201.738 L 771.144 201.738 L 771.144 201.738 Q 769.166 200.35 769.166 197.871 L 769.166 197.871 L 769.166 197.871 Q 769.166 195.902 770.388 194.602 L 770.388 194.602 L 770.388 194.602 Q 771.609 193.301 773.701 192.826 L 773.701 192.826 L 773.701 192.826 Q 772.84 192.457 772.321 191.78 L 772.321 191.78 L 772.321 191.78 Q 771.803 191.104 771.803 190.225 L 771.803 190.225 L 771.803 190.225 Q 771.803 188.309 774.246 186.85 L 774.246 186.85 L 774.246 186.85 Q 772.576 186.164 771.645 184.696 L 771.645 184.696 L 771.645 184.696 Q 770.713 183.229 770.713 181.33 L 770.713 181.33 L 770.713 181.33 Q 770.713 178.465 772.532 176.733 L 772.532 176.733 L 772.532 176.733 Q 774.352 175.002 777.445 175.002 L 777.445 175.002 L 777.445 175.002 Q 779.326 175.002 780.363 175.371 L 780.363 175.371 Z  M 771.012 197.713 L 771.012 197.713 L 771.012 197.713 Q 771.012 201.65 776.865 201.65 L 776.865 201.65 L 776.865 201.65 Q 784.389 201.65 784.389 196.852 L 784.389 196.852 L 784.389 196.852 Q 784.389 195.129 783.211 194.355 L 783.211 194.355 L 783.211 194.355 Q 782.033 193.582 779.396 193.582 L 779.396 193.582 L 776.268 193.582 L 776.268 193.582 Q 771.012 193.582 771.012 197.713 Z  M 772.471 181.33 L 772.471 181.33 L 772.471 181.33 Q 772.471 183.545 773.815 184.767 L 773.815 184.767 L 773.815 184.767 Q 775.16 185.988 777.41 185.988 L 777.41 185.988 L 777.41 185.988 Q 779.801 185.988 781.075 184.775 L 781.075 184.775 L 781.075 184.775 Q 782.35 183.563 782.35 181.26 L 782.35 181.26 L 782.35 181.26 Q 782.35 178.816 781.04 177.595 L 781.04 177.595 L 781.04 177.595 Q 779.73 176.373 777.375 176.373 L 777.375 176.373 L 777.375 176.373 Q 775.09 176.373 773.78 177.683 L 773.78 177.683 L 773.78 177.683 Q 772.471 178.992 772.471 181.33 Z  M 790.189 175.371 L 791.912 175.371 L 791.912 187.746 L 791.912 187.746 Q 791.912 190.629 793.125 191.938 L 793.125 191.938 L 793.125 191.938 Q 794.338 193.248 796.887 193.248 L 796.887 193.248 L 796.887 193.248 Q 800.297 193.248 801.905 191.525 L 801.905 191.525 L 801.905 191.525 Q 803.514 189.803 803.514 185.918 L 803.514 185.918 L 803.514 175.371 L 805.236 175.371 L 805.236 194.479 L 803.76 194.479 L 803.443 191.842 L 803.338 191.842 L 803.338 191.842 Q 801.475 194.83 796.711 194.83 L 796.711 194.83 L 796.711 194.83 Q 790.189 194.83 790.189 187.852 L 790.189 187.852 L 790.189 175.371 Z  M 819.158 175.002 L 819.158 175.002 L 819.158 175.002 Q 820.371 175.002 821.76 175.248 L 821.76 175.248 L 821.426 176.918 L 821.426 176.918 Q 820.23 176.619 818.947 176.619 L 818.947 176.619 L 818.947 176.619 Q 816.504 176.619 814.939 178.693 L 814.939 178.693 L 814.939 178.693 Q 813.375 180.768 813.375 183.932 L 813.375 183.932 L 813.375 194.479 L 811.635 194.479 L 811.635 175.371 L 813.111 175.371 L 813.287 178.816 L 813.41 178.816 L 813.41 178.816 Q 814.588 176.707 815.924 175.854 L 815.924 175.854 L 815.924 175.854 Q 817.26 175.002 819.158 175.002 Z  M 838.529 194.479 L 837.246 194.479 L 836.807 191.455 L 836.666 191.455 L 836.666 191.455 Q 835.225 193.301 833.704 194.065 L 833.704 194.065 L 833.704 194.065 Q 832.184 194.83 830.109 194.83 L 830.109 194.83 L 830.109 194.83 Q 827.297 194.83 825.732 193.389 L 825.732 193.389 L 825.732 193.389 Q 824.168 191.947 824.168 189.398 L 824.168 189.398 L 824.168 189.398 Q 824.168 186.604 826.497 185.057 L 826.497 185.057 L 826.497 185.057 Q 828.826 183.51 833.238 183.422 L 833.238 183.422 L 836.877 183.316 L 836.877 182.051 L 836.877 182.051 Q 836.877 179.326 835.77 177.938 L 835.77 177.938 L 835.77 177.938 Q 834.662 176.549 832.201 176.549 L 832.201 176.549 L 832.201 176.549 Q 829.547 176.549 826.699 178.025 L 826.699 178.025 L 826.049 176.514 L 826.049 176.514 Q 829.195 175.037 832.271 175.037 L 832.271 175.037 L 832.271 175.037 Q 835.418 175.037 836.974 176.672 L 836.974 176.672 L 836.974 176.672 Q 838.529 178.307 838.529 181.77 L 838.529 181.77 L 838.529 194.479 Z  M 830.215 193.248 L 830.215 193.248 L 830.215 193.248 Q 833.273 193.248 835.04 191.499 L 835.04 191.499 L 835.04 191.499 Q 836.807 189.75 836.807 186.639 L 836.807 186.639 L 836.807 184.758 L 833.467 184.898 L 833.467 184.898 Q 829.441 185.092 827.728 186.155 L 827.728 186.155 L 827.728 186.155 Q 826.014 187.219 826.014 189.469 L 826.014 189.469 L 826.014 189.469 Q 826.014 191.262 827.112 192.255 L 827.112 192.255 L 827.112 192.255 Q 828.211 193.248 830.215 193.248 Z  M 849.762 193.283 L 849.762 193.283 L 849.762 193.283 Q 851.414 193.283 852.645 193.002 L 852.645 193.002 L 852.645 194.408 L 852.645 194.408 Q 851.379 194.83 849.727 194.83 L 849.727 194.83 L 849.727 194.83 Q 847.195 194.83 845.991 193.477 L 845.991 193.477 L 845.991 193.477 Q 844.787 192.123 844.787 189.223 L 844.787 189.223 L 844.787 176.883 L 841.957 176.883 L 841.957 175.863 L 844.787 175.072 L 845.666 170.748 L 846.563 170.748 L 846.563 175.371 L 852.17 175.371 L 852.17 176.883 L 846.563 176.883 L 846.563 188.977 L 846.563 188.977 Q 846.563 191.174 847.336 192.229 L 847.336 192.229 L 847.336 192.229 Q 848.109 193.283 849.762 193.283 Z  M 858.516 175.371 L 858.516 194.479 L 856.775 194.479 L 856.775 175.371 L 858.516 175.371 Z  M 856.529 170.063 L 856.529 170.063 L 856.529 170.063 Q 856.529 168.375 857.637 168.375 L 857.637 168.375 L 857.637 168.375 Q 858.182 168.375 858.489 168.814 L 858.489 168.814 L 858.489 168.814 Q 858.797 169.254 858.797 170.063 L 858.797 170.063 L 858.797 170.063 Q 858.797 170.854 858.489 171.311 L 858.489 171.311 L 858.489 171.311 Q 858.182 171.768 857.637 171.768 L 857.637 171.768 L 857.637 171.768 Q 856.529 171.768 856.529 170.063 Z  M 880.717 184.898 L 880.717 184.898 L 880.717 184.898 Q 880.717 189.574 878.449 192.202 L 878.449 192.202 L 878.449 192.202 Q 876.182 194.83 872.191 194.83 L 872.191 194.83 L 872.191 194.83 Q 869.678 194.83 867.762 193.617 L 867.762 193.617 L 867.762 193.617 Q 865.846 192.404 864.826 190.137 L 864.826 190.137 L 864.826 190.137 Q 863.807 187.869 863.807 184.898 L 863.807 184.898 L 863.807 184.898 Q 863.807 180.223 866.074 177.612 L 866.074 177.612 L 866.074 177.612 Q 868.342 175.002 872.297 175.002 L 872.297 175.002 L 872.297 175.002 Q 876.234 175.002 878.476 177.647 L 878.476 177.647 L 878.476 177.647 Q 880.717 180.293 880.717 184.898 Z  M 865.635 184.898 L 865.635 184.898 L 865.635 184.898 Q 865.635 188.836 867.366 191.042 L 867.366 191.042 L 867.366 191.042 Q 869.098 193.248 872.262 193.248 L 872.262 193.248 L 872.262 193.248 Q 875.426 193.248 877.157 191.042 L 877.157 191.042 L 877.157 191.042 Q 878.889 188.836 878.889 184.898 L 878.889 184.898 L 878.889 184.898 Q 878.889 180.943 877.14 178.764 L 877.14 178.764 L 877.14 178.764 Q 875.391 176.584 872.227 176.584 L 872.227 176.584 L 872.227 176.584 Q 869.063 176.584 867.349 178.755 L 867.349 178.755 L 867.349 178.755 Q 865.635 180.926 865.635 184.898 Z  M 901.055 194.479 L 899.332 194.479 L 899.332 182.086 L 899.332 182.086 Q 899.332 179.203 898.119 177.894 L 898.119 177.894 L 898.119 177.894 Q 896.906 176.584 894.357 176.584 L 894.357 176.584 L 894.357 176.584 Q 890.93 176.584 889.339 178.315 L 889.339 178.315 L 889.339 178.315 Q 887.748 180.047 887.748 183.932 L 887.748 183.932 L 887.748 194.479 L 886.008 194.479 L 886.008 175.371 L 887.484 175.371 L 887.818 177.99 L 887.924 177.99 L 887.924 177.99 Q 889.787 175.002 894.551 175.002 L 894.551 175.002 L 894.551 175.002 Q 901.055 175.002 901.055 181.98 L 901.055 181.98 L 901.055 194.479 Z " fill-rule="evenodd" fill="rgb(255,255,255)"/><path d=" M 560.303 259.846 L 558.475 259.846 L 554.291 247.066 L 554.291 247.066 Q 553.887 245.765 553.254 243.252 L 553.254 243.252 L 553.148 243.252 L 552.779 244.553 L 551.988 247.101 L 547.734 259.846 L 546.012 259.846 L 540.545 240.738 L 542.408 240.738 L 545.467 251.812 L 545.467 251.812 Q 546.539 255.926 546.873 257.859 L 546.873 257.859 L 546.979 257.859 L 546.979 257.859 Q 548.016 253.746 548.49 252.392 L 548.49 252.392 L 552.428 240.738 L 554.01 240.738 L 557.754 252.357 L 557.754 252.357 Q 559.02 256.488 559.301 257.824 L 559.301 257.824 L 559.406 257.824 L 559.406 257.824 Q 559.547 256.681 560.813 251.707 L 560.813 251.707 L 563.73 240.738 L 565.488 240.738 L 560.303 259.846 Z  M 576.949 260.197 L 576.949 260.197 L 576.949 260.197 Q 572.783 260.197 570.454 257.631 L 570.454 257.631 L 570.454 257.631 Q 568.125 255.064 568.125 250.441 L 568.125 250.441 L 568.125 250.441 Q 568.125 245.871 570.375 243.12 L 570.375 243.12 L 570.375 243.12 Q 572.625 240.369 576.439 240.369 L 576.439 240.369 L 576.439 240.369 Q 579.814 240.369 581.766 242.724 L 581.766 242.724 L 581.766 242.724 Q 583.717 245.08 583.717 249.123 L 583.717 249.123 L 583.717 250.529 L 569.953 250.529 L 569.953 250.529 Q 569.988 254.467 571.79 256.541 L 571.79 256.541 L 571.79 256.541 Q 573.592 258.615 576.949 258.615 L 576.949 258.615 L 576.949 258.615 Q 578.584 258.615 579.823 258.387 L 579.823 258.387 L 579.823 258.387 Q 581.063 258.158 582.961 257.402 L 582.961 257.402 L 582.961 258.984 L 582.961 258.984 Q 581.344 259.687 579.973 259.942 L 579.973 259.942 L 579.973 259.942 Q 578.602 260.197 576.949 260.197 Z  M 576.439 241.916 L 576.439 241.916 L 576.439 241.916 Q 573.68 241.916 572.01 243.735 L 572.01 243.735 L 572.01 243.735 Q 570.34 245.555 570.059 248.982 L 570.059 248.982 L 581.871 248.982 L 581.871 248.982 Q 581.871 245.66 580.43 243.788 L 580.43 243.788 L 580.43 243.788 Q 578.988 241.916 576.439 241.916 Z  M 597.059 240.369 L 597.059 240.369 L 597.059 240.369 Q 601.066 240.369 603.097 242.891 L 603.097 242.891 L 603.097 242.891 Q 605.127 245.414 605.127 250.265 L 605.127 250.265 L 605.127 250.265 Q 605.127 255.029 602.991 257.613 L 602.991 257.613 L 602.991 257.613 Q 600.855 260.197 596.988 260.197 L 596.988 260.197 L 596.988 260.197 Q 594.949 260.197 593.314 259.353 L 593.314 259.353 L 593.314 259.353 Q 591.68 258.51 590.73 256.963 L 590.73 256.963 L 590.572 256.963 L 590.08 259.846 L 588.99 259.846 L 588.99 232.494 L 590.73 232.494 L 590.73 239.367 L 590.73 239.367 Q 590.73 240.914 590.66 242.215 L 590.66 242.215 L 590.607 243.709 L 590.73 243.709 L 590.73 243.709 Q 591.82 241.986 593.358 241.178 L 593.358 241.178 L 593.358 241.178 Q 594.896 240.369 597.059 240.369 Z  M 597.023 241.951 L 597.023 241.951 L 597.023 241.951 Q 593.648 241.951 592.189 243.885 L 592.189 243.885 L 592.189 243.885 Q 590.73 245.818 590.73 250.265 L 590.73 250.265 L 590.73 250.564 L 590.73 250.564 Q 590.73 254.888 592.251 256.769 L 592.251 256.769 L 592.251 256.769 Q 593.771 258.65 596.988 258.65 L 596.988 258.65 L 596.988 258.65 Q 600.117 258.65 601.699 256.462 L 601.699 256.462 L 601.699 256.462 Q 603.281 254.273 603.281 250.23 L 603.281 250.23 L 603.281 250.23 Q 603.281 241.951 597.023 241.951 Z  M 632.654 259.846 L 631.371 259.846 L 630.932 256.822 L 630.791 256.822 L 630.791 256.822 Q 629.35 258.668 627.829 259.432 L 627.829 259.432 L 627.829 259.432 Q 626.309 260.197 624.234 260.197 L 624.234 260.197 L 624.234 260.197 Q 621.422 260.197 619.857 258.756 L 619.857 258.756 L 619.857 258.756 Q 618.293 257.314 618.293 254.765 L 618.293 254.765 L 618.293 254.765 Q 618.293 251.971 620.622 250.424 L 620.622 250.424 L 620.622 250.424 Q 622.951 248.877 627.363 248.789 L 627.363 248.789 L 631.002 248.683 L 631.002 247.418 L 631.002 247.418 Q 631.002 244.693 629.895 243.305 L 629.895 243.305 L 629.895 243.305 Q 628.787 241.916 626.326 241.916 L 626.326 241.916 L 626.326 241.916 Q 623.672 241.916 620.824 243.392 L 620.824 243.392 L 620.174 241.881 L 620.174 241.881 Q 623.32 240.404 626.396 240.404 L 626.396 240.404 L 626.396 240.404 Q 629.543 240.404 631.099 242.039 L 631.099 242.039 L 631.099 242.039 Q 632.654 243.674 632.654 247.137 L 632.654 247.137 L 632.654 259.846 Z  M 624.34 258.615 L 624.34 258.615 L 624.34 258.615 Q 627.398 258.615 629.165 256.866 L 629.165 256.866 L 629.165 256.866 Q 630.932 255.117 630.932 252.006 L 630.932 252.006 L 630.932 250.125 L 627.592 250.265 L 627.592 250.265 Q 623.566 250.459 621.853 251.522 L 621.853 251.522 L 621.853 251.522 Q 620.139 252.586 620.139 254.836 L 620.139 254.836 L 620.139 254.836 Q 620.139 256.629 621.237 257.622 L 621.237 257.622 L 621.237 257.622 Q 622.336 258.615 624.34 258.615 Z  M 647.016 260.197 L 647.016 260.197 L 647.016 260.197 Q 642.604 260.197 640.582 256.892 L 640.582 256.892 L 640.459 256.892 L 640.512 258.369 L 640.512 258.369 Q 640.582 259.67 640.582 261.217 L 640.582 261.217 L 640.582 268.494 L 638.842 268.494 L 638.842 240.738 L 640.318 240.738 L 640.652 243.463 L 640.758 243.463 L 640.758 243.463 Q 642.727 240.369 647.051 240.369 L 647.051 240.369 L 647.051 240.369 Q 650.918 240.369 652.948 242.909 L 652.948 242.909 L 652.948 242.909 Q 654.979 245.449 654.979 250.301 L 654.979 250.301 L 654.979 250.301 Q 654.979 255.012 652.843 257.604 L 652.843 257.604 L 652.843 257.604 Q 650.707 260.197 647.016 260.197 Z  M 646.98 258.65 L 646.98 258.65 L 646.98 258.65 Q 649.916 258.65 651.524 256.471 L 651.524 256.471 L 651.524 256.471 Q 653.133 254.291 653.133 250.371 L 653.133 250.371 L 653.133 250.371 Q 653.133 241.951 647.051 241.951 L 647.051 241.951 L 647.051 241.951 Q 643.711 241.951 642.146 243.788 L 642.146 243.788 L 642.146 243.788 Q 640.582 245.625 640.582 249.773 L 640.582 249.773 L 640.582 250.336 L 640.582 250.336 Q 640.582 254.818 642.085 256.734 L 642.085 256.734 L 642.085 256.734 Q 643.588 258.65 646.98 258.65 Z  M 668.443 260.197 L 668.443 260.197 L 668.443 260.197 Q 664.031 260.197 662.01 256.892 L 662.01 256.892 L 661.887 256.892 L 661.939 258.369 L 661.939 258.369 Q 662.01 259.67 662.01 261.217 L 662.01 261.217 L 662.01 268.494 L 660.27 268.494 L 660.27 240.738 L 661.746 240.738 L 662.08 243.463 L 662.186 243.463 L 662.186 243.463 Q 664.154 240.369 668.479 240.369 L 668.479 240.369 L 668.479 240.369 Q 672.346 240.369 674.376 242.909 L 674.376 242.909 L 674.376 242.909 Q 676.406 245.449 676.406 250.301 L 676.406 250.301 L 676.406 250.301 Q 676.406 255.012 674.271 257.604 L 674.271 257.604 L 674.271 257.604 Q 672.135 260.197 668.443 260.197 Z  M 668.408 258.65 L 668.408 258.65 L 668.408 258.65 Q 671.344 258.65 672.952 256.471 L 672.952 256.471 L 672.952 256.471 Q 674.561 254.291 674.561 250.371 L 674.561 250.371 L 674.561 250.371 Q 674.561 241.951 668.479 241.951 L 668.479 241.951 L 668.479 241.951 Q 665.139 241.951 663.574 243.788 L 663.574 243.788 L 663.574 243.788 Q 662.01 245.625 662.01 249.773 L 662.01 249.773 L 662.01 250.336 L 662.01 250.336 Q 662.01 254.818 663.513 256.734 L 663.513 256.734 L 663.513 256.734 Q 665.016 258.65 668.408 258.65 Z  M 683.438 232.494 L 683.438 259.846 L 681.697 259.846 L 681.697 232.494 L 683.438 232.494 Z  M 691.576 240.738 L 691.576 259.846 L 689.836 259.846 L 689.836 240.738 L 691.576 240.738 Z  M 689.59 235.43 L 689.59 235.43 L 689.59 235.43 Q 689.59 233.742 690.697 233.742 L 690.697 233.742 L 690.697 233.742 Q 691.242 233.742 691.55 234.181 L 691.55 234.181 L 691.55 234.181 Q 691.857 234.621 691.857 235.43 L 691.857 235.43 L 691.857 235.43 Q 691.857 236.221 691.55 236.678 L 691.55 236.678 L 691.55 236.678 Q 691.242 237.135 690.697 237.135 L 690.697 237.135 L 690.697 237.135 Q 689.59 237.135 689.59 235.43 Z  M 705.604 260.197 L 705.604 260.197 L 705.604 260.197 Q 701.508 260.197 699.188 257.613 L 699.188 257.613 L 699.188 257.613 Q 696.867 255.029 696.867 250.406 L 696.867 250.406 L 696.867 250.406 Q 696.867 245.66 699.275 243.014 L 699.275 243.014 L 699.275 243.014 Q 701.684 240.369 705.867 240.369 L 705.867 240.369 L 705.867 240.369 Q 708.346 240.369 710.613 241.23 L 710.613 241.23 L 710.139 242.777 L 710.139 242.777 Q 707.66 241.951 705.832 241.951 L 705.832 241.951 L 705.832 241.951 Q 702.316 241.951 700.506 244.122 L 700.506 244.122 L 700.506 244.122 Q 698.695 246.293 698.695 250.371 L 698.695 250.371 L 698.695 250.371 Q 698.695 254.238 700.506 256.427 L 700.506 256.427 L 700.506 256.427 Q 702.316 258.615 705.568 258.615 L 705.568 258.615 L 705.568 258.615 Q 708.17 258.615 710.402 257.683 L 710.402 257.683 L 710.402 259.301 L 710.402 259.301 Q 708.574 260.197 705.604 260.197 Z  M 727.963 259.846 L 726.68 259.846 L 726.24 256.822 L 726.1 256.822 L 726.1 256.822 Q 724.658 258.668 723.138 259.432 L 723.138 259.432 L 723.138 259.432 Q 721.617 260.197 719.543 260.197 L 719.543 260.197 L 719.543 260.197 Q 716.73 260.197 715.166 258.756 L 715.166 258.756 L 715.166 258.756 Q 713.602 257.314 713.602 254.765 L 713.602 254.765 L 713.602 254.765 Q 713.602 251.971 715.931 250.424 L 715.931 250.424 L 715.931 250.424 Q 718.26 248.877 722.672 248.789 L 722.672 248.789 L 726.311 248.683 L 726.311 247.418 L 726.311 247.418 Q 726.311 244.693 725.203 243.305 L 725.203 243.305 L 725.203 243.305 Q 724.096 241.916 721.635 241.916 L 721.635 241.916 L 721.635 241.916 Q 718.98 241.916 716.133 243.392 L 716.133 243.392 L 715.482 241.881 L 715.482 241.881 Q 718.629 240.404 721.705 240.404 L 721.705 240.404 L 721.705 240.404 Q 724.852 240.404 726.407 242.039 L 726.407 242.039 L 726.407 242.039 Q 727.963 243.674 727.963 247.137 L 727.963 247.137 L 727.963 259.846 Z  M 719.648 258.615 L 719.648 258.615 L 719.648 258.615 Q 722.707 258.615 724.474 256.866 L 724.474 256.866 L 724.474 256.866 Q 726.24 255.117 726.24 252.006 L 726.24 252.006 L 726.24 250.125 L 722.9 250.265 L 722.9 250.265 Q 718.875 250.459 717.161 251.522 L 717.161 251.522 L 717.161 251.522 Q 715.447 252.586 715.447 254.836 L 715.447 254.836 L 715.447 254.836 Q 715.447 256.629 716.546 257.622 L 716.546 257.622 L 716.546 257.622 Q 717.645 258.615 719.648 258.615 Z  M 739.195 258.65 L 739.195 258.65 L 739.195 258.65 Q 740.848 258.65 742.078 258.369 L 742.078 258.369 L 742.078 259.775 L 742.078 259.775 Q 740.813 260.197 739.16 260.197 L 739.16 260.197 L 739.16 260.197 Q 736.629 260.197 735.425 258.844 L 735.425 258.844 L 735.425 258.844 Q 734.221 257.49 734.221 254.59 L 734.221 254.59 L 734.221 242.25 L 731.391 242.25 L 731.391 241.23 L 734.221 240.439 L 735.1 236.115 L 735.996 236.115 L 735.996 240.738 L 741.604 240.738 L 741.604 242.25 L 735.996 242.25 L 735.996 254.344 L 735.996 254.344 Q 735.996 256.541 736.77 257.596 L 736.77 257.596 L 736.77 257.596 Q 737.543 258.65 739.195 258.65 Z  M 747.949 240.738 L 747.949 259.846 L 746.209 259.846 L 746.209 240.738 L 747.949 240.738 Z  M 745.963 235.43 L 745.963 235.43 L 745.963 235.43 Q 745.963 233.742 747.07 233.742 L 747.07 233.742 L 747.07 233.742 Q 747.615 233.742 747.923 234.181 L 747.923 234.181 L 747.923 234.181 Q 748.23 234.621 748.23 235.43 L 748.23 235.43 L 748.23 235.43 Q 748.23 236.221 747.923 236.678 L 747.923 236.678 L 747.923 236.678 Q 747.615 237.135 747.07 237.135 L 747.07 237.135 L 747.07 237.135 Q 745.963 237.135 745.963 235.43 Z  M 770.15 250.265 L 770.15 250.265 L 770.15 250.265 Q 770.15 254.941 767.883 257.569 L 767.883 257.569 L 767.883 257.569 Q 765.615 260.197 761.625 260.197 L 761.625 260.197 L 761.625 260.197 Q 759.111 260.197 757.195 258.984 L 757.195 258.984 L 757.195 258.984 Q 755.279 257.771 754.26 255.504 L 754.26 255.504 L 754.26 255.504 Q 753.24 253.236 753.24 250.265 L 753.24 250.265 L 753.24 250.265 Q 753.24 245.59 755.508 242.979 L 755.508 242.979 L 755.508 242.979 Q 757.775 240.369 761.73 240.369 L 761.73 240.369 L 761.73 240.369 Q 765.668 240.369 767.909 243.014 L 767.909 243.014 L 767.909 243.014 Q 770.15 245.66 770.15 250.265 Z  M 755.068 250.265 L 755.068 250.265 L 755.068 250.265 Q 755.068 254.203 756.8 256.409 L 756.8 256.409 L 756.8 256.409 Q 758.531 258.615 761.695 258.615 L 761.695 258.615 L 761.695 258.615 Q 764.859 258.615 766.591 256.409 L 766.591 256.409 L 766.591 256.409 Q 768.322 254.203 768.322 250.265 L 768.322 250.265 L 768.322 250.265 Q 768.322 246.31 766.573 244.131 L 766.573 244.131 L 766.573 244.131 Q 764.824 241.951 761.66 241.951 L 761.66 241.951 L 761.66 241.951 Q 758.496 241.951 756.782 244.122 L 756.782 244.122 L 756.782 244.122 Q 755.068 246.293 755.068 250.265 Z  M 790.488 259.846 L 788.766 259.846 L 788.766 247.453 L 788.766 247.453 Q 788.766 244.57 787.553 243.261 L 787.553 243.261 L 787.553 243.261 Q 786.34 241.951 783.791 241.951 L 783.791 241.951 L 783.791 241.951 Q 780.363 241.951 778.772 243.682 L 778.772 243.682 L 778.772 243.682 Q 777.182 245.414 777.182 249.299 L 777.182 249.299 L 777.182 259.846 L 775.441 259.846 L 775.441 240.738 L 776.918 240.738 L 777.252 243.357 L 777.357 243.357 L 777.357 243.357 Q 779.221 240.369 783.984 240.369 L 783.984 240.369 L 783.984 240.369 Q 790.488 240.369 790.488 247.347 L 790.488 247.347 L 790.488 259.846 Z " fill-rule="evenodd" fill="rgb(255,255,255)"/><path d=" M 551.988 306.105 L 558.105 306.105 L 558.105 307.318 L 554.15 307.564 L 554.15 307.564 Q 555.732 309.533 555.732 311.888 L 555.732 311.888 L 555.732 311.888 Q 555.732 314.648 553.896 316.362 L 553.896 316.362 L 553.896 316.362 Q 552.059 318.076 548.965 318.076 L 548.965 318.076 L 548.965 318.076 Q 547.664 318.076 547.137 317.97 L 547.137 317.97 L 547.137 317.97 Q 546.1 318.515 545.555 319.254 L 545.555 319.254 L 545.555 319.254 Q 545.01 319.992 545.01 320.818 L 545.01 320.818 L 545.01 320.818 Q 545.01 321.732 545.704 322.154 L 545.704 322.154 L 545.704 322.154 Q 546.398 322.576 548.033 322.576 L 548.033 322.576 L 551.373 322.576 L 551.373 322.576 Q 554.484 322.576 556.137 323.833 L 556.137 323.833 L 556.137 323.833 Q 557.789 325.089 557.789 327.55 L 557.789 327.55 L 557.789 327.55 Q 557.789 330.574 555.337 332.217 L 555.337 332.217 L 555.337 332.217 Q 552.885 333.861 548.35 333.861 L 548.35 333.861 L 548.35 333.861 Q 544.746 333.861 542.769 332.472 L 542.769 332.472 L 542.769 332.472 Q 540.791 331.084 540.791 328.605 L 540.791 328.605 L 540.791 328.605 Q 540.791 326.636 542.013 325.336 L 542.013 325.336 L 542.013 325.336 Q 543.234 324.035 545.326 323.56 L 545.326 323.56 L 545.326 323.56 Q 544.465 323.191 543.946 322.514 L 543.946 322.514 L 543.946 322.514 Q 543.428 321.838 543.428 320.959 L 543.428 320.959 L 543.428 320.959 Q 543.428 319.043 545.871 317.584 L 545.871 317.584 L 545.871 317.584 Q 544.201 316.898 543.27 315.43 L 543.27 315.43 L 543.27 315.43 Q 542.338 313.963 542.338 312.064 L 542.338 312.064 L 542.338 312.064 Q 542.338 309.199 544.157 307.467 L 544.157 307.467 L 544.157 307.467 Q 545.977 305.736 549.07 305.736 L 549.07 305.736 L 549.07 305.736 Q 550.951 305.736 551.988 306.105 L 551.988 306.105 Z  M 542.637 328.447 L 542.637 328.447 L 542.637 328.447 Q 542.637 332.384 548.49 332.384 L 548.49 332.384 L 548.49 332.384 Q 556.014 332.384 556.014 327.586 L 556.014 327.586 L 556.014 327.586 Q 556.014 325.863 554.836 325.089 L 554.836 325.089 L 554.836 325.089 Q 553.658 324.316 551.021 324.316 L 551.021 324.316 L 547.893 324.316 L 547.893 324.316 Q 542.637 324.316 542.637 328.447 Z  M 544.096 312.064 L 544.096 312.064 L 544.096 312.064 Q 544.096 314.279 545.44 315.501 L 545.44 315.501 L 545.44 315.501 Q 546.785 316.722 549.035 316.722 L 549.035 316.722 L 549.035 316.722 Q 551.426 316.722 552.7 315.509 L 552.7 315.509 L 552.7 315.509 Q 553.975 314.297 553.975 311.994 L 553.975 311.994 L 553.975 311.994 Q 553.975 309.55 552.665 308.329 L 552.665 308.329 L 552.665 308.329 Q 551.355 307.107 549 307.107 L 549 307.107 L 549 307.107 Q 546.715 307.107 545.405 308.417 L 545.405 308.417 L 545.405 308.417 Q 544.096 309.726 544.096 312.064 Z  M 569.742 325.564 L 569.742 325.564 L 569.742 325.564 Q 565.576 325.564 563.247 322.998 L 563.247 322.998 L 563.247 322.998 Q 560.918 320.431 560.918 315.808 L 560.918 315.808 L 560.918 315.808 Q 560.918 311.238 563.168 308.487 L 563.168 308.487 L 563.168 308.487 Q 565.418 305.736 569.232 305.736 L 569.232 305.736 L 569.232 305.736 Q 572.607 305.736 574.559 308.091 L 574.559 308.091 L 574.559 308.091 Q 576.51 310.447 576.51 314.49 L 576.51 314.49 L 576.51 315.896 L 562.746 315.896 L 562.746 315.896 Q 562.781 319.834 564.583 321.908 L 564.583 321.908 L 564.583 321.908 Q 566.385 323.982 569.742 323.982 L 569.742 323.982 L 569.742 323.982 Q 571.377 323.982 572.616 323.754 L 572.616 323.754 L 572.616 323.754 Q 573.855 323.525 575.754 322.769 L 575.754 322.769 L 575.754 324.351 L 575.754 324.351 Q 574.137 325.054 572.766 325.309 L 572.766 325.309 L 572.766 325.309 Q 571.395 325.564 569.742 325.564 Z  M 569.232 307.283 L 569.232 307.283 L 569.232 307.283 Q 566.473 307.283 564.803 309.102 L 564.803 309.102 L 564.803 309.102 Q 563.133 310.922 562.852 314.349 L 562.852 314.349 L 574.664 314.349 L 574.664 314.349 Q 574.664 311.027 573.223 309.155 L 573.223 309.155 L 573.223 309.155 Q 571.781 307.283 569.232 307.283 Z  M 596.83 325.213 L 595.107 325.213 L 595.107 312.82 L 595.107 312.82 Q 595.107 309.937 593.895 308.628 L 593.895 308.628 L 593.895 308.628 Q 592.682 307.318 590.133 307.318 L 590.133 307.318 L 590.133 307.318 Q 586.705 307.318 585.114 309.049 L 585.114 309.049 L 585.114 309.049 Q 583.523 310.781 583.523 314.666 L 583.523 314.666 L 583.523 325.213 L 581.783 325.213 L 581.783 306.105 L 583.26 306.105 L 583.594 308.724 L 583.699 308.724 L 583.699 308.724 Q 585.563 305.736 590.326 305.736 L 590.326 305.736 L 590.326 305.736 Q 596.83 305.736 596.83 312.714 L 596.83 312.714 L 596.83 325.213 Z  M 610.734 325.564 L 610.734 325.564 L 610.734 325.564 Q 606.568 325.564 604.239 322.998 L 604.239 322.998 L 604.239 322.998 Q 601.91 320.431 601.91 315.808 L 601.91 315.808 L 601.91 315.808 Q 601.91 311.238 604.16 308.487 L 604.16 308.487 L 604.16 308.487 Q 606.41 305.736 610.225 305.736 L 610.225 305.736 L 610.225 305.736 Q 613.6 305.736 615.551 308.091 L 615.551 308.091 L 615.551 308.091 Q 617.502 310.447 617.502 314.49 L 617.502 314.49 L 617.502 315.896 L 603.738 315.896 L 603.738 315.896 Q 603.773 319.834 605.575 321.908 L 605.575 321.908 L 605.575 321.908 Q 607.377 323.982 610.734 323.982 L 610.734 323.982 L 610.734 323.982 Q 612.369 323.982 613.608 323.754 L 613.608 323.754 L 613.608 323.754 Q 614.848 323.525 616.746 322.769 L 616.746 322.769 L 616.746 324.351 L 616.746 324.351 Q 615.129 325.054 613.758 325.309 L 613.758 325.309 L 613.758 325.309 Q 612.387 325.564 610.734 325.564 Z  M 610.225 307.283 L 610.225 307.283 L 610.225 307.283 Q 607.465 307.283 605.795 309.102 L 605.795 309.102 L 605.795 309.102 Q 604.125 310.922 603.844 314.349 L 603.844 314.349 L 615.656 314.349 L 615.656 314.349 Q 615.656 311.027 614.215 309.155 L 614.215 309.155 L 614.215 309.155 Q 612.773 307.283 610.225 307.283 Z  M 630.299 305.736 L 630.299 305.736 L 630.299 305.736 Q 631.512 305.736 632.9 305.982 L 632.9 305.982 L 632.566 307.652 L 632.566 307.652 Q 631.371 307.353 630.088 307.353 L 630.088 307.353 L 630.088 307.353 Q 627.645 307.353 626.08 309.427 L 626.08 309.427 L 626.08 309.427 Q 624.516 311.502 624.516 314.666 L 624.516 314.666 L 624.516 325.213 L 622.775 325.213 L 622.775 306.105 L 624.252 306.105 L 624.428 309.55 L 624.551 309.55 L 624.551 309.55 Q 625.729 307.441 627.064 306.588 L 627.064 306.588 L 627.064 306.588 Q 628.4 305.736 630.299 305.736 Z  M 649.67 325.213 L 648.387 325.213 L 647.947 322.189 L 647.807 322.189 L 647.807 322.189 Q 646.365 324.035 644.845 324.799 L 644.845 324.799 L 644.845 324.799 Q 643.324 325.564 641.25 325.564 L 641.25 325.564 L 641.25 325.564 Q 638.438 325.564 636.873 324.123 L 636.873 324.123 L 636.873 324.123 Q 635.309 322.681 635.309 320.132 L 635.309 320.132 L 635.309 320.132 Q 635.309 317.338 637.638 315.791 L 637.638 315.791 L 637.638 315.791 Q 639.967 314.244 644.379 314.156 L 644.379 314.156 L 648.018 314.05 L 648.018 312.785 L 648.018 312.785 Q 648.018 310.06 646.91 308.672 L 646.91 308.672 L 646.91 308.672 Q 645.803 307.283 643.342 307.283 L 643.342 307.283 L 643.342 307.283 Q 640.688 307.283 637.84 308.759 L 637.84 308.759 L 637.189 307.248 L 637.189 307.248 Q 640.336 305.771 643.412 305.771 L 643.412 305.771 L 643.412 305.771 Q 646.559 305.771 648.114 307.406 L 648.114 307.406 L 648.114 307.406 Q 649.67 309.041 649.67 312.504 L 649.67 312.504 L 649.67 325.213 Z  M 641.355 323.982 L 641.355 323.982 L 641.355 323.982 Q 644.414 323.982 646.181 322.233 L 646.181 322.233 L 646.181 322.233 Q 647.947 320.484 647.947 317.373 L 647.947 317.373 L 647.947 315.492 L 644.607 315.632 L 644.607 315.632 Q 640.582 315.826 638.868 316.889 L 638.868 316.889 L 638.868 316.889 Q 637.154 317.953 637.154 320.203 L 637.154 320.203 L 637.154 320.203 Q 637.154 321.996 638.253 322.989 L 638.253 322.989 L 638.253 322.989 Q 639.352 323.982 641.355 323.982 Z  M 660.902 324.017 L 660.902 324.017 L 660.902 324.017 Q 662.555 324.017 663.785 323.736 L 663.785 323.736 L 663.785 325.142 L 663.785 325.142 Q 662.52 325.564 660.867 325.564 L 660.867 325.564 L 660.867 325.564 Q 658.336 325.564 657.132 324.211 L 657.132 324.211 L 657.132 324.211 Q 655.928 322.857 655.928 319.957 L 655.928 319.957 L 655.928 307.617 L 653.098 307.617 L 653.098 306.597 L 655.928 305.806 L 656.807 301.482 L 657.703 301.482 L 657.703 306.105 L 663.311 306.105 L 663.311 307.617 L 657.703 307.617 L 657.703 319.711 L 657.703 319.711 Q 657.703 321.908 658.477 322.963 L 658.477 322.963 L 658.477 322.963 Q 659.25 324.017 660.902 324.017 Z  M 669.656 306.105 L 669.656 325.213 L 667.916 325.213 L 667.916 306.105 L 669.656 306.105 Z  M 667.67 300.797 L 667.67 300.797 L 667.67 300.797 Q 667.67 299.109 668.777 299.109 L 668.777 299.109 L 668.777 299.109 Q 669.322 299.109 669.63 299.548 L 669.63 299.548 L 669.63 299.548 Q 669.938 299.988 669.938 300.797 L 669.938 300.797 L 669.938 300.797 Q 669.938 301.588 669.63 302.045 L 669.63 302.045 L 669.63 302.045 Q 669.322 302.502 668.777 302.502 L 668.777 302.502 L 668.777 302.502 Q 667.67 302.502 667.67 300.797 Z  M 691.857 315.632 L 691.857 315.632 L 691.857 315.632 Q 691.857 320.308 689.59 322.936 L 689.59 322.936 L 689.59 322.936 Q 687.322 325.564 683.332 325.564 L 683.332 325.564 L 683.332 325.564 Q 680.818 325.564 678.902 324.351 L 678.902 324.351 L 678.902 324.351 Q 676.986 323.138 675.967 320.871 L 675.967 320.871 L 675.967 320.871 Q 674.947 318.603 674.947 315.632 L 674.947 315.632 L 674.947 315.632 Q 674.947 310.957 677.215 308.346 L 677.215 308.346 L 677.215 308.346 Q 679.482 305.736 683.438 305.736 L 683.438 305.736 L 683.438 305.736 Q 687.375 305.736 689.616 308.381 L 689.616 308.381 L 689.616 308.381 Q 691.857 311.027 691.857 315.632 Z  M 676.775 315.632 L 676.775 315.632 L 676.775 315.632 Q 676.775 319.57 678.507 321.776 L 678.507 321.776 L 678.507 321.776 Q 680.238 323.982 683.402 323.982 L 683.402 323.982 L 683.402 323.982 Q 686.566 323.982 688.298 321.776 L 688.298 321.776 L 688.298 321.776 Q 690.029 319.57 690.029 315.632 L 690.029 315.632 L 690.029 315.632 Q 690.029 311.677 688.28 309.498 L 688.28 309.498 L 688.28 309.498 Q 686.531 307.318 683.367 307.318 L 683.367 307.318 L 683.367 307.318 Q 680.203 307.318 678.489 309.489 L 678.489 309.489 L 678.489 309.489 Q 676.775 311.66 676.775 315.632 Z  M 712.195 325.213 L 710.473 325.213 L 710.473 312.82 L 710.473 312.82 Q 710.473 309.937 709.26 308.628 L 709.26 308.628 L 709.26 308.628 Q 708.047 307.318 705.498 307.318 L 705.498 307.318 L 705.498 307.318 Q 702.07 307.318 700.479 309.049 L 700.479 309.049 L 700.479 309.049 Q 698.889 310.781 698.889 314.666 L 698.889 314.666 L 698.889 325.213 L 697.148 325.213 L 697.148 306.105 L 698.625 306.105 L 698.959 308.724 L 699.064 308.724 L 699.064 308.724 Q 700.928 305.736 705.691 305.736 L 705.691 305.736 L 705.691 305.736 Q 712.195 305.736 712.195 312.714 L 712.195 312.714 L 712.195 325.213 Z  M 732.779 324.017 L 732.779 324.017 L 732.779 324.017 Q 734.432 324.017 735.662 323.736 L 735.662 323.736 L 735.662 325.142 L 735.662 325.142 Q 734.396 325.564 732.744 325.564 L 732.744 325.564 L 732.744 325.564 Q 730.213 325.564 729.009 324.211 L 729.009 324.211 L 729.009 324.211 Q 727.805 322.857 727.805 319.957 L 727.805 319.957 L 727.805 307.617 L 724.975 307.617 L 724.975 306.597 L 727.805 305.806 L 728.684 301.482 L 729.58 301.482 L 729.58 306.105 L 735.188 306.105 L 735.188 307.617 L 729.58 307.617 L 729.58 319.711 L 729.58 319.711 Q 729.58 321.908 730.354 322.963 L 730.354 322.963 L 730.354 322.963 Q 731.127 324.017 732.779 324.017 Z  M 755.596 315.632 L 755.596 315.632 L 755.596 315.632 Q 755.596 320.308 753.328 322.936 L 753.328 322.936 L 753.328 322.936 Q 751.061 325.564 747.07 325.564 L 747.07 325.564 L 747.07 325.564 Q 744.557 325.564 742.641 324.351 L 742.641 324.351 L 742.641 324.351 Q 740.725 323.138 739.705 320.871 L 739.705 320.871 L 739.705 320.871 Q 738.686 318.603 738.686 315.632 L 738.686 315.632 L 738.686 315.632 Q 738.686 310.957 740.953 308.346 L 740.953 308.346 L 740.953 308.346 Q 743.221 305.736 747.176 305.736 L 747.176 305.736 L 747.176 305.736 Q 751.113 305.736 753.354 308.381 L 753.354 308.381 L 753.354 308.381 Q 755.596 311.027 755.596 315.632 Z  M 740.514 315.632 L 740.514 315.632 L 740.514 315.632 Q 740.514 319.57 742.245 321.776 L 742.245 321.776 L 742.245 321.776 Q 743.977 323.982 747.141 323.982 L 747.141 323.982 L 747.141 323.982 Q 750.305 323.982 752.036 321.776 L 752.036 321.776 L 752.036 321.776 Q 753.768 319.57 753.768 315.632 L 753.768 315.632 L 753.768 315.632 Q 753.768 311.677 752.019 309.498 L 752.019 309.498 L 752.019 309.498 Q 750.27 307.318 747.105 307.318 L 747.105 307.318 L 747.105 307.318 Q 743.941 307.318 742.228 309.489 L 742.228 309.489 L 742.228 309.489 Q 740.514 311.66 740.514 315.632 Z  M 776.689 315.632 L 776.689 315.632 L 776.689 315.632 Q 776.689 320.308 774.422 322.936 L 774.422 322.936 L 774.422 322.936 Q 772.154 325.564 768.164 325.564 L 768.164 325.564 L 768.164 325.564 Q 765.65 325.564 763.734 324.351 L 763.734 324.351 L 763.734 324.351 Q 761.818 323.138 760.799 320.871 L 760.799 320.871 L 760.799 320.871 Q 759.779 318.603 759.779 315.632 L 759.779 315.632 L 759.779 315.632 Q 759.779 310.957 762.047 308.346 L 762.047 308.346 L 762.047 308.346 Q 764.314 305.736 768.27 305.736 L 768.27 305.736 L 768.27 305.736 Q 772.207 305.736 774.448 308.381 L 774.448 308.381 L 774.448 308.381 Q 776.689 311.027 776.689 315.632 Z  M 761.607 315.632 L 761.607 315.632 L 761.607 315.632 Q 761.607 319.57 763.339 321.776 L 763.339 321.776 L 763.339 321.776 Q 765.07 323.982 768.234 323.982 L 768.234 323.982 L 768.234 323.982 Q 771.398 323.982 773.13 321.776 L 773.13 321.776 L 773.13 321.776 Q 774.861 319.57 774.861 315.632 L 774.861 315.632 L 774.861 315.632 Q 774.861 311.677 773.112 309.498 L 773.112 309.498 L 773.112 309.498 Q 771.363 307.318 768.199 307.318 L 768.199 307.318 L 768.199 307.318 Q 765.035 307.318 763.321 309.489 L 763.321 309.489 L 763.321 309.489 Q 761.607 311.66 761.607 315.632 Z  M 783.721 297.861 L 783.721 325.213 L 781.98 325.213 L 781.98 297.861 L 783.721 297.861 Z  M 789.768 323.841 L 789.768 323.841 L 789.768 323.841 Q 789.768 322.119 791.174 322.119 L 791.174 322.119 L 791.174 322.119 Q 792.615 322.119 792.615 323.841 L 792.615 323.841 L 792.615 323.841 Q 792.615 325.564 791.174 325.564 L 791.174 325.564 L 791.174 325.564 Q 789.768 325.564 789.768 323.841 Z " fill-rule="evenodd" fill="rgb(255,255,255)"/></svg>