<?xml version="1.0" standalone="no"?><!-- Generator: Gravit.io --><svg xmlns="http://www.w3.org/2000/svg" xmlns:xlink="http://www.w3.org/1999/xlink" style="isolation:isolate" viewBox="0 0 1200 630" width="1200" height="630"><rect x="0" y="0" width="1200" height="630" transform="matrix(1,0,0,1,0,0)" fill="rgb(51,153,51)"/><g id="null"><path d=" M 433.748 241.104 L 262.365 412.487 Q 224.849 450.003 189.464 447.872 Q 154.079 445.74 123.383 415.045 Q 92.688 384.349 90.556 348.964 Q 88.424 313.579 125.941 276.062 L 297.324 104.68 L 263.644 71 L 92.261 242.383 Q 41.955 292.689 44.087 345.98 Q 46.218 399.271 92.901 445.953 Q 139.584 492.636 192.661 494.554 Q 245.739 496.473 296.045 446.166 L 467.428 274.784 L 433.748 241.104 Z " fill="rgb(255,255,255)"/><path d=" M 356.478 490.766 L 527.861 319.383 Q 565.377 281.866 563.246 246.481 Q 561.114 211.096 530.419 180.401 Q 499.723 149.705 464.338 147.574 Q 428.953 145.442 391.437 182.959 L 220.054 354.342 L 186.374 320.662 L 357.757 149.279 Q 408.063 98.973 461.354 101.104 Q 514.645 103.236 561.327 149.919 Q 608.01 196.601 609.928 249.679 Q 611.847 302.756 561.54 353.063 L 390.158 524.445 L 356.478 490.766 Z " fill="rgb(255,255,255)"/><rect x="372.578" y="210.188" width="42.668" height="42.668" transform="matrix(0.707,0.707,-0.707,0.707,279.085,-210.727)" fill="rgb(255,255,255)"/><rect x="285.67" y="124.705" width="42.668" height="42.668" transform="matrix(0.707,0.707,-0.707,0.707,193.184,-174.311)" fill="rgb(255,255,255)"/><rect x="238.654" y="344.112" width="42.668" height="42.668" transform="matrix(0.707,0.707,-0.707,0.707,334.558,-76.803)" fill="rgb(255,255,255)"/><rect x="324.138" y="428.171" width="42.668" height="42.668" transform="matrix(0.707,0.707,-0.707,0.707,419.034,-112.628)" fill="rgb(255,255,255)"/></g><path d=" M 689.252 92.299 L 694.232 92.299 L 694.232 120.014 L 694.232 120.014 Q 694.232 127.338 689.809 131.527 L 689.809 131.527 L 689.809 131.527 Q 685.385 135.717 677.65 135.717 L 677.65 135.717 L 677.65 135.717 Q 669.916 135.717 665.683 131.498 L 665.683 131.498 L 665.683 131.498 Q 661.449 127.279 661.449 119.896 L 661.449 119.896 L 661.449 92.299 L 666.43 92.299 L 666.43 120.248 L 666.43 120.248 Q 666.43 125.609 669.359 128.48 L 669.359 128.48 L 669.359 128.48 Q 672.289 131.352 677.973 131.352 L 677.973 131.352 L 677.973 131.352 Q 683.393 131.352 686.322 128.466 L 686.322 128.466 L 686.322 128.466 Q 689.252 125.58 689.252 120.189 L 689.252 120.189 L 689.252 92.299 Z  M 731.674 135.131 L 726.811 135.131 L 726.811 114.359 L 726.811 114.359 Q 726.811 110.434 725.023 108.5 L 725.023 108.5 L 725.023 108.5 Q 723.236 106.566 719.428 106.566 L 719.428 106.566 L 719.428 106.566 Q 714.389 106.566 712.045 109.291 L 712.045 109.291 L 712.045 109.291 Q 709.701 112.016 709.701 118.285 L 709.701 118.285 L 709.701 135.131 L 704.838 135.131 L 704.838 103.021 L 708.793 103.021 L 709.584 107.416 L 709.818 107.416 L 709.818 107.416 Q 711.313 105.043 714.008 103.739 L 714.008 103.739 L 714.008 103.739 Q 716.703 102.436 720.014 102.436 L 720.014 102.436 L 720.014 102.436 Q 725.814 102.436 728.744 105.233 L 728.744 105.233 L 728.744 105.233 Q 731.674 108.031 731.674 114.184 L 731.674 114.184 L 731.674 135.131 Z  M 746.527 103.021 L 746.527 135.131 L 741.664 135.131 L 741.664 103.021 L 746.527 103.021 Z  M 741.254 94.32 L 741.254 94.32 L 741.254 94.32 Q 741.254 92.65 742.074 91.874 L 742.074 91.874 L 742.074 91.874 Q 742.895 91.098 744.125 91.098 L 744.125 91.098 L 744.125 91.098 Q 745.297 91.098 746.146 91.889 L 746.146 91.889 L 746.146 91.889 Q 746.996 92.68 746.996 94.32 L 746.996 94.32 L 746.996 94.32 Q 746.996 95.961 746.146 96.767 L 746.146 96.767 L 746.146 96.767 Q 745.297 97.572 744.125 97.572 L 744.125 97.572 L 744.125 97.572 Q 742.895 97.572 742.074 96.767 L 742.074 96.767 L 742.074 96.767 Q 741.254 95.961 741.254 94.32 Z  M 767.211 131.703 L 767.211 131.703 L 767.211 131.703 Q 768.5 131.703 769.701 131.513 L 769.701 131.513 L 769.701 131.513 Q 770.902 131.322 771.605 131.117 L 771.605 131.117 L 771.605 134.838 L 771.605 134.838 Q 770.814 135.219 769.276 135.468 L 769.276 135.468 L 769.276 135.468 Q 767.738 135.717 766.508 135.717 L 766.508 135.717 L 766.508 135.717 Q 757.191 135.717 757.191 125.902 L 757.191 125.902 L 757.191 106.801 L 752.592 106.801 L 752.592 104.457 L 757.191 102.436 L 759.242 95.58 L 762.055 95.58 L 762.055 103.021 L 771.371 103.021 L 771.371 106.801 L 762.055 106.801 L 762.055 125.697 L 762.055 125.697 Q 762.055 128.598 763.432 130.15 L 763.432 130.15 L 763.432 130.15 Q 764.809 131.703 767.211 131.703 Z  M 791.586 135.717 L 791.586 135.717 L 791.586 135.717 Q 784.467 135.717 780.351 131.381 L 780.351 131.381 L 780.351 131.381 Q 776.234 127.045 776.234 119.34 L 776.234 119.34 L 776.234 119.34 Q 776.234 111.576 780.058 107.006 L 780.058 107.006 L 780.058 107.006 Q 783.881 102.436 790.326 102.436 L 790.326 102.436 L 790.326 102.436 Q 796.361 102.436 799.877 106.405 L 799.877 106.405 L 799.877 106.405 Q 803.393 110.375 803.393 116.879 L 803.393 116.879 L 803.393 119.955 L 781.273 119.955 L 781.273 119.955 Q 781.42 125.609 784.13 128.539 L 784.13 128.539 L 784.13 128.539 Q 786.84 131.469 791.762 131.469 L 791.762 131.469 L 791.762 131.469 Q 796.947 131.469 802.016 129.301 L 802.016 129.301 L 802.016 133.637 L 802.016 133.637 Q 799.438 134.75 797.138 135.233 L 797.138 135.233 L 797.138 135.233 Q 794.838 135.717 791.586 135.717 Z  M 790.268 106.508 L 790.268 106.508 L 790.268 106.508 Q 786.4 106.508 784.101 109.027 L 784.101 109.027 L 784.101 109.027 Q 781.801 111.547 781.391 116 L 781.391 116 L 798.178 116 L 798.178 116 Q 798.178 111.4 796.127 108.954 L 796.127 108.954 L 796.127 108.954 Q 794.076 106.508 790.268 106.508 Z  M 806.176 146.41 L 806.176 146.41 L 806.176 146.41 Q 803.422 146.41 801.84 145.619 L 801.84 145.619 L 801.84 141.371 L 801.84 141.371 Q 803.92 141.957 806.176 141.957 L 806.176 141.957 L 806.176 141.957 Q 809.076 141.957 810.585 140.199 L 810.585 140.199 L 810.585 140.199 Q 812.094 138.441 812.094 135.131 L 812.094 135.131 L 812.094 92.299 L 817.074 92.299 L 817.074 134.721 L 817.074 134.721 Q 817.074 140.287 814.262 143.349 L 814.262 143.349 L 814.262 143.349 Q 811.449 146.41 806.176 146.41 Z  M 852.611 123.734 L 852.611 123.734 L 852.611 123.734 Q 852.611 129.389 848.51 132.553 L 848.51 132.553 L 848.51 132.553 Q 844.408 135.717 837.377 135.717 L 837.377 135.717 L 837.377 135.717 Q 829.76 135.717 825.658 133.754 L 825.658 133.754 L 825.658 128.949 L 825.658 128.949 Q 828.295 130.063 831.4 130.707 L 831.4 130.707 L 831.4 130.707 Q 834.506 131.352 837.553 131.352 L 837.553 131.352 L 837.553 131.352 Q 842.533 131.352 845.053 129.462 L 845.053 129.462 L 845.053 129.462 Q 847.572 127.572 847.572 124.203 L 847.572 124.203 L 847.572 124.203 Q 847.572 121.977 846.679 120.556 L 846.679 120.556 L 846.679 120.556 Q 845.785 119.135 843.69 117.934 L 843.69 117.934 L 843.69 117.934 Q 841.596 116.732 837.318 115.209 L 837.318 115.209 L 837.318 115.209 Q 831.342 113.07 828.778 110.141 L 828.778 110.141 L 828.778 110.141 Q 826.215 107.211 826.215 102.494 L 826.215 102.494 L 826.215 102.494 Q 826.215 97.543 829.936 94.613 L 829.936 94.613 L 829.936 94.613 Q 833.656 91.684 839.779 91.684 L 839.779 91.684 L 839.779 91.684 Q 846.166 91.684 851.527 94.027 L 851.527 94.027 L 849.975 98.363 L 849.975 98.363 Q 844.672 96.137 839.662 96.137 L 839.662 96.137 L 839.662 96.137 Q 835.707 96.137 833.48 97.836 L 833.48 97.836 L 833.48 97.836 Q 831.254 99.535 831.254 102.553 L 831.254 102.553 L 831.254 102.553 Q 831.254 104.779 832.074 106.2 L 832.074 106.2 L 832.074 106.2 Q 832.895 107.621 834.843 108.808 L 834.843 108.808 L 834.843 108.808 Q 836.791 109.994 840.805 111.43 L 840.805 111.43 L 840.805 111.43 Q 847.543 113.832 850.077 116.586 L 850.077 116.586 L 850.077 116.586 Q 852.611 119.34 852.611 123.734 Z " fill-rule="evenodd" fill="rgb(255,255,255)"/><path d=" M 686.234 501.084 L 686.234 501.084 L 686.234 501.084 Q 686.234 503.58 685.461 505.654 L 685.461 505.654 L 685.461 505.654 Q 684.688 507.729 683.281 508.871 L 683.281 508.871 L 683.281 508.871 Q 681.875 510.014 680.047 510.014 L 680.047 510.014 L 680.047 510.014 Q 678.535 510.014 677.498 509.1 L 677.498 509.1 L 677.498 509.1 Q 676.461 508.186 676.268 506.762 L 676.268 506.762 L 676.127 506.762 L 676.127 506.762 Q 675.424 508.291 674.114 509.152 L 674.114 509.152 L 674.114 509.152 Q 672.805 510.014 671.012 510.014 L 671.012 510.014 L 671.012 510.014 Q 668.375 510.014 666.89 508.212 L 666.89 508.212 L 666.89 508.212 Q 665.404 506.41 665.404 503.317 L 665.404 503.317 L 665.404 503.317 Q 665.404 499.731 667.479 497.489 L 667.479 497.489 L 667.479 497.489 Q 669.553 495.248 672.928 495.248 L 672.928 495.248 L 672.928 495.248 Q 674.123 495.248 675.635 495.468 L 675.635 495.468 L 675.635 495.468 Q 677.146 495.688 678.359 496.074 L 678.359 496.074 L 677.92 504.336 L 677.92 504.723 L 677.92 504.723 Q 677.92 507.852 680.258 507.852 L 680.258 507.852 L 680.258 507.852 Q 681.857 507.852 682.859 505.962 L 682.859 505.962 L 682.859 505.962 Q 683.861 504.072 683.861 501.049 L 683.861 501.049 L 683.861 501.049 Q 683.861 497.867 682.561 495.477 L 682.561 495.477 L 682.561 495.477 Q 681.26 493.086 678.86 491.794 L 678.86 491.794 L 678.86 491.794 Q 676.461 490.502 673.35 490.502 L 673.35 490.502 L 673.35 490.502 Q 669.43 490.502 666.529 492.128 L 666.529 492.128 L 666.529 492.128 Q 663.629 493.754 662.1 496.769 L 662.1 496.769 L 662.1 496.769 Q 660.57 499.783 660.57 503.738 L 660.57 503.738 L 660.57 503.738 Q 660.57 509.1 663.4 511.983 L 663.4 511.983 L 663.4 511.983 Q 666.23 514.865 671.557 514.865 L 671.557 514.865 L 671.557 514.865 Q 675.248 514.865 679.221 513.354 L 679.221 513.354 L 679.221 515.692 L 679.221 515.692 Q 675.846 517.168 671.557 517.168 L 671.557 517.168 L 671.557 517.168 Q 665.176 517.168 661.651 513.661 L 661.651 513.661 L 661.651 513.661 Q 658.127 510.154 658.127 503.861 L 658.127 503.861 L 658.127 503.861 Q 658.127 499.291 660.008 495.723 L 660.008 495.723 L 660.008 495.723 Q 661.889 492.154 665.369 490.194 L 665.369 490.194 L 665.369 490.194 Q 668.85 488.234 673.35 488.234 L 673.35 488.234 L 673.35 488.234 Q 677.129 488.234 680.073 489.825 L 680.073 489.825 L 680.073 489.825 Q 683.018 491.416 684.626 494.343 L 684.626 494.343 L 684.626 494.343 Q 686.234 497.27 686.234 501.084 Z  M 668.059 503.387 L 668.059 503.387 L 668.059 503.387 Q 668.059 507.852 671.486 507.852 L 671.486 507.852 L 671.486 507.852 Q 675.125 507.852 675.441 502.35 L 675.441 502.35 L 675.688 497.762 L 675.688 497.762 Q 674.422 497.41 672.928 497.41 L 672.928 497.41 L 672.928 497.41 Q 670.643 497.41 669.351 498.992 L 669.351 498.992 L 669.351 498.992 Q 668.059 500.574 668.059 503.387 Z  M 691.244 494.633 L 694.197 494.633 L 694.197 507.131 L 694.197 507.131 Q 694.197 509.486 695.27 510.647 L 695.27 510.647 L 695.27 510.647 Q 696.342 511.807 698.627 511.807 L 698.627 511.807 L 698.627 511.807 Q 701.65 511.807 703.048 510.154 L 703.048 510.154 L 703.048 510.154 Q 704.445 508.502 704.445 504.758 L 704.445 504.758 L 704.445 494.633 L 707.363 494.633 L 707.363 513.899 L 704.955 513.899 L 704.533 511.315 L 704.375 511.315 L 704.375 511.315 Q 703.479 512.738 701.888 513.494 L 701.888 513.494 L 701.888 513.494 Q 700.297 514.25 698.258 514.25 L 698.258 514.25 L 698.258 514.25 Q 694.742 514.25 692.993 512.58 L 692.993 512.58 L 692.993 512.58 Q 691.244 510.91 691.244 507.236 L 691.244 507.236 L 691.244 494.633 Z  M 729.652 513.899 L 726.734 513.899 L 726.734 501.436 L 726.734 501.436 Q 726.734 499.08 725.662 497.92 L 725.662 497.92 L 725.662 497.92 Q 724.59 496.76 722.305 496.76 L 722.305 496.76 L 722.305 496.76 Q 719.281 496.76 717.875 498.395 L 717.875 498.395 L 717.875 498.395 Q 716.469 500.029 716.469 503.791 L 716.469 503.791 L 716.469 513.899 L 713.551 513.899 L 713.551 494.633 L 715.924 494.633 L 716.398 497.27 L 716.539 497.27 L 716.539 497.27 Q 717.436 495.846 719.053 495.064 L 719.053 495.064 L 719.053 495.064 Q 720.67 494.281 722.656 494.281 L 722.656 494.281 L 722.656 494.281 Q 726.137 494.281 727.895 495.96 L 727.895 495.96 L 727.895 495.96 Q 729.652 497.639 729.652 501.33 L 729.652 501.33 L 729.652 513.899 Z  M 738.564 494.633 L 738.564 513.899 L 735.646 513.899 L 735.646 494.633 L 738.564 494.633 Z  M 735.4 489.412 L 735.4 489.412 L 735.4 489.412 Q 735.4 488.41 735.893 487.944 L 735.893 487.944 L 735.893 487.944 Q 736.385 487.479 737.123 487.479 L 737.123 487.479 L 737.123 487.479 Q 737.826 487.479 738.336 487.953 L 738.336 487.953 L 738.336 487.953 Q 738.846 488.428 738.846 489.412 L 738.846 489.412 L 738.846 489.412 Q 738.846 490.397 738.336 490.88 L 738.336 490.88 L 738.336 490.88 Q 737.826 491.363 737.123 491.363 L 737.123 491.363 L 737.123 491.363 Q 736.385 491.363 735.893 490.88 L 735.893 490.88 L 735.893 490.88 Q 735.4 490.397 735.4 489.412 Z  M 750.975 511.842 L 750.975 511.842 L 750.975 511.842 Q 751.748 511.842 752.469 511.728 L 752.469 511.728 L 752.469 511.728 Q 753.189 511.613 753.611 511.49 L 753.611 511.49 L 753.611 513.723 L 753.611 513.723 Q 753.137 513.951 752.214 514.101 L 752.214 514.101 L 752.214 514.101 Q 751.291 514.25 750.553 514.25 L 750.553 514.25 L 750.553 514.25 Q 744.963 514.25 744.963 508.361 L 744.963 508.361 L 744.963 496.901 L 742.203 496.901 L 742.203 495.494 L 744.963 494.281 L 746.193 490.168 L 747.881 490.168 L 747.881 494.633 L 753.471 494.633 L 753.471 496.901 L 747.881 496.901 L 747.881 508.238 L 747.881 508.238 Q 747.881 509.979 748.707 510.91 L 748.707 510.91 L 748.707 510.91 Q 749.533 511.842 750.975 511.842 Z  M 765.6 514.25 L 765.6 514.25 L 765.6 514.25 Q 761.328 514.25 758.858 511.649 L 758.858 511.649 L 758.858 511.649 Q 756.389 509.047 756.389 504.424 L 756.389 504.424 L 756.389 504.424 Q 756.389 499.766 758.683 497.024 L 758.683 497.024 L 758.683 497.024 Q 760.977 494.281 764.844 494.281 L 764.844 494.281 L 764.844 494.281 Q 768.465 494.281 770.574 496.663 L 770.574 496.663 L 770.574 496.663 Q 772.684 499.045 772.684 502.947 L 772.684 502.947 L 772.684 504.793 L 759.412 504.793 L 759.412 504.793 Q 759.5 508.186 761.126 509.943 L 761.126 509.943 L 761.126 509.943 Q 762.752 511.701 765.705 511.701 L 765.705 511.701 L 765.705 511.701 Q 768.816 511.701 771.857 510.401 L 771.857 510.401 L 771.857 513.002 L 771.857 513.002 Q 770.311 513.67 768.931 513.96 L 768.931 513.96 L 768.931 513.96 Q 767.551 514.25 765.6 514.25 Z  M 764.809 496.725 L 764.809 496.725 L 764.809 496.725 Q 762.488 496.725 761.108 498.236 L 761.108 498.236 L 761.108 498.236 Q 759.729 499.748 759.482 502.42 L 759.482 502.42 L 769.555 502.42 L 769.555 502.42 Q 769.555 499.66 768.324 498.193 L 768.324 498.193 L 768.324 498.193 Q 767.094 496.725 764.809 496.725 Z  M 775.32 522.547 L 775.32 522.547 L 775.32 522.547 Q 773.65 522.547 772.613 522.108 L 772.613 522.108 L 772.613 519.734 L 772.613 519.734 Q 773.826 520.086 775.004 520.086 L 775.004 520.086 L 775.004 520.086 Q 776.375 520.086 777.017 519.339 L 777.017 519.339 L 777.017 519.339 Q 777.658 518.592 777.658 517.063 L 777.658 517.063 L 777.658 494.633 L 780.576 494.633 L 780.576 516.852 L 780.576 516.852 Q 780.576 522.547 775.32 522.547 Z  M 777.412 489.412 L 777.412 489.412 L 777.412 489.412 Q 777.412 488.41 777.904 487.944 L 777.904 487.944 L 777.904 487.944 Q 778.396 487.479 779.135 487.479 L 779.135 487.479 L 779.135 487.479 Q 779.838 487.479 780.348 487.953 L 780.348 487.953 L 780.348 487.953 Q 780.857 488.428 780.857 489.412 L 780.857 489.412 L 780.857 489.412 Q 780.857 490.397 780.348 490.88 L 780.348 490.88 L 780.348 490.88 Q 779.838 491.363 779.135 491.363 L 779.135 491.363 L 779.135 491.363 Q 778.396 491.363 777.904 490.88 L 777.904 490.88 L 777.904 490.88 Q 777.412 490.397 777.412 489.412 Z  M 799.191 508.643 L 799.191 508.643 L 799.191 508.643 Q 799.191 511.332 797.188 512.791 L 797.188 512.791 L 797.188 512.791 Q 795.184 514.25 791.563 514.25 L 791.563 514.25 L 791.563 514.25 Q 787.73 514.25 785.586 513.037 L 785.586 513.037 L 785.586 510.33 L 785.586 510.33 Q 786.975 511.033 788.565 511.438 L 788.565 511.438 L 788.565 511.438 Q 790.156 511.842 791.633 511.842 L 791.633 511.842 L 791.633 511.842 Q 793.918 511.842 795.148 511.112 L 795.148 511.112 L 795.148 511.112 Q 796.379 510.383 796.379 508.889 L 796.379 508.889 L 796.379 508.889 Q 796.379 507.764 795.403 506.964 L 795.403 506.964 L 795.403 506.964 Q 794.428 506.164 791.598 505.074 L 791.598 505.074 L 791.598 505.074 Q 788.908 504.072 787.774 503.325 L 787.774 503.325 L 787.774 503.325 Q 786.641 502.578 786.087 501.629 L 786.087 501.629 L 786.087 501.629 Q 785.533 500.68 785.533 499.361 L 785.533 499.361 L 785.533 499.361 Q 785.533 497.006 787.449 495.644 L 787.449 495.644 L 787.449 495.644 Q 789.365 494.281 792.705 494.281 L 792.705 494.281 L 792.705 494.281 Q 795.816 494.281 798.787 495.547 L 798.787 495.547 L 797.75 497.92 L 797.75 497.92 Q 794.85 496.725 792.494 496.725 L 792.494 496.725 L 792.494 496.725 Q 790.42 496.725 789.365 497.375 L 789.365 497.375 L 789.365 497.375 Q 788.311 498.026 788.311 499.168 L 788.311 499.168 L 788.311 499.168 Q 788.311 499.942 788.706 500.486 L 788.706 500.486 L 788.706 500.486 Q 789.102 501.031 789.98 501.524 L 789.98 501.524 L 789.98 501.524 Q 790.859 502.016 793.355 502.947 L 793.355 502.947 L 793.355 502.947 Q 796.783 504.195 797.987 505.461 L 797.987 505.461 L 797.987 505.461 Q 799.191 506.727 799.191 508.643 Z " fill-rule="evenodd" fill="rgb(255,255,255)"/><path d=" M 682.195 562.924 L 679.277 562.924 L 679.277 550.461 L 679.277 550.461 Q 679.277 548.106 678.205 546.945 L 678.205 546.945 L 678.205 546.945 Q 677.133 545.785 674.848 545.785 L 674.848 545.785 L 674.848 545.785 Q 671.807 545.785 670.409 547.438 L 670.409 547.438 L 670.409 547.438 Q 669.012 549.09 669.012 552.852 L 669.012 552.852 L 669.012 562.924 L 666.094 562.924 L 666.094 535.572 L 669.012 535.572 L 669.012 543.852 L 669.012 543.852 Q 669.012 545.346 668.871 546.33 L 668.871 546.33 L 669.047 546.33 L 669.047 546.33 Q 669.908 544.942 671.499 544.142 L 671.499 544.142 L 671.499 544.142 Q 673.09 543.342 675.129 543.342 L 675.129 543.342 L 675.129 543.342 Q 678.662 543.342 680.429 545.021 L 680.429 545.021 L 680.429 545.021 Q 682.195 546.699 682.195 550.356 L 682.195 550.356 L 682.195 562.924 Z  M 694.412 560.867 L 694.412 560.867 L 694.412 560.867 Q 695.186 560.867 695.906 560.753 L 695.906 560.753 L 695.906 560.753 Q 696.627 560.639 697.049 560.516 L 697.049 560.516 L 697.049 562.748 L 697.049 562.748 Q 696.574 562.977 695.651 563.126 L 695.651 563.126 L 695.651 563.126 Q 694.729 563.276 693.99 563.276 L 693.99 563.276 L 693.99 563.276 Q 688.4 563.276 688.4 557.387 L 688.4 557.387 L 688.4 545.926 L 685.641 545.926 L 685.641 544.52 L 688.4 543.307 L 689.631 539.193 L 691.318 539.193 L 691.318 543.658 L 696.908 543.658 L 696.908 545.926 L 691.318 545.926 L 691.318 557.264 L 691.318 557.264 Q 691.318 559.004 692.145 559.936 L 692.145 559.936 L 692.145 559.936 Q 692.971 560.867 694.412 560.867 Z  M 707.121 560.867 L 707.121 560.867 L 707.121 560.867 Q 707.895 560.867 708.615 560.753 L 708.615 560.753 L 708.615 560.753 Q 709.336 560.639 709.758 560.516 L 709.758 560.516 L 709.758 562.748 L 709.758 562.748 Q 709.283 562.977 708.36 563.126 L 708.36 563.126 L 708.36 563.126 Q 707.438 563.276 706.699 563.276 L 706.699 563.276 L 706.699 563.276 Q 701.109 563.276 701.109 557.387 L 701.109 557.387 L 701.109 545.926 L 698.35 545.926 L 698.35 544.52 L 701.109 543.307 L 702.34 539.193 L 704.027 539.193 L 704.027 543.658 L 709.617 543.658 L 709.617 545.926 L 704.027 545.926 L 704.027 557.264 L 704.027 557.264 Q 704.027 559.004 704.854 559.936 L 704.854 559.936 L 704.854 559.936 Q 705.68 560.867 707.121 560.867 Z  M 722.572 563.276 L 722.572 563.276 L 722.572 563.276 Q 720.691 563.276 719.136 562.581 L 719.136 562.581 L 719.136 562.581 Q 717.58 561.887 716.525 560.445 L 716.525 560.445 L 716.314 560.445 L 716.314 560.445 Q 716.525 562.133 716.525 563.645 L 716.525 563.645 L 716.525 571.572 L 713.607 571.572 L 713.607 543.658 L 715.98 543.658 L 716.385 546.295 L 716.525 546.295 L 716.525 546.295 Q 717.65 544.713 719.145 544.01 L 719.145 544.01 L 719.145 544.01 Q 720.639 543.307 722.572 543.307 L 722.572 543.307 L 722.572 543.307 Q 726.404 543.307 728.487 545.926 L 728.487 545.926 L 728.487 545.926 Q 730.57 548.545 730.57 553.274 L 730.57 553.274 L 730.57 553.274 Q 730.57 558.02 728.452 560.648 L 728.452 560.648 L 728.452 560.648 Q 726.334 563.276 722.572 563.276 Z  M 722.15 545.785 L 722.15 545.785 L 722.15 545.785 Q 719.197 545.785 717.879 547.42 L 717.879 547.42 L 717.879 547.42 Q 716.561 549.055 716.525 552.623 L 716.525 552.623 L 716.525 553.274 L 716.525 553.274 Q 716.525 557.334 717.879 559.083 L 717.879 559.083 L 717.879 559.083 Q 719.232 560.832 722.221 560.832 L 722.221 560.832 L 722.221 560.832 Q 724.717 560.832 726.132 558.811 L 726.132 558.811 L 726.132 558.811 Q 727.547 556.789 727.547 553.238 L 727.547 553.238 L 727.547 553.238 Q 727.547 549.635 726.132 547.71 L 726.132 547.71 L 726.132 547.71 Q 724.717 545.785 722.15 545.785 Z  M 735.246 561.061 L 735.246 561.061 L 735.246 561.061 Q 735.246 559.883 735.782 559.276 L 735.782 559.276 L 735.782 559.276 Q 736.318 558.67 737.32 558.67 L 737.32 558.67 L 737.32 558.67 Q 738.34 558.67 738.911 559.276 L 738.911 559.276 L 738.911 559.276 Q 739.482 559.883 739.482 561.061 L 739.482 561.061 L 739.482 561.061 Q 739.482 562.203 738.902 562.818 L 738.902 562.818 L 738.902 562.818 Q 738.322 563.434 737.32 563.434 L 737.32 563.434 L 737.32 563.434 Q 736.424 563.434 735.835 562.88 L 735.835 562.88 L 735.835 562.88 Q 735.246 562.326 735.246 561.061 Z  M 735.246 545.539 L 735.246 545.539 L 735.246 545.539 Q 735.246 543.166 737.32 543.166 L 737.32 543.166 L 737.32 543.166 Q 739.482 543.166 739.482 545.539 L 739.482 545.539 L 739.482 545.539 Q 739.482 546.682 738.902 547.297 L 738.902 547.297 L 738.902 547.297 Q 738.322 547.912 737.32 547.912 L 737.32 547.912 L 737.32 547.912 Q 736.424 547.912 735.835 547.359 L 735.835 547.359 L 735.835 547.359 Q 735.246 546.805 735.246 545.539 Z  M 752.086 537.225 L 755.004 537.225 L 745.424 562.924 L 742.506 562.924 L 752.086 537.225 Z  M 765.305 537.225 L 768.223 537.225 L 758.643 562.924 L 755.725 562.924 L 765.305 537.225 Z  M 771.475 543.658 L 774.428 543.658 L 774.428 556.156 L 774.428 556.156 Q 774.428 558.512 775.5 559.672 L 775.5 559.672 L 775.5 559.672 Q 776.572 560.832 778.857 560.832 L 778.857 560.832 L 778.857 560.832 Q 781.881 560.832 783.278 559.18 L 783.278 559.18 L 783.278 559.18 Q 784.676 557.527 784.676 553.783 L 784.676 553.783 L 784.676 543.658 L 787.594 543.658 L 787.594 562.924 L 785.186 562.924 L 784.764 560.34 L 784.605 560.34 L 784.605 560.34 Q 783.709 561.764 782.118 562.52 L 782.118 562.52 L 782.118 562.52 Q 780.527 563.276 778.488 563.276 L 778.488 563.276 L 778.488 563.276 Q 774.973 563.276 773.224 561.606 L 773.224 561.606 L 773.224 561.606 Q 771.475 559.936 771.475 556.262 L 771.475 556.262 L 771.475 543.658 Z  M 809.883 562.924 L 806.965 562.924 L 806.965 550.461 L 806.965 550.461 Q 806.965 548.106 805.893 546.945 L 805.893 546.945 L 805.893 546.945 Q 804.82 545.785 802.535 545.785 L 802.535 545.785 L 802.535 545.785 Q 799.512 545.785 798.105 547.42 L 798.105 547.42 L 798.105 547.42 Q 796.699 549.055 796.699 552.817 L 796.699 552.817 L 796.699 562.924 L 793.781 562.924 L 793.781 543.658 L 796.154 543.658 L 796.629 546.295 L 796.77 546.295 L 796.77 546.295 Q 797.666 544.871 799.283 544.089 L 799.283 544.089 L 799.283 544.089 Q 800.9 543.307 802.887 543.307 L 802.887 543.307 L 802.887 543.307 Q 806.367 543.307 808.125 544.985 L 808.125 544.985 L 808.125 544.985 Q 809.883 546.664 809.883 550.356 L 809.883 550.356 L 809.883 562.924 Z  M 818.795 543.658 L 818.795 562.924 L 815.877 562.924 L 815.877 543.658 L 818.795 543.658 Z  M 815.631 538.438 L 815.631 538.438 L 815.631 538.438 Q 815.631 537.436 816.123 536.97 L 816.123 536.97 L 816.123 536.97 Q 816.615 536.504 817.354 536.504 L 817.354 536.504 L 817.354 536.504 Q 818.057 536.504 818.566 536.979 L 818.566 536.979 L 818.566 536.979 Q 819.076 537.453 819.076 538.438 L 819.076 538.438 L 819.076 538.438 Q 819.076 539.422 818.566 539.905 L 818.566 539.905 L 818.566 539.905 Q 818.057 540.389 817.354 540.389 L 817.354 540.389 L 817.354 540.389 Q 816.615 540.389 816.123 539.905 L 816.123 539.905 L 816.123 539.905 Q 815.631 539.422 815.631 538.438 Z  M 831.205 560.867 L 831.205 560.867 L 831.205 560.867 Q 831.979 560.867 832.699 560.753 L 832.699 560.753 L 832.699 560.753 Q 833.42 560.639 833.842 560.516 L 833.842 560.516 L 833.842 562.748 L 833.842 562.748 Q 833.367 562.977 832.444 563.126 L 832.444 563.126 L 832.444 563.126 Q 831.521 563.276 830.783 563.276 L 830.783 563.276 L 830.783 563.276 Q 825.193 563.276 825.193 557.387 L 825.193 557.387 L 825.193 545.926 L 822.434 545.926 L 822.434 544.52 L 825.193 543.307 L 826.424 539.193 L 828.111 539.193 L 828.111 543.658 L 833.701 543.658 L 833.701 545.926 L 828.111 545.926 L 828.111 557.264 L 828.111 557.264 Q 828.111 559.004 828.938 559.936 L 828.938 559.936 L 828.938 559.936 Q 829.764 560.867 831.205 560.867 Z  M 845.83 563.276 L 845.83 563.276 L 845.83 563.276 Q 841.559 563.276 839.089 560.674 L 839.089 560.674 L 839.089 560.674 Q 836.619 558.072 836.619 553.449 L 836.619 553.449 L 836.619 553.449 Q 836.619 548.791 838.913 546.049 L 838.913 546.049 L 838.913 546.049 Q 841.207 543.307 845.074 543.307 L 845.074 543.307 L 845.074 543.307 Q 848.695 543.307 850.805 545.689 L 850.805 545.689 L 850.805 545.689 Q 852.914 548.07 852.914 551.973 L 852.914 551.973 L 852.914 553.818 L 839.643 553.818 L 839.643 553.818 Q 839.73 557.211 841.356 558.969 L 841.356 558.969 L 841.356 558.969 Q 842.982 560.727 845.936 560.727 L 845.936 560.727 L 845.936 560.727 Q 849.047 560.727 852.088 559.426 L 852.088 559.426 L 852.088 562.027 L 852.088 562.027 Q 850.541 562.695 849.161 562.985 L 849.161 562.985 L 849.161 562.985 Q 847.781 563.276 845.83 563.276 Z  M 845.039 545.75 L 845.039 545.75 L 845.039 545.75 Q 842.719 545.75 841.339 547.262 L 841.339 547.262 L 841.339 547.262 Q 839.959 548.774 839.713 551.445 L 839.713 551.445 L 849.785 551.445 L 849.785 551.445 Q 849.785 548.686 848.555 547.218 L 848.555 547.218 L 848.555 547.218 Q 847.324 545.75 845.039 545.75 Z  M 855.551 571.572 L 855.551 571.572 L 855.551 571.572 Q 853.881 571.572 852.844 571.133 L 852.844 571.133 L 852.844 568.76 L 852.844 568.76 Q 854.057 569.111 855.234 569.111 L 855.234 569.111 L 855.234 569.111 Q 856.605 569.111 857.247 568.364 L 857.247 568.364 L 857.247 568.364 Q 857.889 567.617 857.889 566.088 L 857.889 566.088 L 857.889 543.658 L 860.807 543.658 L 860.807 565.877 L 860.807 565.877 Q 860.807 571.572 855.551 571.572 Z  M 857.643 538.438 L 857.643 538.438 L 857.643 538.438 Q 857.643 537.436 858.135 536.97 L 858.135 536.97 L 858.135 536.97 Q 858.627 536.504 859.365 536.504 L 859.365 536.504 L 859.365 536.504 Q 860.068 536.504 860.578 536.979 L 860.578 536.979 L 860.578 536.979 Q 861.088 537.453 861.088 538.438 L 861.088 538.438 L 861.088 538.438 Q 861.088 539.422 860.578 539.905 L 860.578 539.905 L 860.578 539.905 Q 860.068 540.389 859.365 540.389 L 859.365 540.389 L 859.365 540.389 Q 858.627 540.389 858.135 539.905 L 858.135 539.905 L 858.135 539.905 Q 857.643 539.422 857.643 538.438 Z  M 879.422 557.668 L 879.422 557.668 L 879.422 557.668 Q 879.422 560.358 877.418 561.817 L 877.418 561.817 L 877.418 561.817 Q 875.414 563.276 871.793 563.276 L 871.793 563.276 L 871.793 563.276 Q 867.961 563.276 865.816 562.063 L 865.816 562.063 L 865.816 559.356 L 865.816 559.356 Q 867.205 560.059 868.796 560.463 L 868.796 560.463 L 868.796 560.463 Q 870.387 560.867 871.863 560.867 L 871.863 560.867 L 871.863 560.867 Q 874.148 560.867 875.379 560.138 L 875.379 560.138 L 875.379 560.138 Q 876.609 559.408 876.609 557.914 L 876.609 557.914 L 876.609 557.914 Q 876.609 556.789 875.634 555.989 L 875.634 555.989 L 875.634 555.989 Q 874.658 555.19 871.828 554.1 L 871.828 554.1 L 871.828 554.1 Q 869.139 553.098 868.005 552.351 L 868.005 552.351 L 868.005 552.351 Q 866.871 551.604 866.317 550.654 L 866.317 550.654 L 866.317 550.654 Q 865.764 549.705 865.764 548.387 L 865.764 548.387 L 865.764 548.387 Q 865.764 546.031 867.68 544.669 L 867.68 544.669 L 867.68 544.669 Q 869.596 543.307 872.936 543.307 L 872.936 543.307 L 872.936 543.307 Q 876.047 543.307 879.018 544.572 L 879.018 544.572 L 877.98 546.945 L 877.98 546.945 Q 875.08 545.75 872.725 545.75 L 872.725 545.75 L 872.725 545.75 Q 870.65 545.75 869.596 546.401 L 869.596 546.401 L 869.596 546.401 Q 868.541 547.051 868.541 548.193 L 868.541 548.193 L 868.541 548.193 Q 868.541 548.967 868.937 549.512 L 868.937 549.512 L 868.937 549.512 Q 869.332 550.057 870.211 550.549 L 870.211 550.549 L 870.211 550.549 Q 871.09 551.041 873.586 551.973 L 873.586 551.973 L 873.586 551.973 Q 877.014 553.221 878.218 554.486 L 878.218 554.486 L 878.218 554.486 Q 879.422 555.752 879.422 557.668 Z  M 883.746 561.061 L 883.746 561.061 L 883.746 561.061 Q 883.746 559.883 884.282 559.276 L 884.282 559.276 L 884.282 559.276 Q 884.818 558.67 885.82 558.67 L 885.82 558.67 L 885.82 558.67 Q 886.84 558.67 887.411 559.276 L 887.411 559.276 L 887.411 559.276 Q 887.982 559.883 887.982 561.061 L 887.982 561.061 L 887.982 561.061 Q 887.982 562.203 887.402 562.818 L 887.402 562.818 L 887.402 562.818 Q 886.822 563.434 885.82 563.434 L 885.82 563.434 L 885.82 563.434 Q 884.924 563.434 884.335 562.88 L 884.335 562.88 L 884.335 562.88 Q 883.746 562.326 883.746 561.061 Z  M 901.447 563.276 L 901.447 563.276 L 901.447 563.276 Q 897.264 563.276 894.97 560.7 L 894.97 560.7 L 894.97 560.7 Q 892.676 558.125 892.676 553.414 L 892.676 553.414 L 892.676 553.414 Q 892.676 548.58 895.005 545.943 L 895.005 545.943 L 895.005 545.943 Q 897.334 543.307 901.641 543.307 L 901.641 543.307 L 901.641 543.307 Q 903.029 543.307 904.418 543.606 L 904.418 543.606 L 904.418 543.606 Q 905.807 543.904 906.598 544.309 L 906.598 544.309 L 905.701 546.787 L 905.701 546.787 Q 904.734 546.401 903.592 546.146 L 903.592 546.146 L 903.592 546.146 Q 902.449 545.891 901.57 545.891 L 901.57 545.891 L 901.57 545.891 Q 895.699 545.891 895.699 553.379 L 895.699 553.379 L 895.699 553.379 Q 895.699 556.93 897.132 558.828 L 897.132 558.828 L 897.132 558.828 Q 898.564 560.727 901.377 560.727 L 901.377 560.727 L 901.377 560.727 Q 903.785 560.727 906.316 559.69 L 906.316 559.69 L 906.316 562.274 L 906.316 562.274 Q 904.383 563.276 901.447 563.276 Z  M 927.516 553.274 L 927.516 553.274 L 927.516 553.274 Q 927.516 557.984 925.143 560.63 L 925.143 560.63 L 925.143 560.63 Q 922.77 563.276 918.586 563.276 L 918.586 563.276 L 918.586 563.276 Q 916.002 563.276 913.998 562.063 L 913.998 562.063 L 913.998 562.063 Q 911.994 560.85 910.904 558.582 L 910.904 558.582 L 910.904 558.582 Q 909.814 556.315 909.814 553.274 L 909.814 553.274 L 909.814 553.274 Q 909.814 548.563 912.17 545.935 L 912.17 545.935 L 912.17 545.935 Q 914.525 543.307 918.709 543.307 L 918.709 543.307 L 918.709 543.307 Q 922.752 543.307 925.134 545.996 L 925.134 545.996 L 925.134 545.996 Q 927.516 548.686 927.516 553.274 Z  M 912.838 553.274 L 912.838 553.274 L 912.838 553.274 Q 912.838 556.965 914.314 558.899 L 914.314 558.899 L 914.314 558.899 Q 915.791 560.832 918.656 560.832 L 918.656 560.832 L 918.656 560.832 Q 921.521 560.832 923.007 558.907 L 923.007 558.907 L 923.007 558.907 Q 924.492 556.983 924.492 553.274 L 924.492 553.274 L 924.492 553.274 Q 924.492 549.6 923.007 547.693 L 923.007 547.693 L 923.007 547.693 Q 921.521 545.785 918.621 545.785 L 918.621 545.785 L 918.621 545.785 Q 915.756 545.785 914.297 547.666 L 914.297 547.666 L 914.297 547.666 Q 912.838 549.547 912.838 553.274 Z  M 960.105 562.924 L 957.188 562.924 L 957.188 550.391 L 957.188 550.391 Q 957.188 548.088 956.203 546.937 L 956.203 546.937 L 956.203 546.937 Q 955.219 545.785 953.145 545.785 L 953.145 545.785 L 953.145 545.785 Q 950.42 545.785 949.119 547.35 L 949.119 547.35 L 949.119 547.35 Q 947.818 548.914 947.818 552.166 L 947.818 552.166 L 947.818 562.924 L 944.9 562.924 L 944.9 550.391 L 944.9 550.391 Q 944.9 548.088 943.916 546.937 L 943.916 546.937 L 943.916 546.937 Q 942.932 545.785 940.84 545.785 L 940.84 545.785 L 940.84 545.785 Q 938.098 545.785 936.823 547.429 L 936.823 547.429 L 936.823 547.429 Q 935.549 549.072 935.549 552.817 L 935.549 552.817 L 935.549 562.924 L 932.631 562.924 L 932.631 543.658 L 935.004 543.658 L 935.479 546.295 L 935.619 546.295 L 935.619 546.295 Q 936.445 544.889 937.948 544.098 L 937.948 544.098 L 937.948 544.098 Q 939.451 543.307 941.314 543.307 L 941.314 543.307 L 941.314 543.307 Q 945.832 543.307 947.221 546.576 L 947.221 546.576 L 947.361 546.576 L 947.361 546.576 Q 948.223 545.065 949.857 544.186 L 949.857 544.186 L 949.857 544.186 Q 951.492 543.307 953.584 543.307 L 953.584 543.307 L 953.584 543.307 Q 956.854 543.307 958.479 544.985 L 958.479 544.985 L 958.479 544.985 Q 960.105 546.664 960.105 550.356 L 960.105 550.356 L 960.105 562.924 Z " fill-rule="evenodd" fill="rgb(255,255,255)"/><path d=" M 913.039 380.117 L 913.039 380.117 L 913.039 380.117 Q 915.242 380.117 916.883 379.742 L 916.883 379.742 L 916.883 381.617 L 916.883 381.617 Q 915.195 382.18 912.992 382.18 L 912.992 382.18 L 912.992 382.18 Q 909.617 382.18 908.012 380.375 L 908.012 380.375 L 908.012 380.375 Q 906.406 378.57 906.406 374.703 L 906.406 374.703 L 906.406 358.25 L 902.633 358.25 L 902.633 356.891 L 906.406 355.836 L 907.578 350.07 L 908.773 350.07 L 908.773 356.234 L 916.25 356.234 L 916.25 358.25 L 908.773 358.25 L 908.773 374.375 L 908.773 374.375 Q 908.773 377.305 909.805 378.711 L 909.805 378.711 L 909.805 378.711 Q 910.836 380.117 913.039 380.117 Z  M 943.461 368.938 L 943.461 368.938 L 943.461 368.938 Q 943.461 375.172 940.438 378.676 L 940.438 378.676 L 940.438 378.676 Q 937.414 382.18 932.094 382.18 L 932.094 382.18 L 932.094 382.18 Q 928.742 382.18 926.188 380.563 L 926.188 380.563 L 926.188 380.563 Q 923.633 378.945 922.273 375.922 L 922.273 375.922 L 922.273 375.922 Q 920.914 372.898 920.914 368.938 L 920.914 368.938 L 920.914 368.938 Q 920.914 362.703 923.938 359.223 L 923.938 359.223 L 923.938 359.223 Q 926.961 355.742 932.234 355.742 L 932.234 355.742 L 932.234 355.742 Q 937.484 355.742 940.473 359.27 L 940.473 359.27 L 940.473 359.27 Q 943.461 362.797 943.461 368.938 Z  M 923.352 368.938 L 923.352 368.938 L 923.352 368.938 Q 923.352 374.188 925.66 377.129 L 925.66 377.129 L 925.66 377.129 Q 927.969 380.07 932.188 380.07 L 932.188 380.07 L 932.188 380.07 Q 936.406 380.07 938.715 377.129 L 938.715 377.129 L 938.715 377.129 Q 941.023 374.188 941.023 368.938 L 941.023 368.938 L 941.023 368.938 Q 941.023 363.664 938.691 360.758 L 938.691 360.758 L 938.691 360.758 Q 936.359 357.852 932.141 357.852 L 932.141 357.852 L 932.141 357.852 Q 927.922 357.852 925.637 360.746 L 925.637 360.746 L 925.637 360.746 Q 923.352 363.641 923.352 368.938 Z  M 971.586 368.938 L 971.586 368.938 L 971.586 368.938 Q 971.586 375.172 968.563 378.676 L 968.563 378.676 L 968.563 378.676 Q 965.539 382.18 960.219 382.18 L 960.219 382.18 L 960.219 382.18 Q 956.867 382.18 954.313 380.563 L 954.313 380.563 L 954.313 380.563 Q 951.758 378.945 950.398 375.922 L 950.398 375.922 L 950.398 375.922 Q 949.039 372.898 949.039 368.938 L 949.039 368.938 L 949.039 368.938 Q 949.039 362.703 952.063 359.223 L 952.063 359.223 L 952.063 359.223 Q 955.086 355.742 960.359 355.742 L 960.359 355.742 L 960.359 355.742 Q 965.609 355.742 968.598 359.27 L 968.598 359.27 L 968.598 359.27 Q 971.586 362.797 971.586 368.938 Z  M 951.477 368.938 L 951.477 368.938 L 951.477 368.938 Q 951.477 374.188 953.785 377.129 L 953.785 377.129 L 953.785 377.129 Q 956.094 380.07 960.313 380.07 L 960.313 380.07 L 960.313 380.07 Q 964.531 380.07 966.84 377.129 L 966.84 377.129 L 966.84 377.129 Q 969.148 374.188 969.148 368.938 L 969.148 368.938 L 969.148 368.938 Q 969.148 363.664 966.816 360.758 L 966.816 360.758 L 966.816 360.758 Q 964.484 357.852 960.266 357.852 L 960.266 357.852 L 960.266 357.852 Q 956.047 357.852 953.762 360.746 L 953.762 360.746 L 953.762 360.746 Q 951.477 363.641 951.477 368.938 Z  M 980.961 345.242 L 980.961 381.711 L 978.641 381.711 L 978.641 345.242 L 980.961 345.242 Z  M 989.023 379.883 L 989.023 379.883 L 989.023 379.883 Q 989.023 377.586 990.898 377.586 L 990.898 377.586 L 990.898 377.586 Q 992.82 377.586 992.82 379.883 L 992.82 379.883 L 992.82 379.883 Q 992.82 382.18 990.898 382.18 L 990.898 382.18 L 990.898 382.18 Q 989.023 382.18 989.023 379.883 Z  M 671.984 356.234 L 680.141 356.234 L 680.141 357.852 L 674.867 358.18 L 674.867 358.18 Q 676.977 360.805 676.977 363.945 L 676.977 363.945 L 676.977 363.945 Q 676.977 367.625 674.527 369.91 L 674.527 369.91 L 674.527 369.91 Q 672.078 372.195 667.953 372.195 L 667.953 372.195 L 667.953 372.195 Q 666.219 372.195 665.516 372.055 L 665.516 372.055 L 665.516 372.055 Q 664.133 372.781 663.406 373.766 L 663.406 373.766 L 663.406 373.766 Q 662.68 374.75 662.68 375.852 L 662.68 375.852 L 662.68 375.852 Q 662.68 377.07 663.605 377.633 L 663.605 377.633 L 663.605 377.633 Q 664.531 378.195 666.711 378.195 L 666.711 378.195 L 671.164 378.195 L 671.164 378.195 Q 675.313 378.195 677.516 379.871 L 677.516 379.871 L 677.516 379.871 Q 679.719 381.547 679.719 384.828 L 679.719 384.828 L 679.719 384.828 Q 679.719 388.859 676.449 391.051 L 676.449 391.051 L 676.449 391.051 Q 673.18 393.242 667.133 393.242 L 667.133 393.242 L 667.133 393.242 Q 662.328 393.242 659.691 391.391 L 659.691 391.391 L 659.691 391.391 Q 657.055 389.539 657.055 386.234 L 657.055 386.234 L 657.055 386.234 Q 657.055 383.609 658.684 381.875 L 658.684 381.875 L 658.684 381.875 Q 660.313 380.141 663.102 379.508 L 663.102 379.508 L 663.102 379.508 Q 661.953 379.016 661.262 378.113 L 661.262 378.113 L 661.262 378.113 Q 660.57 377.211 660.57 376.039 L 660.57 376.039 L 660.57 376.039 Q 660.57 373.484 663.828 371.539 L 663.828 371.539 L 663.828 371.539 Q 661.602 370.625 660.359 368.668 L 660.359 368.668 L 660.359 368.668 Q 659.117 366.711 659.117 364.18 L 659.117 364.18 L 659.117 364.18 Q 659.117 360.359 661.543 358.051 L 661.543 358.051 L 661.543 358.051 Q 663.969 355.742 668.094 355.742 L 668.094 355.742 L 668.094 355.742 Q 670.602 355.742 671.984 356.234 L 671.984 356.234 Z  M 659.516 386.023 L 659.516 386.023 L 659.516 386.023 Q 659.516 391.273 667.32 391.273 L 667.32 391.273 L 667.32 391.273 Q 677.352 391.273 677.352 384.875 L 677.352 384.875 L 677.352 384.875 Q 677.352 382.578 675.781 381.547 L 675.781 381.547 L 675.781 381.547 Q 674.211 380.516 670.695 380.516 L 670.695 380.516 L 666.523 380.516 L 666.523 380.516 Q 659.516 380.516 659.516 386.023 Z  M 661.461 364.18 L 661.461 364.18 L 661.461 364.18 Q 661.461 367.133 663.254 368.762 L 663.254 368.762 L 663.254 368.762 Q 665.047 370.391 668.047 370.391 L 668.047 370.391 L 668.047 370.391 Q 671.234 370.391 672.934 368.773 L 672.934 368.773 L 672.934 368.773 Q 674.633 367.156 674.633 364.086 L 674.633 364.086 L 674.633 364.086 Q 674.633 360.828 672.887 359.199 L 672.887 359.199 L 672.887 359.199 Q 671.141 357.57 668 357.57 L 668 357.57 L 668 357.57 Q 664.953 357.57 663.207 359.316 L 663.207 359.316 L 663.207 359.316 Q 661.461 361.063 661.461 364.18 Z  M 695.656 382.18 L 695.656 382.18 L 695.656 382.18 Q 690.102 382.18 686.996 378.758 L 686.996 378.758 L 686.996 378.758 Q 683.891 375.336 683.891 369.172 L 683.891 369.172 L 683.891 369.172 Q 683.891 363.078 686.891 359.41 L 686.891 359.41 L 686.891 359.41 Q 689.891 355.742 694.977 355.742 L 694.977 355.742 L 694.977 355.742 Q 699.477 355.742 702.078 358.883 L 702.078 358.883 L 702.078 358.883 Q 704.68 362.023 704.68 367.414 L 704.68 367.414 L 704.68 369.289 L 686.328 369.289 L 686.328 369.289 Q 686.375 374.539 688.777 377.305 L 688.777 377.305 L 688.777 377.305 Q 691.18 380.07 695.656 380.07 L 695.656 380.07 L 695.656 380.07 Q 697.836 380.07 699.488 379.766 L 699.488 379.766 L 699.488 379.766 Q 701.141 379.461 703.672 378.453 L 703.672 378.453 L 703.672 380.563 L 703.672 380.563 Q 701.516 381.5 699.688 381.84 L 699.688 381.84 L 699.688 381.84 Q 697.859 382.18 695.656 382.18 Z  M 694.977 357.805 L 694.977 357.805 L 694.977 357.805 Q 691.297 357.805 689.07 360.231 L 689.07 360.231 L 689.07 360.231 Q 686.844 362.656 686.469 367.227 L 686.469 367.227 L 702.219 367.227 L 702.219 367.227 Q 702.219 362.797 700.297 360.301 L 700.297 360.301 L 700.297 360.301 Q 698.375 357.805 694.977 357.805 Z  M 731.773 381.711 L 729.477 381.711 L 729.477 365.188 L 729.477 365.188 Q 729.477 361.344 727.859 359.598 L 727.859 359.598 L 727.859 359.598 Q 726.242 357.852 722.844 357.852 L 722.844 357.852 L 722.844 357.852 Q 718.273 357.852 716.152 360.16 L 716.152 360.16 L 716.152 360.16 Q 714.031 362.469 714.031 367.648 L 714.031 367.648 L 714.031 381.711 L 711.711 381.711 L 711.711 356.234 L 713.68 356.234 L 714.125 359.727 L 714.266 359.727 L 714.266 359.727 Q 716.75 355.742 723.102 355.742 L 723.102 355.742 L 723.102 355.742 Q 731.773 355.742 731.773 365.047 L 731.773 365.047 L 731.773 381.711 Z  M 750.313 382.18 L 750.313 382.18 L 750.313 382.18 Q 744.758 382.18 741.652 378.758 L 741.652 378.758 L 741.652 378.758 Q 738.547 375.336 738.547 369.172 L 738.547 369.172 L 738.547 369.172 Q 738.547 363.078 741.547 359.41 L 741.547 359.41 L 741.547 359.41 Q 744.547 355.742 749.633 355.742 L 749.633 355.742 L 749.633 355.742 Q 754.133 355.742 756.734 358.883 L 756.734 358.883 L 756.734 358.883 Q 759.336 362.023 759.336 367.414 L 759.336 367.414 L 759.336 369.289 L 740.984 369.289 L 740.984 369.289 Q 741.031 374.539 743.434 377.305 L 743.434 377.305 L 743.434 377.305 Q 745.836 380.07 750.313 380.07 L 750.313 380.07 L 750.313 380.07 Q 752.492 380.07 754.145 379.766 L 754.145 379.766 L 754.145 379.766 Q 755.797 379.461 758.328 378.453 L 758.328 378.453 L 758.328 380.563 L 758.328 380.563 Q 756.172 381.5 754.344 381.84 L 754.344 381.84 L 754.344 381.84 Q 752.516 382.18 750.313 382.18 Z  M 749.633 357.805 L 749.633 357.805 L 749.633 357.805 Q 745.953 357.805 743.727 360.231 L 743.727 360.231 L 743.727 360.231 Q 741.5 362.656 741.125 367.227 L 741.125 367.227 L 756.875 367.227 L 756.875 367.227 Q 756.875 362.797 754.953 360.301 L 754.953 360.301 L 754.953 360.301 Q 753.031 357.805 749.633 357.805 Z  M 776.398 355.742 L 776.398 355.742 L 776.398 355.742 Q 778.016 355.742 779.867 356.07 L 779.867 356.07 L 779.422 358.297 L 779.422 358.297 Q 777.828 357.898 776.117 357.898 L 776.117 357.898 L 776.117 357.898 Q 772.859 357.898 770.773 360.664 L 770.773 360.664 L 770.773 360.664 Q 768.688 363.43 768.688 367.648 L 768.688 367.648 L 768.688 381.711 L 766.367 381.711 L 766.367 356.234 L 768.336 356.234 L 768.57 360.828 L 768.734 360.828 L 768.734 360.828 Q 770.305 358.016 772.086 356.879 L 772.086 356.879 L 772.086 356.879 Q 773.867 355.742 776.398 355.742 Z  M 802.227 381.711 L 800.516 381.711 L 799.93 377.68 L 799.742 377.68 L 799.742 377.68 Q 797.82 380.141 795.793 381.16 L 795.793 381.16 L 795.793 381.16 Q 793.766 382.18 791 382.18 L 791 382.18 L 791 382.18 Q 787.25 382.18 785.164 380.258 L 785.164 380.258 L 785.164 380.258 Q 783.078 378.336 783.078 374.938 L 783.078 374.938 L 783.078 374.938 Q 783.078 371.211 786.184 369.148 L 786.184 369.148 L 786.184 369.148 Q 789.289 367.086 795.172 366.969 L 795.172 366.969 L 800.023 366.828 L 800.023 365.141 L 800.023 365.141 Q 800.023 361.508 798.547 359.656 L 798.547 359.656 L 798.547 359.656 Q 797.07 357.805 793.789 357.805 L 793.789 357.805 L 793.789 357.805 Q 790.25 357.805 786.453 359.773 L 786.453 359.773 L 785.586 357.758 L 785.586 357.758 Q 789.781 355.789 793.883 355.789 L 793.883 355.789 L 793.883 355.789 Q 798.078 355.789 800.152 357.969 L 800.152 357.969 L 800.152 357.969 Q 802.227 360.148 802.227 364.766 L 802.227 364.766 L 802.227 381.711 Z  M 791.141 380.07 L 791.141 380.07 L 791.141 380.07 Q 795.219 380.07 797.574 377.738 L 797.574 377.738 L 797.574 377.738 Q 799.93 375.406 799.93 371.258 L 799.93 371.258 L 799.93 368.75 L 795.477 368.938 L 795.477 368.938 Q 790.109 369.195 787.824 370.613 L 787.824 370.613 L 787.824 370.613 Q 785.539 372.031 785.539 375.031 L 785.539 375.031 L 785.539 375.031 Q 785.539 377.422 787.004 378.746 L 787.004 378.746 L 787.004 378.746 Q 788.469 380.07 791.141 380.07 Z  M 817.203 380.117 L 817.203 380.117 L 817.203 380.117 Q 819.406 380.117 821.047 379.742 L 821.047 379.742 L 821.047 381.617 L 821.047 381.617 Q 819.359 382.18 817.156 382.18 L 817.156 382.18 L 817.156 382.18 Q 813.781 382.18 812.176 380.375 L 812.176 380.375 L 812.176 380.375 Q 810.57 378.57 810.57 374.703 L 810.57 374.703 L 810.57 358.25 L 806.797 358.25 L 806.797 356.891 L 810.57 355.836 L 811.742 350.07 L 812.938 350.07 L 812.938 356.234 L 820.414 356.234 L 820.414 358.25 L 812.938 358.25 L 812.938 374.375 L 812.938 374.375 Q 812.938 377.305 813.969 378.711 L 813.969 378.711 L 813.969 378.711 Q 815 380.117 817.203 380.117 Z  M 828.875 356.234 L 828.875 381.711 L 826.555 381.711 L 826.555 356.234 L 828.875 356.234 Z  M 826.227 349.156 L 826.227 349.156 L 826.227 349.156 Q 826.227 346.906 827.703 346.906 L 827.703 346.906 L 827.703 346.906 Q 828.43 346.906 828.84 347.492 L 828.84 347.492 L 828.84 347.492 Q 829.25 348.078 829.25 349.156 L 829.25 349.156 L 829.25 349.156 Q 829.25 350.211 828.84 350.82 L 828.84 350.82 L 828.84 350.82 Q 828.43 351.43 827.703 351.43 L 827.703 351.43 L 827.703 351.43 Q 826.227 351.43 826.227 349.156 Z  M 858.477 368.938 L 858.477 368.938 L 858.477 368.938 Q 858.477 375.172 855.453 378.676 L 855.453 378.676 L 855.453 378.676 Q 852.43 382.18 847.109 382.18 L 847.109 382.18 L 847.109 382.18 Q 843.758 382.18 841.203 380.563 L 841.203 380.563 L 841.203 380.563 Q 838.648 378.945 837.289 375.922 L 837.289 375.922 L 837.289 375.922 Q 835.93 372.898 835.93 368.938 L 835.93 368.938 L 835.93 368.938 Q 835.93 362.703 838.953 359.223 L 838.953 359.223 L 838.953 359.223 Q 841.977 355.742 847.25 355.742 L 847.25 355.742 L 847.25 355.742 Q 852.5 355.742 855.488 359.27 L 855.488 359.27 L 855.488 359.27 Q 858.477 362.797 858.477 368.938 Z  M 838.367 368.938 L 838.367 368.938 L 838.367 368.938 Q 838.367 374.188 840.676 377.129 L 840.676 377.129 L 840.676 377.129 Q 842.984 380.07 847.203 380.07 L 847.203 380.07 L 847.203 380.07 Q 851.422 380.07 853.73 377.129 L 853.73 377.129 L 853.73 377.129 Q 856.039 374.188 856.039 368.938 L 856.039 368.938 L 856.039 368.938 Q 856.039 363.664 853.707 360.758 L 853.707 360.758 L 853.707 360.758 Q 851.375 357.852 847.156 357.852 L 847.156 357.852 L 847.156 357.852 Q 842.938 357.852 840.652 360.746 L 840.652 360.746 L 840.652 360.746 Q 838.367 363.641 838.367 368.938 Z  M 885.594 381.711 L 883.297 381.711 L 883.297 365.188 L 883.297 365.188 Q 883.297 361.344 881.68 359.598 L 881.68 359.598 L 881.68 359.598 Q 880.063 357.852 876.664 357.852 L 876.664 357.852 L 876.664 357.852 Q 872.094 357.852 869.973 360.16 L 869.973 360.16 L 869.973 360.16 Q 867.852 362.469 867.852 367.648 L 867.852 367.648 L 867.852 381.711 L 865.531 381.711 L 865.531 356.234 L 867.5 356.234 L 867.945 359.727 L 868.086 359.727 L 868.086 359.727 Q 870.57 355.742 876.922 355.742 L 876.922 355.742 L 876.922 355.742 Q 885.594 355.742 885.594 365.047 L 885.594 365.047 L 885.594 381.711 Z  M 779.539 316.344 L 777.828 316.344 L 777.242 312.313 L 777.055 312.313 L 777.055 312.313 Q 775.133 314.773 773.105 315.793 L 773.105 315.793 L 773.105 315.793 Q 771.078 316.813 768.313 316.813 L 768.313 316.813 L 768.313 316.813 Q 764.563 316.813 762.477 314.891 L 762.477 314.891 L 762.477 314.891 Q 760.391 312.969 760.391 309.57 L 760.391 309.57 L 760.391 309.57 Q 760.391 305.844 763.496 303.781 L 763.496 303.781 L 763.496 303.781 Q 766.602 301.719 772.484 301.602 L 772.484 301.602 L 777.336 301.461 L 777.336 299.773 L 777.336 299.773 Q 777.336 296.141 775.859 294.289 L 775.859 294.289 L 775.859 294.289 Q 774.383 292.438 771.102 292.438 L 771.102 292.438 L 771.102 292.438 Q 767.563 292.438 763.766 294.406 L 763.766 294.406 L 762.898 292.391 L 762.898 292.391 Q 767.094 290.422 771.195 290.422 L 771.195 290.422 L 771.195 290.422 Q 775.391 290.422 777.465 292.602 L 777.465 292.602 L 777.465 292.602 Q 779.539 294.781 779.539 299.398 L 779.539 299.398 L 779.539 316.344 Z  M 768.453 314.703 L 768.453 314.703 L 768.453 314.703 Q 772.531 314.703 774.887 312.371 L 774.887 312.371 L 774.887 312.371 Q 777.242 310.039 777.242 305.891 L 777.242 305.891 L 777.242 303.383 L 772.789 303.57 L 772.789 303.57 Q 767.422 303.828 765.137 305.246 L 765.137 305.246 L 765.137 305.246 Q 762.852 306.664 762.852 309.664 L 762.852 309.664 L 762.852 309.664 Q 762.852 312.055 764.316 313.379 L 764.316 313.379 L 764.316 313.379 Q 765.781 314.703 768.453 314.703 Z  M 798.688 316.813 L 798.688 316.813 L 798.688 316.813 Q 792.805 316.813 790.109 312.406 L 790.109 312.406 L 789.945 312.406 L 790.016 314.375 L 790.016 314.375 Q 790.109 316.109 790.109 318.172 L 790.109 318.172 L 790.109 327.875 L 787.789 327.875 L 787.789 290.867 L 789.758 290.867 L 790.203 294.5 L 790.344 294.5 L 790.344 294.5 Q 792.969 290.375 798.734 290.375 L 798.734 290.375 L 798.734 290.375 Q 803.891 290.375 806.598 293.762 L 806.598 293.762 L 806.598 293.762 Q 809.305 297.148 809.305 303.617 L 809.305 303.617 L 809.305 303.617 Q 809.305 309.898 806.457 313.356 L 806.457 313.356 L 806.457 313.356 Q 803.609 316.813 798.688 316.813 Z  M 798.641 314.75 L 798.641 314.75 L 798.641 314.75 Q 802.555 314.75 804.699 311.844 L 804.699 311.844 L 804.699 311.844 Q 806.844 308.938 806.844 303.711 L 806.844 303.711 L 806.844 303.711 Q 806.844 292.484 798.734 292.484 L 798.734 292.484 L 798.734 292.484 Q 794.281 292.484 792.195 294.934 L 792.195 294.934 L 792.195 294.934 Q 790.109 297.383 790.109 302.914 L 790.109 302.914 L 790.109 303.664 L 790.109 303.664 Q 790.109 309.641 792.113 312.195 L 792.113 312.195 L 792.113 312.195 Q 794.117 314.75 798.641 314.75 Z  M 827.258 316.813 L 827.258 316.813 L 827.258 316.813 Q 821.375 316.813 818.68 312.406 L 818.68 312.406 L 818.516 312.406 L 818.586 314.375 L 818.586 314.375 Q 818.68 316.109 818.68 318.172 L 818.68 318.172 L 818.68 327.875 L 816.359 327.875 L 816.359 290.867 L 818.328 290.867 L 818.773 294.5 L 818.914 294.5 L 818.914 294.5 Q 821.539 290.375 827.305 290.375 L 827.305 290.375 L 827.305 290.375 Q 832.461 290.375 835.168 293.762 L 835.168 293.762 L 835.168 293.762 Q 837.875 297.148 837.875 303.617 L 837.875 303.617 L 837.875 303.617 Q 837.875 309.898 835.027 313.356 L 835.027 313.356 L 835.027 313.356 Q 832.18 316.813 827.258 316.813 Z  M 827.211 314.75 L 827.211 314.75 L 827.211 314.75 Q 831.125 314.75 833.27 311.844 L 833.27 311.844 L 833.27 311.844 Q 835.414 308.938 835.414 303.711 L 835.414 303.711 L 835.414 303.711 Q 835.414 292.484 827.305 292.484 L 827.305 292.484 L 827.305 292.484 Q 822.852 292.484 820.766 294.934 L 820.766 294.934 L 820.766 294.934 Q 818.68 297.383 818.68 302.914 L 818.68 302.914 L 818.68 303.664 L 818.68 303.664 Q 818.68 309.641 820.684 312.195 L 820.684 312.195 L 820.684 312.195 Q 822.688 314.75 827.211 314.75 Z  M 847.25 279.875 L 847.25 316.344 L 844.93 316.344 L 844.93 279.875 L 847.25 279.875 Z  M 858.102 290.867 L 858.102 316.344 L 855.781 316.344 L 855.781 290.867 L 858.102 290.867 Z  M 855.453 283.789 L 855.453 283.789 L 855.453 283.789 Q 855.453 281.539 856.93 281.539 L 856.93 281.539 L 856.93 281.539 Q 857.656 281.539 858.066 282.125 L 858.066 282.125 L 858.066 282.125 Q 858.477 282.711 858.477 283.789 L 858.477 283.789 L 858.477 283.789 Q 858.477 284.844 858.066 285.453 L 858.066 285.453 L 858.066 285.453 Q 857.656 286.063 856.93 286.063 L 856.93 286.063 L 856.93 286.063 Q 855.453 286.063 855.453 283.789 Z  M 876.805 316.813 L 876.805 316.813 L 876.805 316.813 Q 871.344 316.813 868.25 313.367 L 868.25 313.367 L 868.25 313.367 Q 865.156 309.922 865.156 303.758 L 865.156 303.758 L 865.156 303.758 Q 865.156 297.43 868.367 293.902 L 868.367 293.902 L 868.367 293.902 Q 871.578 290.375 877.156 290.375 L 877.156 290.375 L 877.156 290.375 Q 880.461 290.375 883.484 291.523 L 883.484 291.523 L 882.852 293.586 L 882.852 293.586 Q 879.547 292.484 877.109 292.484 L 877.109 292.484 L 877.109 292.484 Q 872.422 292.484 870.008 295.379 L 870.008 295.379 L 870.008 295.379 Q 867.594 298.273 867.594 303.711 L 867.594 303.711 L 867.594 303.711 Q 867.594 308.867 870.008 311.785 L 870.008 311.785 L 870.008 311.785 Q 872.422 314.703 876.758 314.703 L 876.758 314.703 L 876.758 314.703 Q 880.227 314.703 883.203 313.461 L 883.203 313.461 L 883.203 315.617 L 883.203 315.617 Q 880.766 316.813 876.805 316.813 Z  M 906.617 316.344 L 904.906 316.344 L 904.32 312.313 L 904.133 312.313 L 904.133 312.313 Q 902.211 314.773 900.184 315.793 L 900.184 315.793 L 900.184 315.793 Q 898.156 316.813 895.391 316.813 L 895.391 316.813 L 895.391 316.813 Q 891.641 316.813 889.555 314.891 L 889.555 314.891 L 889.555 314.891 Q 887.469 312.969 887.469 309.57 L 887.469 309.57 L 887.469 309.57 Q 887.469 305.844 890.574 303.781 L 890.574 303.781 L 890.574 303.781 Q 893.68 301.719 899.563 301.602 L 899.563 301.602 L 904.414 301.461 L 904.414 299.773 L 904.414 299.773 Q 904.414 296.141 902.938 294.289 L 902.938 294.289 L 902.938 294.289 Q 901.461 292.438 898.18 292.438 L 898.18 292.438 L 898.18 292.438 Q 894.641 292.438 890.844 294.406 L 890.844 294.406 L 889.977 292.391 L 889.977 292.391 Q 894.172 290.422 898.273 290.422 L 898.273 290.422 L 898.273 290.422 Q 902.469 290.422 904.543 292.602 L 904.543 292.602 L 904.543 292.602 Q 906.617 294.781 906.617 299.398 L 906.617 299.398 L 906.617 316.344 Z  M 895.531 314.703 L 895.531 314.703 L 895.531 314.703 Q 899.609 314.703 901.965 312.371 L 901.965 312.371 L 901.965 312.371 Q 904.32 310.039 904.32 305.891 L 904.32 305.891 L 904.32 303.383 L 899.867 303.57 L 899.867 303.57 Q 894.5 303.828 892.215 305.246 L 892.215 305.246 L 892.215 305.246 Q 889.93 306.664 889.93 309.664 L 889.93 309.664 L 889.93 309.664 Q 889.93 312.055 891.395 313.379 L 891.395 313.379 L 891.395 313.379 Q 892.859 314.703 895.531 314.703 Z  M 921.594 314.75 L 921.594 314.75 L 921.594 314.75 Q 923.797 314.75 925.438 314.375 L 925.438 314.375 L 925.438 316.25 L 925.438 316.25 Q 923.75 316.813 921.547 316.813 L 921.547 316.813 L 921.547 316.813 Q 918.172 316.813 916.566 315.008 L 916.566 315.008 L 916.566 315.008 Q 914.961 313.203 914.961 309.336 L 914.961 309.336 L 914.961 292.883 L 911.188 292.883 L 911.188 291.523 L 914.961 290.469 L 916.133 284.703 L 917.328 284.703 L 917.328 290.867 L 924.805 290.867 L 924.805 292.883 L 917.328 292.883 L 917.328 309.008 L 917.328 309.008 Q 917.328 311.938 918.359 313.344 L 918.359 313.344 L 918.359 313.344 Q 919.391 314.75 921.594 314.75 Z  M 933.266 290.867 L 933.266 316.344 L 930.945 316.344 L 930.945 290.867 L 933.266 290.867 Z  M 930.617 283.789 L 930.617 283.789 L 930.617 283.789 Q 930.617 281.539 932.094 281.539 L 932.094 281.539 L 932.094 281.539 Q 932.82 281.539 933.23 282.125 L 933.23 282.125 L 933.23 282.125 Q 933.641 282.711 933.641 283.789 L 933.641 283.789 L 933.641 283.789 Q 933.641 284.844 933.23 285.453 L 933.23 285.453 L 933.23 285.453 Q 932.82 286.063 932.094 286.063 L 932.094 286.063 L 932.094 286.063 Q 930.617 286.063 930.617 283.789 Z  M 962.867 303.57 L 962.867 303.57 L 962.867 303.57 Q 962.867 309.805 959.844 313.309 L 959.844 313.309 L 959.844 313.309 Q 956.82 316.813 951.5 316.813 L 951.5 316.813 L 951.5 316.813 Q 948.148 316.813 945.594 315.195 L 945.594 315.195 L 945.594 315.195 Q 943.039 313.578 941.68 310.555 L 941.68 310.555 L 941.68 310.555 Q 940.32 307.531 940.32 303.57 L 940.32 303.57 L 940.32 303.57 Q 940.32 297.336 943.344 293.856 L 943.344 293.856 L 943.344 293.856 Q 946.367 290.375 951.641 290.375 L 951.641 290.375 L 951.641 290.375 Q 956.891 290.375 959.879 293.902 L 959.879 293.902 L 959.879 293.902 Q 962.867 297.43 962.867 303.57 Z  M 942.758 303.57 L 942.758 303.57 L 942.758 303.57 Q 942.758 308.82 945.066 311.762 L 945.066 311.762 L 945.066 311.762 Q 947.375 314.703 951.594 314.703 L 951.594 314.703 L 951.594 314.703 Q 955.813 314.703 958.121 311.762 L 958.121 311.762 L 958.121 311.762 Q 960.43 308.82 960.43 303.57 L 960.43 303.57 L 960.43 303.57 Q 960.43 298.297 958.098 295.391 L 958.098 295.391 L 958.098 295.391 Q 955.766 292.484 951.547 292.484 L 951.547 292.484 L 951.547 292.484 Q 947.328 292.484 945.043 295.379 L 945.043 295.379 L 945.043 295.379 Q 942.758 298.273 942.758 303.57 Z  M 989.984 316.344 L 987.688 316.344 L 987.688 299.82 L 987.688 299.82 Q 987.688 295.977 986.07 294.231 L 986.07 294.231 L 986.07 294.231 Q 984.453 292.484 981.055 292.484 L 981.055 292.484 L 981.055 292.484 Q 976.484 292.484 974.363 294.793 L 974.363 294.793 L 974.363 294.793 Q 972.242 297.102 972.242 302.281 L 972.242 302.281 L 972.242 316.344 L 969.922 316.344 L 969.922 290.867 L 971.891 290.867 L 972.336 294.359 L 972.477 294.359 L 972.477 294.359 Q 974.961 290.375 981.313 290.375 L 981.313 290.375 L 981.313 290.375 Q 989.984 290.375 989.984 299.68 L 989.984 299.68 L 989.984 316.344 Z  M 683.07 316.344 L 680.633 316.344 L 675.055 299.305 L 675.055 299.305 Q 674.516 297.57 673.672 294.219 L 673.672 294.219 L 673.531 294.219 L 673.039 295.953 L 671.984 299.352 L 666.313 316.344 L 664.016 316.344 L 656.727 290.867 L 659.211 290.867 L 663.289 305.633 L 663.289 305.633 Q 664.719 311.117 665.164 313.695 L 665.164 313.695 L 665.305 313.695 L 665.305 313.695 Q 666.688 308.211 667.32 306.406 L 667.32 306.406 L 672.57 290.867 L 674.68 290.867 L 679.672 306.359 L 679.672 306.359 Q 681.359 311.867 681.734 313.648 L 681.734 313.648 L 681.875 313.648 L 681.875 313.648 Q 682.063 312.125 683.75 305.492 L 683.75 305.492 L 687.641 290.867 L 689.984 290.867 L 683.07 316.344 Z  M 705.266 316.813 L 705.266 316.813 L 705.266 316.813 Q 699.711 316.813 696.605 313.391 L 696.605 313.391 L 696.605 313.391 Q 693.5 309.969 693.5 303.805 L 693.5 303.805 L 693.5 303.805 Q 693.5 297.711 696.5 294.043 L 696.5 294.043 L 696.5 294.043 Q 699.5 290.375 704.586 290.375 L 704.586 290.375 L 704.586 290.375 Q 709.086 290.375 711.688 293.516 L 711.688 293.516 L 711.688 293.516 Q 714.289 296.656 714.289 302.047 L 714.289 302.047 L 714.289 303.922 L 695.938 303.922 L 695.938 303.922 Q 695.984 309.172 698.387 311.938 L 698.387 311.938 L 698.387 311.938 Q 700.789 314.703 705.266 314.703 L 705.266 314.703 L 705.266 314.703 Q 707.445 314.703 709.098 314.398 L 709.098 314.398 L 709.098 314.398 Q 710.75 314.094 713.281 313.086 L 713.281 313.086 L 713.281 315.195 L 713.281 315.195 Q 711.125 316.133 709.297 316.473 L 709.297 316.473 L 709.297 316.473 Q 707.469 316.813 705.266 316.813 Z  M 704.586 292.438 L 704.586 292.438 L 704.586 292.438 Q 700.906 292.438 698.68 294.863 L 698.68 294.863 L 698.68 294.863 Q 696.453 297.289 696.078 301.859 L 696.078 301.859 L 711.828 301.859 L 711.828 301.859 Q 711.828 297.43 709.906 294.934 L 709.906 294.934 L 709.906 294.934 Q 707.984 292.438 704.586 292.438 Z  M 732.078 290.375 L 732.078 290.375 L 732.078 290.375 Q 737.422 290.375 740.129 293.738 L 740.129 293.738 L 740.129 293.738 Q 742.836 297.102 742.836 303.57 L 742.836 303.57 L 742.836 303.57 Q 742.836 309.922 739.988 313.367 L 739.988 313.367 L 739.988 313.367 Q 737.141 316.813 731.984 316.813 L 731.984 316.813 L 731.984 316.813 Q 729.266 316.813 727.086 315.688 L 727.086 315.688 L 727.086 315.688 Q 724.906 314.563 723.641 312.5 L 723.641 312.5 L 723.43 312.5 L 722.773 316.344 L 721.32 316.344 L 721.32 279.875 L 723.641 279.875 L 723.641 289.039 L 723.641 289.039 Q 723.641 291.102 723.547 292.836 L 723.547 292.836 L 723.477 294.828 L 723.641 294.828 L 723.641 294.828 Q 725.094 292.531 727.145 291.453 L 727.145 291.453 L 727.145 291.453 Q 729.195 290.375 732.078 290.375 Z  M 732.031 292.484 L 732.031 292.484 L 732.031 292.484 Q 727.531 292.484 725.586 295.063 L 725.586 295.063 L 725.586 295.063 Q 723.641 297.641 723.641 303.57 L 723.641 303.57 L 723.641 303.969 L 723.641 303.969 Q 723.641 309.734 725.668 312.242 L 725.668 312.242 L 725.668 312.242 Q 727.695 314.75 731.984 314.75 L 731.984 314.75 L 731.984 314.75 Q 736.156 314.75 738.266 311.832 L 738.266 311.832 L 738.266 311.832 Q 740.375 308.914 740.375 303.523 L 740.375 303.523 L 740.375 303.523 Q 740.375 292.484 732.031 292.484 Z  M 870.453 251.445 L 870.453 251.445 L 870.453 251.445 Q 864.992 251.445 861.898 248 L 861.898 248 L 861.898 248 Q 858.805 244.555 858.805 238.391 L 858.805 238.391 L 858.805 238.391 Q 858.805 232.063 862.016 228.535 L 862.016 228.535 L 862.016 228.535 Q 865.227 225.008 870.805 225.008 L 870.805 225.008 L 870.805 225.008 Q 874.109 225.008 877.133 226.156 L 877.133 226.156 L 876.5 228.219 L 876.5 228.219 Q 873.195 227.117 870.758 227.117 L 870.758 227.117 L 870.758 227.117 Q 866.07 227.117 863.656 230.012 L 863.656 230.012 L 863.656 230.012 Q 861.242 232.906 861.242 238.344 L 861.242 238.344 L 861.242 238.344 Q 861.242 243.5 863.656 246.418 L 863.656 246.418 L 863.656 246.418 Q 866.07 249.336 870.406 249.336 L 870.406 249.336 L 870.406 249.336 Q 873.875 249.336 876.852 248.094 L 876.852 248.094 L 876.852 250.25 L 876.852 250.25 Q 874.414 251.445 870.453 251.445 Z  M 904.156 238.203 L 904.156 238.203 L 904.156 238.203 Q 904.156 244.438 901.133 247.941 L 901.133 247.941 L 901.133 247.941 Q 898.109 251.445 892.789 251.445 L 892.789 251.445 L 892.789 251.445 Q 889.438 251.445 886.883 249.828 L 886.883 249.828 L 886.883 249.828 Q 884.328 248.211 882.969 245.188 L 882.969 245.188 L 882.969 245.188 Q 881.609 242.164 881.609 238.203 L 881.609 238.203 L 881.609 238.203 Q 881.609 231.969 884.633 228.488 L 884.633 228.488 L 884.633 228.488 Q 887.656 225.008 892.93 225.008 L 892.93 225.008 L 892.93 225.008 Q 898.18 225.008 901.168 228.535 L 901.168 228.535 L 901.168 228.535 Q 904.156 232.063 904.156 238.203 Z  M 884.047 238.203 L 884.047 238.203 L 884.047 238.203 Q 884.047 243.453 886.355 246.395 L 886.355 246.395 L 886.355 246.395 Q 888.664 249.336 892.883 249.336 L 892.883 249.336 L 892.883 249.336 Q 897.102 249.336 899.41 246.395 L 899.41 246.395 L 899.41 246.395 Q 901.719 243.453 901.719 238.203 L 901.719 238.203 L 901.719 238.203 Q 901.719 232.93 899.387 230.023 L 899.387 230.023 L 899.387 230.023 Q 897.055 227.117 892.836 227.117 L 892.836 227.117 L 892.836 227.117 Q 888.617 227.117 886.332 230.012 L 886.332 230.012 L 886.332 230.012 Q 884.047 232.906 884.047 238.203 Z  M 931.273 250.977 L 928.977 250.977 L 928.977 234.453 L 928.977 234.453 Q 928.977 230.609 927.359 228.863 L 927.359 228.863 L 927.359 228.863 Q 925.742 227.117 922.344 227.117 L 922.344 227.117 L 922.344 227.117 Q 917.773 227.117 915.652 229.426 L 915.652 229.426 L 915.652 229.426 Q 913.531 231.734 913.531 236.914 L 913.531 236.914 L 913.531 250.977 L 911.211 250.977 L 911.211 225.5 L 913.18 225.5 L 913.625 228.992 L 913.766 228.992 L 913.766 228.992 Q 916.25 225.008 922.602 225.008 L 922.602 225.008 L 922.602 225.008 Q 931.273 225.008 931.273 234.313 L 931.273 234.313 L 931.273 250.977 Z  M 948.992 225.5 L 948.992 227.516 L 942.992 227.516 L 942.992 250.977 L 940.672 250.977 L 940.672 227.516 L 935.938 227.516 L 935.938 226.156 L 940.672 225.289 L 940.672 223.32 L 940.672 223.32 Q 940.672 218.633 942.395 216.441 L 942.395 216.441 L 942.395 216.441 Q 944.117 214.25 948.031 214.25 L 948.031 214.25 L 948.031 214.25 Q 950.141 214.25 952.25 214.883 L 952.25 214.883 L 951.711 216.898 L 951.711 216.898 Q 949.836 216.313 947.984 216.313 L 947.984 216.313 L 947.984 216.313 Q 945.266 216.313 944.129 217.918 L 944.129 217.918 L 944.129 217.918 Q 942.992 219.523 942.992 223.133 L 942.992 223.133 L 942.992 225.5 L 948.992 225.5 Z  M 956.234 225.5 L 956.234 250.977 L 953.914 250.977 L 953.914 225.5 L 956.234 225.5 Z  M 953.586 218.422 L 953.586 218.422 L 953.586 218.422 Q 953.586 216.172 955.063 216.172 L 955.063 216.172 L 955.063 216.172 Q 955.789 216.172 956.199 216.758 L 956.199 216.758 L 956.199 216.758 Q 956.609 217.344 956.609 218.422 L 956.609 218.422 L 956.609 218.422 Q 956.609 219.477 956.199 220.086 L 956.199 220.086 L 956.199 220.086 Q 955.789 220.695 955.063 220.695 L 955.063 220.695 L 955.063 220.695 Q 953.586 220.695 953.586 218.422 Z  M 976.484 225.5 L 984.641 225.5 L 984.641 227.117 L 979.367 227.445 L 979.367 227.445 Q 981.477 230.07 981.477 233.211 L 981.477 233.211 L 981.477 233.211 Q 981.477 236.891 979.027 239.176 L 979.027 239.176 L 979.027 239.176 Q 976.578 241.461 972.453 241.461 L 972.453 241.461 L 972.453 241.461 Q 970.719 241.461 970.016 241.32 L 970.016 241.32 L 970.016 241.32 Q 968.633 242.047 967.906 243.031 L 967.906 243.031 L 967.906 243.031 Q 967.18 244.016 967.18 245.117 L 967.18 245.117 L 967.18 245.117 Q 967.18 246.336 968.105 246.898 L 968.105 246.898 L 968.105 246.898 Q 969.031 247.461 971.211 247.461 L 971.211 247.461 L 975.664 247.461 L 975.664 247.461 Q 979.813 247.461 982.016 249.137 L 982.016 249.137 L 982.016 249.137 Q 984.219 250.813 984.219 254.094 L 984.219 254.094 L 984.219 254.094 Q 984.219 258.125 980.949 260.316 L 980.949 260.316 L 980.949 260.316 Q 977.68 262.508 971.633 262.508 L 971.633 262.508 L 971.633 262.508 Q 966.828 262.508 964.191 260.656 L 964.191 260.656 L 964.191 260.656 Q 961.555 258.805 961.555 255.5 L 961.555 255.5 L 961.555 255.5 Q 961.555 252.875 963.184 251.141 L 963.184 251.141 L 963.184 251.141 Q 964.813 249.406 967.602 248.773 L 967.602 248.773 L 967.602 248.773 Q 966.453 248.281 965.762 247.379 L 965.762 247.379 L 965.762 247.379 Q 965.07 246.477 965.07 245.305 L 965.07 245.305 L 965.07 245.305 Q 965.07 242.75 968.328 240.805 L 968.328 240.805 L 968.328 240.805 Q 966.102 239.891 964.859 237.934 L 964.859 237.934 L 964.859 237.934 Q 963.617 235.977 963.617 233.445 L 963.617 233.445 L 963.617 233.445 Q 963.617 229.625 966.043 227.316 L 966.043 227.316 L 966.043 227.316 Q 968.469 225.008 972.594 225.008 L 972.594 225.008 L 972.594 225.008 Q 975.102 225.008 976.484 225.5 L 976.484 225.5 Z  M 964.016 255.289 L 964.016 255.289 L 964.016 255.289 Q 964.016 260.539 971.82 260.539 L 971.82 260.539 L 971.82 260.539 Q 981.852 260.539 981.852 254.141 L 981.852 254.141 L 981.852 254.141 Q 981.852 251.844 980.281 250.813 L 980.281 250.813 L 980.281 250.813 Q 978.711 249.781 975.195 249.781 L 975.195 249.781 L 971.023 249.781 L 971.023 249.781 Q 964.016 249.781 964.016 255.289 Z  M 965.961 233.445 L 965.961 233.445 L 965.961 233.445 Q 965.961 236.398 967.754 238.027 L 967.754 238.027 L 967.754 238.027 Q 969.547 239.656 972.547 239.656 L 972.547 239.656 L 972.547 239.656 Q 975.734 239.656 977.434 238.039 L 977.434 238.039 L 977.434 238.039 Q 979.133 236.422 979.133 233.352 L 979.133 233.352 L 979.133 233.352 Q 979.133 230.094 977.387 228.465 L 977.387 228.465 L 977.387 228.465 Q 975.641 226.836 972.5 226.836 L 972.5 226.836 L 972.5 226.836 Q 969.453 226.836 967.707 228.582 L 967.707 228.582 L 967.707 228.582 Q 965.961 230.328 965.961 233.445 Z  M 989.586 225.5 L 991.883 225.5 L 991.883 242 L 991.883 242 Q 991.883 245.844 993.5 247.59 L 993.5 247.59 L 993.5 247.59 Q 995.117 249.336 998.516 249.336 L 998.516 249.336 L 998.516 249.336 Q 1003.063 249.336 1005.207 247.039 L 1005.207 247.039 L 1005.207 247.039 Q 1007.352 244.742 1007.352 239.563 L 1007.352 239.563 L 1007.352 225.5 L 1009.648 225.5 L 1009.648 250.977 L 1007.68 250.977 L 1007.258 247.461 L 1007.117 247.461 L 1007.117 247.461 Q 1004.633 251.445 998.281 251.445 L 998.281 251.445 L 998.281 251.445 Q 989.586 251.445 989.586 242.141 L 989.586 242.141 L 989.586 225.5 Z  M 1028.211 225.008 L 1028.211 225.008 L 1028.211 225.008 Q 1029.828 225.008 1031.68 225.336 L 1031.68 225.336 L 1031.234 227.563 L 1031.234 227.563 Q 1029.641 227.164 1027.93 227.164 L 1027.93 227.164 L 1027.93 227.164 Q 1024.672 227.164 1022.586 229.93 L 1022.586 229.93 L 1022.586 229.93 Q 1020.5 232.695 1020.5 236.914 L 1020.5 236.914 L 1020.5 250.977 L 1018.18 250.977 L 1018.18 225.5 L 1020.148 225.5 L 1020.383 230.094 L 1020.547 230.094 L 1020.547 230.094 Q 1022.117 227.281 1023.898 226.145 L 1023.898 226.145 L 1023.898 226.145 Q 1025.68 225.008 1028.211 225.008 Z  M 1054.039 250.977 L 1052.328 250.977 L 1051.742 246.945 L 1051.555 246.945 L 1051.555 246.945 Q 1049.633 249.406 1047.605 250.426 L 1047.605 250.426 L 1047.605 250.426 Q 1045.578 251.445 1042.813 251.445 L 1042.813 251.445 L 1042.813 251.445 Q 1039.063 251.445 1036.977 249.523 L 1036.977 249.523 L 1036.977 249.523 Q 1034.891 247.602 1034.891 244.203 L 1034.891 244.203 L 1034.891 244.203 Q 1034.891 240.477 1037.996 238.414 L 1037.996 238.414 L 1037.996 238.414 Q 1041.102 236.352 1046.984 236.234 L 1046.984 236.234 L 1051.836 236.094 L 1051.836 234.406 L 1051.836 234.406 Q 1051.836 230.773 1050.359 228.922 L 1050.359 228.922 L 1050.359 228.922 Q 1048.883 227.07 1045.602 227.07 L 1045.602 227.07 L 1045.602 227.07 Q 1042.063 227.07 1038.266 229.039 L 1038.266 229.039 L 1037.398 227.023 L 1037.398 227.023 Q 1041.594 225.055 1045.695 225.055 L 1045.695 225.055 L 1045.695 225.055 Q 1049.891 225.055 1051.965 227.234 L 1051.965 227.234 L 1051.965 227.234 Q 1054.039 229.414 1054.039 234.031 L 1054.039 234.031 L 1054.039 250.977 Z  M 1042.953 249.336 L 1042.953 249.336 L 1042.953 249.336 Q 1047.031 249.336 1049.387 247.004 L 1049.387 247.004 L 1049.387 247.004 Q 1051.742 244.672 1051.742 240.523 L 1051.742 240.523 L 1051.742 238.016 L 1047.289 238.203 L 1047.289 238.203 Q 1041.922 238.461 1039.637 239.879 L 1039.637 239.879 L 1039.637 239.879 Q 1037.352 241.297 1037.352 244.297 L 1037.352 244.297 L 1037.352 244.297 Q 1037.352 246.688 1038.816 248.012 L 1038.816 248.012 L 1038.816 248.012 Q 1040.281 249.336 1042.953 249.336 Z  M 1069.016 249.383 L 1069.016 249.383 L 1069.016 249.383 Q 1071.219 249.383 1072.859 249.008 L 1072.859 249.008 L 1072.859 250.883 L 1072.859 250.883 Q 1071.172 251.445 1068.969 251.445 L 1068.969 251.445 L 1068.969 251.445 Q 1065.594 251.445 1063.988 249.641 L 1063.988 249.641 L 1063.988 249.641 Q 1062.383 247.836 1062.383 243.969 L 1062.383 243.969 L 1062.383 227.516 L 1058.609 227.516 L 1058.609 226.156 L 1062.383 225.102 L 1063.555 219.336 L 1064.75 219.336 L 1064.75 225.5 L 1072.227 225.5 L 1072.227 227.516 L 1064.75 227.516 L 1064.75 243.641 L 1064.75 243.641 Q 1064.75 246.57 1065.781 247.977 L 1065.781 247.977 L 1065.781 247.977 Q 1066.813 249.383 1069.016 249.383 Z  M 1080.688 225.5 L 1080.688 250.977 L 1078.367 250.977 L 1078.367 225.5 L 1080.688 225.5 Z  M 1078.039 218.422 L 1078.039 218.422 L 1078.039 218.422 Q 1078.039 216.172 1079.516 216.172 L 1079.516 216.172 L 1079.516 216.172 Q 1080.242 216.172 1080.652 216.758 L 1080.652 216.758 L 1080.652 216.758 Q 1081.063 217.344 1081.063 218.422 L 1081.063 218.422 L 1081.063 218.422 Q 1081.063 219.477 1080.652 220.086 L 1080.652 220.086 L 1080.652 220.086 Q 1080.242 220.695 1079.516 220.695 L 1079.516 220.695 L 1079.516 220.695 Q 1078.039 220.695 1078.039 218.422 Z  M 1110.289 238.203 L 1110.289 238.203 L 1110.289 238.203 Q 1110.289 244.438 1107.266 247.941 L 1107.266 247.941 L 1107.266 247.941 Q 1104.242 251.445 1098.922 251.445 L 1098.922 251.445 L 1098.922 251.445 Q 1095.57 251.445 1093.016 249.828 L 1093.016 249.828 L 1093.016 249.828 Q 1090.461 248.211 1089.102 245.188 L 1089.102 245.188 L 1089.102 245.188 Q 1087.742 242.164 1087.742 238.203 L 1087.742 238.203 L 1087.742 238.203 Q 1087.742 231.969 1090.766 228.488 L 1090.766 228.488 L 1090.766 228.488 Q 1093.789 225.008 1099.063 225.008 L 1099.063 225.008 L 1099.063 225.008 Q 1104.313 225.008 1107.301 228.535 L 1107.301 228.535 L 1107.301 228.535 Q 1110.289 232.063 1110.289 238.203 Z  M 1090.18 238.203 L 1090.18 238.203 L 1090.18 238.203 Q 1090.18 243.453 1092.488 246.395 L 1092.488 246.395 L 1092.488 246.395 Q 1094.797 249.336 1099.016 249.336 L 1099.016 249.336 L 1099.016 249.336 Q 1103.234 249.336 1105.543 246.395 L 1105.543 246.395 L 1105.543 246.395 Q 1107.852 243.453 1107.852 238.203 L 1107.852 238.203 L 1107.852 238.203 Q 1107.852 232.93 1105.52 230.023 L 1105.52 230.023 L 1105.52 230.023 Q 1103.188 227.117 1098.969 227.117 L 1098.969 227.117 L 1098.969 227.117 Q 1094.75 227.117 1092.465 230.012 L 1092.465 230.012 L 1092.465 230.012 Q 1090.18 232.906 1090.18 238.203 Z  M 1137.406 250.977 L 1135.109 250.977 L 1135.109 234.453 L 1135.109 234.453 Q 1135.109 230.609 1133.492 228.863 L 1133.492 228.863 L 1133.492 228.863 Q 1131.875 227.117 1128.477 227.117 L 1128.477 227.117 L 1128.477 227.117 Q 1123.906 227.117 1121.785 229.426 L 1121.785 229.426 L 1121.785 229.426 Q 1119.664 231.734 1119.664 236.914 L 1119.664 236.914 L 1119.664 250.977 L 1117.344 250.977 L 1117.344 225.5 L 1119.313 225.5 L 1119.758 228.992 L 1119.898 228.992 L 1119.898 228.992 Q 1122.383 225.008 1128.734 225.008 L 1128.734 225.008 L 1128.734 225.008 Q 1137.406 225.008 1137.406 234.313 L 1137.406 234.313 L 1137.406 250.977 Z  M 768.383 248.914 L 768.383 250.977 L 750.195 250.977 L 750.195 249.5 L 765.313 227.563 L 751.297 227.563 L 751.297 225.5 L 768.336 225.5 L 768.336 226.977 L 753.125 248.914 L 768.383 248.914 Z  M 784.953 251.445 L 784.953 251.445 L 784.953 251.445 Q 779.398 251.445 776.293 248.023 L 776.293 248.023 L 776.293 248.023 Q 773.188 244.602 773.188 238.438 L 773.188 238.438 L 773.188 238.438 Q 773.188 232.344 776.188 228.676 L 776.188 228.676 L 776.188 228.676 Q 779.188 225.008 784.273 225.008 L 784.273 225.008 L 784.273 225.008 Q 788.773 225.008 791.375 228.148 L 791.375 228.148 L 791.375 228.148 Q 793.977 231.289 793.977 236.68 L 793.977 236.68 L 793.977 238.555 L 775.625 238.555 L 775.625 238.555 Q 775.672 243.805 778.074 246.57 L 778.074 246.57 L 778.074 246.57 Q 780.477 249.336 784.953 249.336 L 784.953 249.336 L 784.953 249.336 Q 787.133 249.336 788.785 249.031 L 788.785 249.031 L 788.785 249.031 Q 790.438 248.727 792.969 247.719 L 792.969 247.719 L 792.969 249.828 L 792.969 249.828 Q 790.813 250.766 788.984 251.106 L 788.984 251.106 L 788.984 251.106 Q 787.156 251.445 784.953 251.445 Z  M 784.273 227.07 L 784.273 227.07 L 784.273 227.07 Q 780.594 227.07 778.367 229.496 L 778.367 229.496 L 778.367 229.496 Q 776.141 231.922 775.766 236.492 L 775.766 236.492 L 791.516 236.492 L 791.516 236.492 Q 791.516 232.063 789.594 229.566 L 789.594 229.566 L 789.594 229.566 Q 787.672 227.07 784.273 227.07 Z  M 811.039 225.008 L 811.039 225.008 L 811.039 225.008 Q 812.656 225.008 814.508 225.336 L 814.508 225.336 L 814.063 227.563 L 814.063 227.563 Q 812.469 227.164 810.758 227.164 L 810.758 227.164 L 810.758 227.164 Q 807.5 227.164 805.414 229.93 L 805.414 229.93 L 805.414 229.93 Q 803.328 232.695 803.328 236.914 L 803.328 236.914 L 803.328 250.977 L 801.008 250.977 L 801.008 225.5 L 802.977 225.5 L 803.211 230.094 L 803.375 230.094 L 803.375 230.094 Q 804.945 227.281 806.727 226.145 L 806.727 226.145 L 806.727 226.145 Q 808.508 225.008 811.039 225.008 Z  M 840.758 238.203 L 840.758 238.203 L 840.758 238.203 Q 840.758 244.438 837.734 247.941 L 837.734 247.941 L 837.734 247.941 Q 834.711 251.445 829.391 251.445 L 829.391 251.445 L 829.391 251.445 Q 826.039 251.445 823.484 249.828 L 823.484 249.828 L 823.484 249.828 Q 820.93 248.211 819.57 245.188 L 819.57 245.188 L 819.57 245.188 Q 818.211 242.164 818.211 238.203 L 818.211 238.203 L 818.211 238.203 Q 818.211 231.969 821.234 228.488 L 821.234 228.488 L 821.234 228.488 Q 824.258 225.008 829.531 225.008 L 829.531 225.008 L 829.531 225.008 Q 834.781 225.008 837.77 228.535 L 837.77 228.535 L 837.77 228.535 Q 840.758 232.063 840.758 238.203 Z  M 820.648 238.203 L 820.648 238.203 L 820.648 238.203 Q 820.648 243.453 822.957 246.395 L 822.957 246.395 L 822.957 246.395 Q 825.266 249.336 829.484 249.336 L 829.484 249.336 L 829.484 249.336 Q 833.703 249.336 836.012 246.395 L 836.012 246.395 L 836.012 246.395 Q 838.32 243.453 838.32 238.203 L 838.32 238.203 L 838.32 238.203 Q 838.32 232.93 835.988 230.023 L 835.988 230.023 L 835.988 230.023 Q 833.656 227.117 829.438 227.117 L 829.438 227.117 L 829.438 227.117 Q 825.219 227.117 822.934 230.012 L 822.934 230.012 L 822.934 230.012 Q 820.648 232.906 820.648 238.203 Z  M 669.781 218.961 L 669.781 250.977 L 667.367 250.977 L 667.367 218.961 L 656.234 218.961 L 656.234 216.711 L 680.914 216.711 L 680.914 218.961 L 669.781 218.961 Z  M 705.477 250.977 L 703.18 250.977 L 703.18 234.453 L 703.18 234.453 Q 703.18 230.609 701.563 228.863 L 701.563 228.863 L 701.563 228.863 Q 699.945 227.117 696.547 227.117 L 696.547 227.117 L 696.547 227.117 Q 691.977 227.117 689.855 229.426 L 689.855 229.426 L 689.855 229.426 Q 687.734 231.734 687.734 236.914 L 687.734 236.914 L 687.734 250.977 L 685.414 250.977 L 685.414 214.508 L 687.734 214.508 L 687.734 226.109 L 687.617 229.367 L 687.781 229.367 L 687.781 229.367 Q 689.211 227.07 691.391 226.039 L 691.391 226.039 L 691.391 226.039 Q 693.57 225.008 696.805 225.008 L 696.805 225.008 L 696.805 225.008 Q 705.477 225.008 705.477 234.313 L 705.477 234.313 L 705.477 250.977 Z  M 724.016 251.445 L 724.016 251.445 L 724.016 251.445 Q 718.461 251.445 715.355 248.023 L 715.355 248.023 L 715.355 248.023 Q 712.25 244.602 712.25 238.438 L 712.25 238.438 L 712.25 238.438 Q 712.25 232.344 715.25 228.676 L 715.25 228.676 L 715.25 228.676 Q 718.25 225.008 723.336 225.008 L 723.336 225.008 L 723.336 225.008 Q 727.836 225.008 730.438 228.148 L 730.438 228.148 L 730.438 228.148 Q 733.039 231.289 733.039 236.68 L 733.039 236.68 L 733.039 238.555 L 714.688 238.555 L 714.688 238.555 Q 714.734 243.805 717.137 246.57 L 717.137 246.57 L 717.137 246.57 Q 719.539 249.336 724.016 249.336 L 724.016 249.336 L 724.016 249.336 Q 726.195 249.336 727.848 249.031 L 727.848 249.031 L 727.848 249.031 Q 729.5 248.727 732.031 247.719 L 732.031 247.719 L 732.031 249.828 L 732.031 249.828 Q 729.875 250.766 728.047 251.106 L 728.047 251.106 L 728.047 251.106 Q 726.219 251.445 724.016 251.445 Z  M 723.336 227.07 L 723.336 227.07 L 723.336 227.07 Q 719.656 227.07 717.43 229.496 L 717.43 229.496 L 717.43 229.496 Q 715.203 231.922 714.828 236.492 L 714.828 236.492 L 730.578 236.492 L 730.578 236.492 Q 730.578 232.063 728.656 229.566 L 728.656 229.566 L 728.656 229.566 Q 726.734 227.07 723.336 227.07 Z " fill-rule="evenodd" fill="rgb(255,255,255)"/></svg>