<?xml version="1.0" standalone="no"?><!-- Generator: Gravit.io --><svg xmlns="http://www.w3.org/2000/svg" xmlns:xlink="http://www.w3.org/1999/xlink" style="isolation:isolate" viewBox="0 0 1200 630" width="1200" height="630"><rect x="0" y="0" width="1200" height="630" transform="matrix(1,0,0,1,0,0)" fill="rgb(51,153,51)"/><g id="null"><path d=" M 433.748 241.104 L 262.365 412.487 Q 224.849 450.003 189.464 447.872 Q 154.079 445.74 123.383 415.045 Q 92.688 384.349 90.556 348.964 Q 88.424 313.579 125.941 276.062 L 297.324 104.68 L 263.644 71 L 92.261 242.383 Q 41.955 292.689 44.087 345.98 Q 46.218 399.271 92.901 445.953 Q 139.584 492.636 192.661 494.554 Q 245.739 496.473 296.045 446.166 L 467.428 274.784 L 433.748 241.104 Z " fill="rgb(255,255,255)"/><path d=" M 356.478 490.766 L 527.861 319.383 Q 565.377 281.866 563.246 246.481 Q 561.114 211.096 530.419 180.401 Q 499.723 149.705 464.338 147.574 Q 428.953 145.442 391.437 182.959 L 220.054 354.342 L 186.374 320.662 L 357.757 149.279 Q 408.063 98.973 461.354 101.104 Q 514.645 103.236 561.327 149.919 Q 608.01 196.601 609.928 249.679 Q 611.847 302.756 561.54 353.063 L 390.158 524.445 L 356.478 490.766 Z " fill="rgb(255,255,255)"/><rect x="372.578" y="210.188" width="42.668" height="42.668" transform="matrix(0.707,0.707,-0.707,0.707,279.085,-210.727)" fill="rgb(255,255,255)"/><rect x="285.67" y="124.705" width="42.668" height="42.668" transform="matrix(0.707,0.707,-0.707,0.707,193.184,-174.311)" fill="rgb(255,255,255)"/><rect x="238.654" y="344.112" width="42.668" height="42.668" transform="matrix(0.707,0.707,-0.707,0.707,334.558,-76.803)" fill="rgb(255,255,255)"/><rect x="324.138" y="428.171" width="42.668" height="42.668" transform="matrix(0.707,0.707,-0.707,0.707,419.034,-112.628)" fill="rgb(255,255,255)"/></g><g transform="matrix(1,0,0,1,656,71)"><text transform="matrix(1,0,0,1,0,64.131)" style="font-family:&quot;Open Sans&quot;;font-weight:400;font-size:60px;font-style:normal;fill:#ffffff;stroke:none;">UniteJS</text></g><g transform="matrix(1,0,0,1,656,475.42)"><text transform="matrix(1,0,0,1,0,38.479)" style="font-family:&quot;Open Sans&quot;;font-weight:400;font-size:36px;font-style:normal;fill:#ffffff;stroke:none;">@unitejs</text></g><g transform="matrix(1,0,0,1,663,524.445)"><text transform="matrix(1,0,0,1,0,38.479)" style="font-family:&quot;Open Sans&quot;;font-weight:400;font-size:36px;font-style:normal;fill:#ffffff;stroke:none;">http://unitejs.com</text></g><g transform="matrix(1,0,0,1,656,199.672)"><text transform="matrix(1,0,0,1,0,51.305)" style="font-family:&quot;Open Sans&quot;;font-weight:300;font-size:48px;font-style:normal;fill:#ffffff;stroke:none;">The zero configuration</text><text transform="matrix(1,0,0,1,0,116.672)" style="font-family:&quot;Open Sans&quot;;font-weight:300;font-size:48px;font-style:normal;fill:#ffffff;stroke:none;">web application</text><text transform="matrix(1,0,0,1,0,182.039)" style="font-family:&quot;Open Sans&quot;;font-weight:300;font-size:48px;font-style:normal;fill:#ffffff;stroke:none;">generation tool.</text></g></svg>