<?xml version="1.0" standalone="no"?><!-- Generator: Gravit.io --><svg xmlns="http://www.w3.org/2000/svg" xmlns:xlink="http://www.w3.org/1999/xlink" style="isolation:isolate" viewBox="0 0 1024 512" width="1024" height="512"><rect x="0" y="0" width="1024" height="512" transform="matrix(1,0,0,1,0,0)" fill="rgb(51,153,51)"/><g id="null"><path d=" M 357.463 211.301 L 216.107 352.657 Q 185.164 383.6 155.978 381.843 Q 126.793 380.084 101.475 354.767 Q 76.158 329.449 74.399 300.264 Q 72.641 271.078 103.585 240.134 L 244.941 98.779 L 217.162 71 L 75.806 212.356 Q 34.313 253.848 36.072 297.803 Q 37.829 341.757 76.333 380.26 Q 114.837 418.764 158.615 420.346 Q 202.394 421.929 243.886 380.436 L 385.242 239.08 L 357.463 211.301 Z " fill="rgb(255,255,255)"/><path d=" M 293.731 417.222 L 435.087 275.866 Q 466.03 244.922 464.273 215.736 Q 462.514 186.551 437.197 161.234 Q 411.879 135.916 382.694 134.158 Q 353.508 132.4 322.565 163.343 L 181.209 304.7 L 153.43 276.92 L 294.786 135.564 Q 336.278 94.072 380.232 95.83 Q 424.187 97.588 462.69 136.092 Q 501.194 174.595 502.776 218.374 Q 504.358 262.152 462.865 303.645 L 321.51 445 L 293.731 417.222 Z " fill="rgb(255,255,255)"/><rect x="306.999" y="185.749" width="35.187" height="35.187" transform="matrix(0.707,0.707,-0.707,0.707,238.856,-169.964)" fill="rgb(255,255,255)"/><rect x="235.317" y="115.258" width="35.187" height="35.187" transform="matrix(0.707,0.707,-0.707,0.707,168.016,-139.923)" fill="rgb(255,255,255)"/><rect x="196.562" y="296.209" width="35.187" height="35.187" transform="matrix(0.707,0.707,-0.707,0.707,284.617,-59.52)" fill="rgb(255,255,255)"/><rect x="267.068" y="365.527" width="35.187" height="35.187" transform="matrix(0.707,0.707,-0.707,0.707,354.282,-89.073)" fill="rgb(255,255,255)"/></g><g id="null"><g transform="matrix(1,0,0,1,540,75)"><text transform="matrix(1,0,0,1,0,51.305)" style="font-family:&quot;Open Sans&quot;;font-weight:400;font-size:48px;font-style:normal;fill:#FFFFFF;stroke:none;">UniteJS</text></g></g><g id="null"><g transform="matrix(1,0,0,1,540,383)"><text transform="matrix(1,0,0,1,0,25.652)" style="font-family:&quot;Open Sans&quot;;font-weight:400;font-size:24px;font-style:normal;fill:#FFFFFF;stroke:none;">@unitejs</text></g></g><g id="null"><g transform="matrix(1,0,0,1,540,428.658)"><text transform="matrix(1,0,0,1,0,25.652)" style="font-family:&quot;Open Sans&quot;;font-weight:400;font-size:24px;font-style:normal;fill:#FFFFFF;stroke:none;">http://unitejs.com</text></g></g><g id="null"><g transform="matrix(1,0,0,1,540,156)"><text transform="matrix(1,0,0,1,0,38.479)" style="font-family:&quot;Open Sans&quot;;font-weight:300;font-size:36px;font-style:normal;fill:#FFFFFF;stroke:none;">The zero configuration</text></g><g transform="matrix(1,0,0,1,540,221.367)"><text transform="matrix(1,0,0,1,0,38.479)" style="font-family:&quot;Open Sans&quot;;font-weight:300;font-size:36px;font-style:normal;fill:#FFFFFF;stroke:none;">web application</text></g><g transform="matrix(1,0,0,1,540,286.734)"><text transform="matrix(1,0,0,1,0,38.479)" style="font-family:&quot;Open Sans&quot;;font-weight:300;font-size:36px;font-style:normal;fill:#FFFFFF;stroke:none;">generation tool.</text></g></g></svg>